<?xml version="1.0" standalone="no"?>
<!DOCTYPE svg PUBLIC "-//W3C//DTD SVG 1.1//EN" "http://www.w3.org/Graphics/SVG/1.1/DTD/svg11.dtd" >
<svg xmlns="http://www.w3.org/2000/svg" xmlns:xlink="http://www.w3.org/1999/xlink" version="1.1">
<metadata>
Created by FontForge 20200427 at Sat Jun 20 13:50:43 2015
 By www
Copyright (c) 2015 by Incools Design Studio. All rights reserved.
</metadata>
<defs>
<font id="Sambay" horiz-adv-x="377" >
  <font-face 
    font-family="Sambay"
    font-weight="400"
    font-stretch="normal"
    units-per-em="1000"
    panose-1="2 0 0 0 0 0 0 0 0 0"
    ascent="750"
    descent="-250"
    x-height="363"
    cap-height="707"
    bbox="-152.45 -399 829.847 1028.08"
    underline-thickness="50"
    underline-position="-150"
    unicode-range="U+000D-FB02"
  />
<missing-glyph horiz-adv-x="290" 
 />
    <glyph glyph-name="t_r" unicode="tr" horiz-adv-x="642" 
d="M639 230q20 15 29 -9q10 -28 -6 -51q-9 -12 -38.5 -29.5t-45.5 -1.5q-49 49 -58 98q0 2 -1 3q0 5 -1 8v1v13v27h1q0 31 1 47v41q-30 13 -73 4q-5 -1 -13 -7q-2 0 -3 1q-27 -62 -131 -106q-67 -28 -171 -39q12 -89 52 -149q13 -19 -6 -32q-16 -11 -29 -2q-6 4 -9 8
q0 1 -2 3q0 1 -2 3q-55 74 -65 127q-7 37 -13 37q-16 0 -23.5 8.5t-11.5 23.5t-6 19q-7 15 -9 20t1.5 9.5t15.5 4.5q19 0 21 1q0 135 1 150q2 28 17 103q6 28 27 30q20 2 36 -25q8 -16 10 -24q4 -10 6 -20.5t2 -23.5t-1 -21.5t-3 -24t-3 -21.5q-8 -80 -9 -119q115 -2 184 19
q3 1 10 1q4 3 11 7t10 7q24 21 25 22q-4 1 -14.5 4.5t-16.5 4.5q-60 15 -90 69q-2 3 -5.5 10.5t-5.5 10.5q-24 33 -25 73t12.5 71.5t34.5 57.5q28 33 64 31t60 -38q52 -78 53 -165q0 -26 5 -31.5t32 -7.5q60 -7 82 -67q18 -48 14 -138v-11q-2 -28 10 -40q36 4 63 25z
M308 460q65 -12 78.5 0t16.5 79q-3 36 -6 46q-10 42 -40 47q-37 6 -58 -25q-24 -36 -36 -72q-21 -63 45 -75z" />
    <glyph glyph-name="e_r" unicode="er" horiz-adv-x="645" 
d="M644 247q20 16 29 -9q10 -28 -7 -51q-7 -11 -37 -28.5t-46 -1.5q-61 59 -60 123q0 12 1 52t0 64q-31 15 -53.5 8.5t-35.5 -23.5t-22 -48q-35 -116 -96 -196t-135.5 -96.5t-147.5 65.5q1 0 1 1h-1v-1q-3 5 -31.5 2.5t-39.5 13.5q-4 7 6 21.5t22 25.5l12 11q0 2 -1 21.5
t-1 35t2.5 39.5t8.5 42.5t18 37.5t29 30q30 24 70.5 15.5t58.5 -41.5q14 -33 10.5 -63t-26 -61.5t-45.5 -54t-49 -40.5q0 -1 -1 -1q2 -3 4.5 -8t4.5 -7.5t4 -5.5t5 -4.5t6 -1.5q43 -14 86.5 6t78.5 63.5t62.5 96t45.5 109.5q-74 6 -115.5 61.5t-39.5 124.5t42 116
q28 34 64 31.5t60 -38.5q52 -79 52 -165q1 -26 6 -31.5t31 -7.5q61 -6 83 -67q13 -33 14 -97t10 -93q38 5 63 25zM124 327q-36 -10 -53.5 -30t-18.5 -62q-1 -25 28 5q35 36 44 70q3 11 0 17zM313 478q64 -12 77.5 0t17.5 79q-1 4 -2.5 20t-3.5 25t-6.5 21t-13 19t-21.5 9
q-59 8 -93 -98q-21 -63 45 -75z" />
    <glyph glyph-name="t_h" unicode="th" horiz-adv-x="507" 
d="M131 44q-43 21 -46 64q-3 34 -3 35q-1 8 -14 88q-15 1 -27 10t-17.5 17.5t-15.5 25.5q-19 31 12 40q20 5 29.5 17t11 24.5t0.5 33.5q-3 79 0 160q2 50 22 73q26 -11 38.5 -36t5.5 -52q-22 -81 -4 -157q20 7 23 10q38 33 63 59q6 7 8 32q2 18 6.5 57t7.5 59q0 2 14 35
q56 -18 69 -73q9 -34 -11.5 -88.5t-22.5 -79.5q-2 -26 2 -58.5t13 -76t11 -58.5q2 -12 14 -23q4 14 14 42q26 73 34 91q11 27 26 31q17 4 32 -28q20 -46 47 -116q10 -32 27 -41q10 -5 14.5 -12.5t8.5 -22.5t5 -18q2 -5 0 -14t-5 -10q-21 -5 -27 4q-27 29 -56 74
q-4 6 -7.5 14t-8.5 20t-8 20q-16 -32 -17 -35q-3 -11 -21 -79q-7 -24 -10 -29q-18 -37 -42 -6q-29 40 -49 79q-7 13 -12.5 28t-8.5 26t-7.5 30.5t-5.5 27t-5 30.5t-5 28q-2 16 -8 50q-8 -2 -8 -3q-14 -50 -70 -84q-24 -15 -21 -43q9 -80 28.5 -126t59.5 -61
q2 -16 -12.5 -21.5t-35 -0.5t-35.5 17z" />
    <glyph glyph-name="l_l" unicode="ll" horiz-adv-x="453" 
d="M258 -30q-35 38 -52 110q-8 -2 -12 -2q-26 -5 -58 6.5t-63 43.5t-51 79.5t-19.5 124t28.5 166.5q9 26 20 51t25 50t30.5 43t33 29t34.5 8.5t34 -19.5q27 -41 22 -101q-7 -109 -41 -214q-13 -43 -41 -92.5t-51 -69.5q-7 -6 2.5 -19.5t30 -24t40.5 -9.5q14 0 27 3l1 1
q-1 3 -1 10q-7 83 21.5 181t59.5 146q73 119 127 38q35 -55 32 -97q-3 -66 -17.5 -118.5t-37.5 -85t-41 -51t-41.5 -35t-26.5 -18.5q-3 -4 -3 -21.5t8.5 -41t20 -44t32 -31t44.5 -2.5q23 7 36 26.5t14 41.5t-1.5 40t-6.5 24q-20 28 -4 49q15 21 41 -1q14 -10 26 -31
q16 -30 11 -65.5t-31.5 -63t-59 -44t-72.5 -10t-70 39.5zM180 591q-30 -16 -52 -56q-55 -107 -58 -268q0 -47 11 -59q50 57 76.5 163.5t22.5 219.5zM390 460q-36 -13 -78 -124t-44 -184q130 75 122 308z" />
    <glyph glyph-name="f_r" unicode="fr" horiz-adv-x="593" 
d="M594 139q20 16 29 -9q11 -28 -6 -51q-5 -10 -36 -28t-47 -2q-34 32 -46.5 64t-13.5 85q3 36 1 89q-12 5 -30.5 8.5t-37.5 -0.5t-22 -17q-11 -49 -52 -78.5t-85 -37.5t-90.5 -17t-62.5 -21q-3 -17 -1 -46t8 -91t7 -87q2 -58 39 -129q2 -4 4 -12.5t2 -10.5l-12 -6
q-69 55 -79 123q-6 35 -23 209l-4 40q-3 0 -5.5 1t-3.5 1h-3q-5 -1 -16 -4t-16 -3.5t-11 1.5q-14 12 -34 49q14 9 31.5 17t23 11t11 13.5t4 28t-7.5 51.5q-23 135 -2 195q30 49 105 60q14 -7 27 -21t18.5 -30.5t-11.5 -27.5q-38 -14 -59.5 -68.5t-12.5 -112.5q0 -1 1 -18.5
t3 -34.5t4 -21q15 6 79 14t115 23q11 5 28 18.5t20 22.5q-74 7 -115.5 62t-39 124t42.5 116q28 34 64 31.5t60 -38.5q52 -79 52 -165q1 -26 6 -31.5t31 -7.5q59 -6 82 -66q12 -30 13 -102.5t12 -87.5q37 5 62 25zM264 369q64 -12 77.5 0t17.5 79q-1 4 -2.5 20t-3.5 25
t-6.5 21t-13 19t-21.5 9q-34 6 -57 -24.5t-36 -73.5q-21 -63 45 -75z" />
    <glyph glyph-name="c_r" unicode="cr" horiz-adv-x="0" 
d="M647 140q20 16 29 -9q11 -28 -6 -51q-5 -10 -36 -28t-47 -2q-34 32 -46.5 64t-13.5 85q3 36 1 89q-14 8 -45.5 3.5t-40.5 -23.5q-8 -17 -18.5 -48t-13.5 -39q-28 -72 -80 -109t-105 -38t-100 17.5t-70 50.5q-63 86 -58 167q2 28 15.5 63t47.5 68t79 35q40 2 63 -46
q18 -39 6 -57q-6 -10 -20 -4q-46 20 -77.5 -5t-40.5 -69t-1 -89q31 -28 68 -42t76.5 -11.5t78.5 34.5t68 92q2 4 4 6q5 12 13 36q-74 7 -115.5 62t-39 124t42.5 116q28 34 64 31.5t60 -38.5q52 -79 52 -165q1 -26 6 -31.5t31 -7.5q59 -6 82 -66q12 -30 13 -102.5t12 -87.5
q37 5 62 25zM317 370q64 -12 77.5 0t17.5 79q-1 4 -2.5 20t-3.5 25t-6.5 21t-13 19t-21.5 9q-34 6 -57 -24.5t-36 -73.5q-21 -63 45 -75z" />
    <glyph glyph-name=".notdef" horiz-adv-x="290" 
 />
    <glyph glyph-name=".null" horiz-adv-x="0" 
 />
    <glyph glyph-name="nonmarkingreturn" horiz-adv-x="333" 
 />
    <glyph glyph-name="NULL" horiz-adv-x="0" 
 />
    <glyph glyph-name="NULL" horiz-adv-x="0" 
 />
    <glyph glyph-name="CR" unicode="&#xd;" horiz-adv-x="290" 
 />
    <glyph glyph-name="space" unicode=" " horiz-adv-x="290" 
 />
    <glyph glyph-name="exclam" unicode="!" horiz-adv-x="148" 
d="M92 161q-5 2 -12 4.5t-12 4.5t-8 5q-59 50 -52 113q6 81 6 83q21 216 28 284q61 19 79 -7q34 -47 -22 -289q-18 -80 -4 -173q0 -3 -3 -25zM18 106l3 3q21 16 33 7l10 -6q9 -7 13 -10.5t11 -9.5t9 -11.5t1 -10.5q-3 -16 -12 -33t-16 -17q-9 0 -31 7.5t-29 14.5
q-5 7 -1.5 22t7.5 30t2 14z" />
    <glyph glyph-name="quotedbl" unicode="&#x22;" horiz-adv-x="250" 
d="M207 707q21 -15 31.5 -32t19.5 -50q-50 -43 -66 -132q-1 -10 -2 -13.5t-5 -9t-11 -8.5q-3 -1 -6 -1t-6 0.5t-5 1.5t-4.5 3.5t-4 3.5t-4 4t-3.5 4q-44 47 -48 68.5t21 81.5q12 27 34 66q10 18 26.5 21.5t32.5 -8.5zM81 666q6 -13 5 -19.5t-8 -19.5t-8 -20q-2 -10 -7 -30.5
t-7 -30.5q-13 -38 -44 -19q-5 3 -30 22q-17 12 -20 25t5 33q26 91 28 97q7 4 13 10t8 7t6.5 -1t11.5 -9q3 -3 21 -18.5t26 -26.5z" />
    <glyph glyph-name="numbersign" unicode="#" horiz-adv-x="467" 
d="M166 497q43 -36 41 -93q27 -7 37 -2t19 29q5 15 30 69q23 -12 37 -47t18 -41q3 0 15.5 1t20.5 2q27 4 38 -2.5t21 -32.5q1 -1 16 -58q-34 -8 -41 -9q-66 -6 -98 -6q-31 -1 -36 -30q-1 -4 -2.5 -8.5t-4.5 -11t-5 -11.5q24 -2 26 -2q34 8 48 -26q9 -20 15 -54
q1 -13 -7 -19.5t-23 -4.5q-62 6 -64 6q-34 2 -39 -30q-6 -30 -24 -90q-2 -8 -11 -35q-34 18 -43 50.5t3 90.5h-36q-15 -36 -25 -63q-28 20 -49.5 75t-14.5 90q18 2 42 3q13 31 19 47q-11 -2 -28 -5t-25 -4q-25 -7 -32 16q-2 6 -8 23.5t-6.5 23.5t0.5 21q3 10 12 14t25 4.5
t22 1.5q22 4 44 6q31 3 38 29q4 12 9.5 25t13 30t12.5 28zM210 296q-34 5 -45.5 -7t-9.5 -51q27 -3 39.5 10t15.5 48z" />
    <glyph glyph-name="dollar" unicode="$" horiz-adv-x="355" 
d="M210 571v-124q0 -8 1 -33t0 -38q0 -23 19 -38q7 -6 26.5 -21t33 -26.5t24.5 -22.5q27 -35 27.5 -77t-25.5 -80.5t-66 -49.5q-23 -11 -20 -33q8 -54 8 -81q0 -18 -11 -24t-23 1t-14 20l-12 84q-3 27 -22 37q-4 2 -21.5 7t-24.5 10q-15 12 -13.5 34t19.5 22q30 -8 47 -12
q0 12 1 44t1.5 49.5t-1.5 40.5q0 1 -1 6t-2.5 8.5t-6 10.5t-11.5 13t-20.5 14.5t-31.5 17.5q-32 14 -59 45q-47 53 -24 130q26 81 137 142v55q-1 26 19 26q21 1 32 -23q4 -9 5 -19q2 -36 35 -48q86 -33 110 -99q17 -54 0 -79q-11 -18 -28 -15t-26 22q-2 51 -14 68.5
t-68 35.5zM142 567q-70 -45 -82 -107q-4 -28 23 -43q12 -6 36 -16t30 -13q8 27 5.5 94t-12.5 85zM225 247q0 -19 -1.5 -61t-1.5 -60q37 8 53 38q4 6 3.5 19t-3.5 19q-16 31 -50 45z" />
    <glyph glyph-name="percent" unicode="%" horiz-adv-x="354" 
d="M303 603q2 -68 -22 -110q-32 -60 -98 -215q-19 -46 -52.5 -131.5t-45.5 -115.5q-3 -7 -9.5 -19.5t-8.5 -15.5q-4 1 -12 1q-1 5 -9 31t-12 40q-3 14 3 25q37 92 72 173q68 158 103 236q24 54 56 122q1 2 4 5.5t4 4.5q26 -6 27 -31zM90 419q-12 -8 -24 -2t-18 21
q-40 102 7 180q10 14 33 30q13 8 24.5 2t13.5 -22v-49q-45 -5 -47 -55q30 -5 52 17.5t19 54.5q0 2 -6 62q2 0 4 1l4 2q15 -13 16 -15q26 -72 -1 -166q0 -1 -2 -3q-65 -52 -75 -58zM290 270q35 1 48.5 -17.5t4.5 -51.5q-18 -61 -55 -100q-36 -39 -57 7q-34 77 -14 161
q4 16 13 27q14 16 29.5 13t23.5 -23q1 -3 3.5 -8t3.5 -8zM302 212q4 8 1.5 17t-11.5 11q-18 4 -28 -10q-16 -29 -4 -50q24 0 42 32z" />
    <glyph glyph-name="ampersand" unicode="&#x26;" horiz-adv-x="423" 
d="M361 105q-54 -64 -122.5 -87.5t-125.5 -5.5t-87 67q-18 30 -20.5 61t5.5 55.5t28.5 53t39.5 47.5t47 45q-21 34 -35 69q-18 43 -3.5 97t55.5 77q50 23 90 9.5t60 -57.5t4 -91q-21 -63 -87 -118q21 -34 81.5 -75t75.5 -54q8 9 16 33q6 27 19 25q15 -3 18 -32v-8
q1 -3 1.5 -10t-3.5 -20.5t-11 -23.5q14 -21 26 -70q2 -16 -5 -31t-16 -22t-15 -3q-25 56 -36 69zM197 70q54 10 122 74q-16 15 -48 42.5t-58 52t-48 50.5q-55 -44 -80.5 -101.5t1.5 -95t111 -22.5zM190 399q93 87 62 139q-33 17 -60.5 -1t-32.5 -57.5t18 -92.5z" />
    <glyph glyph-name="quotesingle" unicode="'" horiz-adv-x="140" 
d="M91 713q22 -14 33 -30t23 -48q-48 -46 -59 -136q0 -1 -0.5 -5t-1 -5t-1 -4.5t-1 -4.5t-2 -3.5t-3 -4t-3.5 -3t-5 -2.5q-18 -8 -33 14q-35 44 -36.5 93.5t30.5 122.5q9 19 25.5 23.5t33.5 -7.5z" />
    <glyph glyph-name="parenleft" unicode="(" horiz-adv-x="206" 
d="M114 642q8 -24 7 -29q-12 -43 -25 -62q-28 -44 -37 -117q-21 -175 77 -313q3 -4 35 -39q19 -20 20.5 -32.5t-10.5 -37.5q-9 -23 -14 -31q-19 -32 -42 -6q-29 31 -43 56q-21 39 -30.5 57.5t-22.5 52.5t-17 63q-19 137 -2 212q22 90 37 133q17 54 55 95q4 0 12 -2z" />
    <glyph glyph-name="parenright" unicode=")" horiz-adv-x="184" 
d="M67 -72q-3 41 12 91q35 117 31 222q-4 134 -46 210q-5 9 -42 67q-2 3 -7 8.5t-7 8.5q-5 11 9.5 50.5t25.5 45.5q15 8 25 -9q45 -71 50 -82q31 -66 44.5 -132.5t10 -134.5t-13.5 -123t-29 -128q-6 -31 -36 -73q0 -1 -27 -21z" />
    <glyph glyph-name="asterisk" unicode="*" horiz-adv-x="226" 
d="M113 592q23 6 48 32t36 32q17 -16 17.5 -21.5t-14.5 -17.5q-21 -16 -80 -64q5 -12 27 -25.5t23 -30.5q-13 -8 -31 3t-26 10q-9 -15 -2 -61t6 -60q-19 6 -24 12.5t-4 25.5q0 10 1 30t1 30q0 2 -6 32q-9 -7 -26.5 -20.5t-25.5 -20.5q-25 19 -5 36q22 20 33 29q-5 13 -30 39
t-26 51q15 -13 41.5 -36.5t37.5 -33.5q15 69 -10 138q21 -14 26 -27.5t13 -81.5z" />
    <glyph glyph-name="plus" unicode="+" horiz-adv-x="288" 
d="M118 420q0 33 15 36q14 2 24 -31q6 -24 8 -61v-46q61 -2 89 -7q13 -3 27 -20q16 -23 -14 -24q-5 -1 -11 0q-25 2 -91 2q-1 -22 -1 -63q-1 -53 -20 -55q-13 -2 -21 20q-4 14 -3 31q1 19 1 67q-74 0 -83 5q-60 31 -16 39q23 5 74 5h24q-2 98 -2 102z" />
    <glyph glyph-name="comma" unicode="," horiz-adv-x="178" 
d="M131 113q30 -32 35 -89q-57 -33 -89 -118q0 -1 -1.5 -4t-2 -4.5t-1.5 -4t-2 -3.5t-2 -3t-2.5 -3t-3.5 -2l-4 -2t-5 -1q-25 -4 -29 21q-5 37 -5.5 50.5t1 45t14.5 58.5t36 57q13 16 30 16.5t31 -14.5z" />
    <glyph glyph-name="hyphen" unicode="-" horiz-adv-x="320" 
d="M38 254q-60 31 -16 39q23 5 74 5q28 0 55.5 -1t57.5 -3l45 -3q53 -3 54 -22q2 -15 -24 -20q-13 -3 -28 -2q-28 2 -81 2.5t-91.5 1t-45.5 3.5z" />
    <glyph glyph-name="period" unicode="." horiz-adv-x="186" 
d="M141 10q-4 -4 -12.5 -13t-12.5 -14q-4 -1 -17 -6.5t-18.5 -6.5t-15.5 1q-20 11 -54 55q-3 3 1 21t8 23q9 11 26.5 22t24.5 17q16 12 25 10.5t22 -16.5q10 -12 15 -17q23 -20 25 -36.5t-17 -39.5z" />
    <glyph glyph-name="slash" unicode="/" horiz-adv-x="304" 
d="M243 747q7 17 18.5 19.5t22.5 -11.5q4 -6 7 -11t4.5 -11l2.5 -10t0 -11.5t-1.5 -11t-3 -12.5t-3.5 -12t-5.5 -14t-5.5 -14q-24 -58 -31 -80q-43 -135 -49 -150q-14 -39 -41.5 -108.5t-37.5 -96.5q-6 -15 -21 -55.5t-25 -61.5q-22 -76 -62 -92q-24 -10 -31 8q-5 13 6 32
q5 11 12 33t12 33q14 38 55.5 142.5t62.5 162.5q7 18 56 164t58 168z" />
    <glyph glyph-name="zero" unicode="0" horiz-adv-x="344" 
d="M49 35q-18 19 -27.5 49t-11.5 51t-3 61q-7 144 48 376q18 82 81 139q1 1 34 22q37 22 53 -16q2 -5 5 -9t7 -6.5t6 -3.5t8 -3.5t8 -3.5q49 -22 64 -77q21 -75 8 -186q-15 -142 -62 -266q-9 -23 -21.5 -47t-31 -54.5t-26.5 -45.5q-3 -2 -8.5 -5t-21.5 -7.5t-32 -4.5
t-37.5 9t-39.5 28zM78 294q-17 -86 -5 -155q5 -38 26 -47t47 15q22 19 37 49q88 173 102 389q7 43 -21.5 64t-67.5 4q-57 -23 -72 -98q-10 -41 -25 -117t-21 -104z" />
    <glyph glyph-name="one" unicode="1" horiz-adv-x="144" 
d="M76 -1q-5 2 -12 4.5t-12 4.5t-8 5q-59 50 -52 113q6 81 6 83q21 216 28 284q-20 -7 -56 -19q-29 17 -19 56q8 36 27.5 74t35.5 61t46 63q8 12 18 15q22 7 33 2q14 -5 24 -44t1 -51q-21 -26 -8 -57q10 -26 3 -54q-30 -112 -48 -342q-1 -7 -3.5 -33.5t-3 -37l-1.5 -31.5
t0 -37.5t4 -33.5q0 -3 -3 -25z" />
    <glyph glyph-name="two" unicode="2" horiz-adv-x="365" 
d="M-1 26q-52 46 -18 118q78 163 185 326q23 33 67 133q16 34 -5 48q-27 22 -56 -5q-46 -41 -77 -90q-7 -10 -11.5 -22.5t-8.5 -29t-7 -25.5q-8 -16 -14 -17q-11 -2 -21 10q-26 28 -24 85q3 127 124 208q47 32 78 9q39 -29 68 -76q9 -14 23 -70q18 -77 -20 -155
q-29 -60 -141 -243q-2 -3 -23 -47q130 43 141 46q40 13 56 16q41 11 51 -27q7 -22 15 -64q2 -10 -2 -16.5t-14 -5.5q-27 4 -53.5 -2.5t-60.5 -20t-49 -18.5q-15 -4 -42 -17.5t-38 -17.5q-24 -9 -76 -21q-10 -3 -47 -9z" />
    <glyph glyph-name="three" unicode="3" horiz-adv-x="389" 
d="M329 388q-12 5 -24 7.5t-21 3t-21 -1.5t-18.5 -4l-19.5 -6t-18 -5q-17 -5 -108 -48q-33 34 -42 96q-3 21 12 45q13 24 39 67.5t33 54.5q2 3 4 7.5t5 11.5t6 12q-55 -11 -104 -51q-20 -18 -36 -28q-13 -8 -26.5 -5t-19.5 16q-14 30 -20 61q-2 19 11 30q141 116 270 130
q37 4 51.5 -7.5t22.5 -52.5q11 -62 -28 -97q-44 -38 -76 -131q26 -4 34 -4q9 -1 26.5 -2t26.5 -2q55 -7 80.5 -48.5t10.5 -99.5q-10 -37 -15 -52.5t-17.5 -42.5t-27.5 -46q-44 -56 -70 -79q-21 -19 -62 -30q-45 -12 -137 -28q-16 -3 -35 6q-17 8 -20 24.5t11 27.5
q22 16 67 32q11 4 32.5 9t30.5 8q65 23 114 97q4 5 79 125z" />
    <glyph glyph-name="four" unicode="4" horiz-adv-x="370" 
d="M285 33q-36 20 -42 68q-3 33 -5 150v49q-60 -18 -111 -49q-15 -9 -30 -21t-35.5 -29t-28.5 -24q-31 25 -38.5 61t6.5 69q23 56 63.5 160t54.5 139q35 82 72 165q3 6 12.5 12t13.5 4q10 -4 18.5 -12.5t8.5 -16.5q0 -6 1.5 -22.5t1.5 -25t-1 -21.5t-5.5 -24.5t-12.5 -21.5
q-5 -6 -9 -14.5t-7.5 -20t-6.5 -17.5q-82 -197 -91 -218l-5 -15t-7 -22q64 27 71 29q98 21 97 111q0 7 6.5 20t6.5 14q43 -10 44 -47q4 -81 5 -124q2 -17 -5 -25q-24 -29 -28 -71.5t2 -75.5q4 -88 -16 -134z" />
    <glyph glyph-name="five" unicode="5" horiz-adv-x="311" 
d="M61 365q58 0 64 -1q53 -6 83 -16q47 -17 62 -54t3 -83q-18 -70 -73 -122q-46 -45 -132 -45q-40 0 -58 52q165 20 212 167q-31 22 -62 13q-68 -21 -88 -28q-31 -12 -46 -5t-28 39q-24 58 -7 111q7 23 18 66.5t16 60.5q13 47 -3 77q-24 46 19 64q35 16 53 51q2 5 8 14.5
t8 13.5q24 -22 48 -23t45 10q18 7 143 43q7 2 21.5 8t21.5 8q22 6 24 5q31 -6 31 -57q1 -24 -5 -32t-26 -13q-120 -31 -139 -37q-49 -16 -126 -49q-17 -6 -22 -23q-6 -17 -21 -51t-23.5 -61.5t-9.5 -54.5q0 -3 -11 -48z" />
    <glyph glyph-name="six" unicode="6" 
d="M89 363q39 31 46 36q77 54 136 36q46 -14 65 -37t23 -61q12 -96 -30 -151q-3 -4 -6.5 -13.5t-6.5 -13.5q-39 -49 -52 -58q-15 -11 -91 -50q-72 -34 -121 31q-6 7 -11.5 16t-12 20t-10.5 18q-20 -22 -15 -52q4 -11 2 -26t-16 -24q-46 23 -38 89q5 35 27 83q15 32 18 72
q17 236 153 420q57 75 122 91q23 5 33.5 0t17.5 -26q13 -32 6.5 -46.5t-40.5 -29.5q-11 -5 -26 -20q-5 -5 -14.5 -15t-14.5 -14q-102 -96 -150 -270q4 -4 6 -5zM131 152q70 5 123 49.5t68 112.5q4 21 -12 37q-14 14 -44.5 15.5t-48.5 -9.5q-12 -7 -22.5 -14.5t-22.5 -17.5
t-19 -16.5t-20 -20t-17.5 -18t-18.5 -21t-17 -19.5q-21 -24 -17.5 -40t33.5 -29q2 -1 35 -9z" />
    <glyph glyph-name="seven" unicode="7" horiz-adv-x="280" 
d="M207 738q-45 19 -87 -12q-23 -16 -136 -99q-63 38 -12 88q71 68 134 93q39 16 76 19q34 4 60 -17t25 -53q-6 -143 -39 -213q-6 -13 -14 -39.5t-11 -34.5l-72 -180q-1 -2 -5.5 -9.5t-5.5 -12.5q-10 -40 -28 -120q-1 -6 1 -28q0 -3 2.5 -8t2.5 -8q2 -18 -5.5 -34t-19.5 -17
q-13 -2 -22.5 3.5t-12.5 10t-10 18.5q-27 50 -13 96q53 164 96 285q15 43 44.5 121.5t37.5 100.5q2 6 14 50z" />
    <glyph glyph-name="eight" unicode="8" horiz-adv-x="409" 
d="M131 453q-46 14 -56 16q-62 13 -80 89q-10 45 6 87q47 126 155 169q22 9 38 11q52 10 87.5 -17t41.5 -80q6 -63 -15 -148q-2 -10 -8 -30q-15 -34 -7.5 -61.5t45.5 -48.5q90 -52 37 -159q-5 -10 -21 -42.5t-24 -48t-23 -39.5t-29 -42q-4 -5 -13 -17t-14.5 -18t-14 -14.5
t-18 -14t-20.5 -9.5q-74 -24 -103 38q-26 54 -30 109q-4 40 4.5 86t19.5 76.5t31 80.5q1 3 5 11.5t6 15.5zM219 428q-21 -23 -26 -31q-52 -86 -68 -225q0 -7 2 -17q3 -24 30 -26q35 -1 68 35q59 66 107 175q9 26 4 37.5t-29 27.5q-14 7 -20.5 5t-17.5 -8t-18 -7
q-5 6 -15.5 17t-16.5 17zM221 504q38 171 44 201q4 24 -4 33.5t-33 9.5q-10 0 -21 -3q-99 -29 -157 -153q-15 -35 25 -47q21 -7 146 -41z" />
    <glyph glyph-name="nine" unicode="9" horiz-adv-x="270" 
d="M145 423q-4 -3 -15 -14t-18 -17q-17 -14 -24 -19.5t-23 -12.5t-32 -7q-30 0 -42 27q-32 65 3 137q31 69 68 129q17 27 56 61q26 21 49.5 21.5t54.5 -20.5q32 -22 49 -49q18 -26 2 -64q-14 -40 -27 -86q-10 -41 -30 -124t-31 -125q-3 -10 -11.5 -27.5t-10.5 -22.5l-24 -54
l-45 -138q-4 -12 -40 -81q-4 -8 -13.5 -8.5t-16.5 7.5q-40 43 -12 94q29 55 55.5 123.5t41 117t37.5 129.5q2 5 4 19q-2 1 -5 4zM187 647q-23 6 -47 -19l-2 -2q-61 -60 -98 -179q32 5 46 19q15 14 85 86q31 33 16 95z" />
    <glyph glyph-name="colon" unicode=":" horiz-adv-x="222" 
d="M175 344q6 -41 -33 -47q-9 -1 -54 -4v2q-4 1 -14 2t-14 1q-16 1 -19 21q-1 24 -7 70q-3 26 19 29q50 9 90 10q21 0 23 -26q3 -30 9 -58zM133 83q-7 -1 -36 -5q-4 2 -16 5t-20 7t-11 10q-9 20 -7 77q-1 4 7 10t14 7q35 8 77 10q20 0 26 -7t7 -27q0 -16 1 -23q5 -30 -4 -44
t-38 -20z" />
    <glyph glyph-name="semicolon" unicode=";" horiz-adv-x="208" 
d="M141 356q1 -2 7 -36q-1 -4 -3.5 -16.5t-6 -20.5t-9.5 -11q-17 -10 -76 -12q-4 -1 -10.5 6.5t-8.5 13.5q-11 40 -14 77q-1 19 5.5 25.5t26.5 8.5q22 3 23 3q29 7 44 -1.5t22 -36.5zM124 109q26 -15 31.5 -38t-13.5 -41q-56 -48 -64 -105q-4 -21 -15 -25q-20 -8 -32 10
q-17 24 -19 77t26 94.5t86 27.5z" />
    <glyph glyph-name="less" unicode="&#x3c;" horiz-adv-x="334" 
d="M112 251q126 -61 127 -62q21 -9 33 -14.5t22 -13t13 -11t5.5 -13.5t2 -16.5t-0.5 -23.5v-31q0 -1 -5 -11q-10 0 -11 1q-14 11 -33.5 22t-30.5 16t-38.5 16t-33.5 14q-43 19 -114 61q-37 21 -41 92q0 10 10 20q39 40 114 119t112 117q1 1 5.5 6t6.5 6.5t6.5 4t9 2
t9.5 -3.5q19 -9 22 -38q3 -46 -26 -74q-16 -15 -41.5 -47.5t-31.5 -39.5q-8 -9 -25.5 -24.5t-24.5 -23.5q-16 -17 -41 -50z" />
    <glyph glyph-name="equal" unicode="=" horiz-adv-x="322" 
d="M40 223q-60 31 -16 39q23 5 74 5q28 0 55.5 -1t57.5 -3l45 -3q53 -3 54 -22q2 -15 -24 -20q-13 -3 -28 -2q-28 2 -81 2.5t-91.5 1t-45.5 3.5zM38 340q-60 31 -16 39q23 5 74 5q28 0 55.5 -1t57.5 -3l45 -3q53 -3 54 -22q2 -15 -24 -20q-13 -3 -28 -2q-28 2 -81 2.5
t-91.5 1t-45.5 3.5z" />
    <glyph glyph-name="greater" unicode="&#x3e;" horiz-adv-x="361" 
d="M226 251q-25 33 -41 50q-7 8 -24.5 23.5t-25.5 24.5q-6 7 -31.5 39t-40.5 47q-29 28 -26 74q3 29 22 38q5 2 9 2.5t6.5 0t6 -3t5 -4t5 -5.5t4.5 -5q150 -156 225 -235q10 -10 10 -20q-4 -71 -41 -92q-82 -46 -113 -60q-8 -3 -27.5 -11t-29.5 -12.5t-25.5 -12t-28 -15.5
t-24.5 -17q-1 -1 -11 -1q-5 10 -5 11v31t-0.5 23.5t1.5 16.5t5.5 13.5t13 10.5t21.5 12.5t33 14.5q1 1 127 62z" />
    <glyph glyph-name="question" unicode="?" horiz-adv-x="315" 
d="M322 525q14 -57 -7.5 -117.5t-68.5 -133.5q-10 -15 -28 -32t-33 -29t-29 -34.5t-18 -52.5q-39 -5 -58 17q-49 61 -2 116q57 67 70 86q40 60 61.5 102t28.5 74.5t-5.5 51.5t-43.5 29q-49 13 -92.5 -47.5t-48.5 -109.5q0 -9 -2 -27q-34 4 -52.5 18t-17.5 37q1 55 41.5 112
t105.5 96q44 24 78.5 17.5t60 -38t40.5 -66.5t20 -69zM137 63q26 13 35 0q17 -21 17 -41q0 -19 -34 -62t-54 -52q-21 -10 -30 9q-5 10 -31 72q3 26 24 36q12 7 36.5 19t36.5 19z" />
    <glyph glyph-name="at" unicode="@" horiz-adv-x="679" 
d="M613 78q17 24 37 18q20 -7 8 -37q-4 -8 -9 -16q-56 -82 -145 -119q-121 -51 -233 -3q-117 50 -182 137q-38 52 -56 120q-15 57 -5 131q20 142 114 221q52 43 125.5 72.5t127.5 21.5q78 -12 114.5 -27.5t77.5 -63.5q42 -49 60.5 -103t17.5 -94.5t-13.5 -81.5t-22 -58.5
t-18.5 -30.5q-13 -18 -37.5 -39t-42.5 -25q-25 -6 -39.5 -4t-33.5 15q-7 4 -12 12.5t-9.5 20.5t-7.5 18l-8 16q-5 10 -16 11t-19 -8q-12 -14 -34 -40q-55 -67 -120 -43q-1 0 -5 2q-24 16 -38.5 41t-17.5 42l-3 17q-2 28 -3 41q-6 126 74 211q37 39 117 67q68 25 88 -49
q2 -7 4 -19q3 -16 -13 -23q-18 -8 -27 -11q-148 -47 -177 -181q-1 -1 -1 -4t-1 -5q0 -10 7 -17t17 -6q16 3 30 18q47 49 76 89q8 11 49 81q5 10 15.5 11t18.5 -7q9 -11 10 -15q20 -68 12 -107q-6 -23 -2 -62q1 -20 26 -52q11 -16 43 2q40 23 57.5 69t14.5 92.5t-14 86
t-25 56.5q-48 56 -84 77t-90 24q-47 2 -100.5 -14.5t-96.5 -46.5q-86 -60 -107 -157q-17 -82 -8 -131q12 -69 47 -118q70 -95 176 -133q115 -43 221 21q57 35 91 89z" />
    <glyph glyph-name="A" unicode="A" horiz-adv-x="513" 
d="M20 155q-41 -7 -43 -7q-46 -6 -58 29q-10 26 16 38q14 7 31 10q6 2 18 4.5t17 3.5q51 8 63 65q22 110 61 264q4 18 10.5 38t14 43.5t11.5 37.5q0 1 1 3q6 20 20 23q20 4 30 -18q63 -123 67 -133q16 -36 43.5 -105.5t31.5 -78.5q2 -5 6.5 -13.5t6.5 -11.5q51 8 131 23
q18 5 22 5q25 0 30 -13q11 -24 -9 -40q-19 -16 -78 -29q-27 -5 -55 -25q-18 -11 -12 -30q1 -1 1.5 -4.5t0.5 -4.5q5 -16 21.5 -60t24.5 -68q18 -47 54 -85q16 -16 13 -40q-2 -14 -11 -17.5t-20 3.5q-19 15 -26 27q-50 66 -69 135q-13 45 -33 102q-5 16 -11.5 19.5
t-24.5 -1.5q-17 -4 -50 -15t-50 -15q-10 -3 -30.5 -9.5t-30.5 -9.5q-5 -1 -17 -5t-17 -5q-10 -4 -33 -92t-35 -97q-27 8 -44.5 26t-12.5 38q17 65 24 95zM150 278q19 6 68.5 22t76.5 24q14 5 17 11t-2 21q-15 45 -51 135q-9 25 -10 27q-19 -19 -72 -147q-40 -97 -27 -93z
M193 614h-8q-5 -14 -10 -39q1 0 3 -0.5t3 -0.5q1 2 5 7t5.5 7.5t3.5 7t1.5 9t-3.5 9.5z" />
    <glyph glyph-name="B" unicode="B" horiz-adv-x="408" 
d="M193 349q7 -5 14.5 -6.5t11.5 -0.5t12.5 4t10.5 4q12 2 92 21q32 8 64.5 -9.5t45 -48.5t-5.5 -68q-43 -79 -56 -96q-81 -103 -161 -159q-14 -10 -21 -14q-37 -22 -72 -8.5t-50 54.5q52 0 111 50q48 40 121 122q37 46 50 60q4 4 7 8t5.5 10t4 9.5t3 11t2 10.5t2.5 13t2 12
q-37 -5 -41 -6q-32 -8 -83 -25q-22 -9 -70 -29t-74 -30q-7 -14 -3 -41t8 -40t14 -41t14 -43q-59 16 -80 60q-8 17 -16 53q-14 54 -22 69q-9 15 -18 73q-5 31 -16 109q-10 79 53 167q1 2 5 7.5t5 8.5q9 25 37 31q6 1 15.5 8t12.5 9q20 10 33.5 16t32 10.5t36.5 2.5t35 -11
q45 -23 56 -46.5t-4 -65.5q-20 -48 -64 -127q-2 -4 -59 -98zM123 376q8 12 20.5 29.5t22 31t17.5 25.5q48 72 68 109q15 27 18 51q2 16 -4.5 21.5t-23.5 2.5q-46 -9 -93 -46q-12 -10 -12 -23q-7 -85 -13 -201z" />
    <glyph glyph-name="C" unicode="C" horiz-adv-x="456" 
d="M133 101l21 -36q18 -33 41 -41.5t60 6.5q50 18 85 58q13 14 36.5 38t31.5 32q23 23 36 14q15 -11 25 -41q3 -9 -5 -28q-90 -163 -250 -122q-51 14 -67 19q-64 26 -94 83q-48 87 -51 180q-1 25 19 125q4 17 13 48.5t12 46.5q15 74 84 155q67 80 175 41q2 -1 13 -4.5t14 -5
t13 -5t14 -5.5t12.5 -6t13.5 -7t11.5 -7t12 -9t10.5 -10q15 -15 22 -43q1 -5 -3.5 -13.5t-10.5 -11.5q-15 -9 -31 12q-29 38 -56 62q-51 43 -106 0q-47 -38 -70 -94q-28 -66 -46 -137q-29 -119 -12 -191q8 -38 25 -103h2z" />
    <glyph glyph-name="D" unicode="D" horiz-adv-x="413" 
d="M5 609q26 1 47.5 -15.5t22.5 -35.5q0 -12 2 -34t2 -28q0 -18 1.5 -98t3.5 -123q1 -19 4.5 -40t9 -46.5t7.5 -39.5q1 -2 -1.5 -3t-6 -2t-7 -1.5t-5.5 -2t-2 -2.5q-25 -10 -48 -1.5t-29 32.5q-1 6 -17.5 57t-14.5 80q6 70 -1 170q-1 28 -18 141q-1 4 -17 32q12 29 56 40
q126 27 199 8q137 -37 192 -168q23 -90 9 -175t-61 -158.5t-107 -126t-128.5 -77t-125.5 -11.5q-39 3 -50 65q-1 7 -2.5 21.5t-2.5 21.5q23 -38 23 -39q13 -18 41.5 -26.5t74 3.5t90.5 51q72 68 113.5 141.5t49.5 136.5t-1.5 121t-35.5 100.5t-57 70.5t-61 35q-48 11 -96 -1
q-32 -7 -44 -24t-9 -49z" />
    <glyph glyph-name="E" unicode="E" horiz-adv-x="494" 
d="M184 28q-3 -7 0.5 -16t5 -13.5t-7.5 -12.5q-6 -4 -12.5 -3.5t-9.5 2.5t-9.5 6.5t-8.5 6.5q-21 15 -46 6q-34 -11 -60 -12q-34 -5 -44 8q-16 18 -30 62q-1 4 6.5 11t14.5 9q11 4 86 23q0 11 1 36t1 39.5t-3.5 36t-10.5 39.5l-5 2q-5 2 -7 1q-33 -7 -51.5 8.5t-35.5 48.5
q-19 33 20 45q11 3 32 5t28 4q25 5 25 15q10 108 4 163h-16t-13 1q-25 13 -29 17q-8 10 -24 45q-8 20 -3 28.5t27 13.5q10 2 58 13q-2 11 -4 30.5t-2 21.5q6 2 11.5 2t9 -1t8.5 -4t7 -4.5t6.5 -6l5.5 -5.5q27 -25 81 -16q95 14 102 15q40 1 50 -6t19 -45q1 -4 2.5 -13
t2.5 -13q0 -1 -0.5 -2.5t-1 -4t-0.5 -4.5q-31 -14 -84 -16q-8 0 -28.5 -0.5t-30.5 -1.5t-26 -4.5t-28 -9.5q-18 -12 -20 -26q-3 -43 -3 -129q0 -3 1 -6.5t3 -8.5t3 -9q6 2 25 6.5t29 7.5q24 7 151 49q26 8 39 1t19 -31q4 -14 10 -61q-37 -1 -74.5 -11.5t-84 -27.5t-70.5 -24
q-33 -11 -42.5 -23.5t-8.5 -44.5q1 -21 4.5 -61t4.5 -57q68 21 104 31q124 32 187 46q26 6 36 -0.5t16 -31.5q1 -7 3.5 -21t3.5 -21q-40 -3 -161 -38.5t-158 -58.5z" />
    <glyph glyph-name="F" unicode="F" horiz-adv-x="383" 
d="M178 -14q-25 2 -47 13t-31 25q-24 38 -33 98q-4 30 -8 96q-1 11 -1 35t-1 38q-13 -5 -24 -8q-27 -9 -47 -11q-27 -2 -41.5 7t-23.5 34q-11 27 16 35q10 3 28 6.5t24 4.5q47 14 57 17q-25 23 -23 69q1 31 1 97q-38 -7 -39 -7q-27 -9 -42 17q-21 29 -22 32q-13 29 19 35
q5 1 49 9q21 4 26.5 10.5t7.5 29.5q3 29 8 71l1 5v6t1 4.5t2.5 4.5t4 3t5.5 2q15 2 23 -17q3 -7 14 -31t16 -38q9 -24 31 -17q66 20 99 29q70 16 96 19q34 4 47.5 -9.5t13.5 -49.5q-68 -20 -87 -25q-33 -7 -92.5 -27t-66.5 -22q-21 -8 -20 -30q5 -52 10 -133q32 12 53 18
q148 49 178 59q20 7 28.5 2t15.5 -25q1 -4 10 -39q-16 -4 -57.5 -14.5t-64.5 -17.5q-11 -4 -29 -15t-26 -15q-3 -1 -77 -34q-18 -7 -22.5 -13.5t-5.5 -25.5q-4 -103 25 -252q2 -9 21 -55z" />
    <glyph glyph-name="G" unicode="G" horiz-adv-x="479" 
d="M157 71q-51 26 -86 67.5t-51.5 89.5t-17.5 101.5t12.5 103.5t42 94.5t68 76t94.5 46.5t117 7q64 -24 99 -90q24 -45 12 -60q-7 -7 -23 5q-52 32 -99.5 26t-90 -32t-71 -72.5t-41.5 -95.5t-1.5 -102t47.5 -91q60 -63 150 -43q68 15 101 63q36 54 -11 97q-13 11 -32 21
q-62 19 -116 -24.5t-76 -112.5t-3 -122q13 -25 -3 -25q-19 0 -37 30q-13 21 -16 48q-9 74 9.5 132.5t53.5 90t74 46.5t75 12q101 -17 129 -93q25 -67 -19 -133q-48 -75 -143 -85q-69 -8 -147 24z" />
    <glyph glyph-name="H" unicode="H" horiz-adv-x="481" 
d="M201 -43q-25 15 -33.5 21t-24.5 19t-23 26.5t-11 31.5q-3 14 -50 220q-19 0 -32.5 -10t-28.5 -28t-23 -25q-37 19 -62 67q-10 18 0.5 41.5t33.5 35.5q29 16 81 31q30 9 37 16.5t8 34.5q2 34 4.5 97t3.5 82q0 16 1 34t2.5 40t2.5 35q37 -12 58.5 -37.5t21.5 -57.5
q0 -25 -5 -153v-52q122 19 170 40q12 6 17 33q8 55 22.5 161.5t21.5 155.5q0 2 14 68q47 -21 64.5 -49t10.5 -70q-6 -41 -18 -123.5t-19 -123.5q-5 -38 19 -54q16 -10 27 -35q3 -5 4.5 -11.5t3 -16.5t2.5 -16q-23 3 -29 3q-36 2 -41 -31q-32 -199 2 -317q6 -9 5 -20.5
t-19 -17.5q-7 7 -24.5 22.5t-26.5 24.5t-18 26.5t-11 37.5q-1 18 -4.5 49.5t-5.5 51.5t-2 48t5 52v34q-5 -1 -16.5 -1.5t-16.5 -2.5q-66 -16 -98 -25q-33 -9 -39.5 -16t-5.5 -37q2 -73 12 -143q4 -25 15 -70t13 -55q2 -9 5 -41z" />
    <glyph glyph-name="I" unicode="I" horiz-adv-x="136" 
d="M113 -18q-62 21 -78 60q-41 106 -31 205q10 113 29 310v41q-12 -2 -28 -4q-2 -1 -14 15.5t-19.5 36t-0.5 27.5q13 18 48 22q22 3 115 12q22 2 32 -8q16 -15 9.5 -45.5t-20.5 -31.5q-23 -2 -28 -6t-6 -20q-3 -38 -9.5 -121.5t-10.5 -127.5q-9 -129 16 -256q11 -59 13 -66
t-3 -19t-4 -18q-6 -4 -10 -6z" />
    <glyph glyph-name="J" unicode="J" horiz-adv-x="426" 
d="M205 581q3 -8 10.5 -27t11.5 -29q32 -71 35 -177q0 -113 -3 -141q-15 -122 -104 -202q-21 -19 -51.5 -21t-53.5 3q-23 2 -75 29.5t-58 47.5q3 1 9.5 4t9.5 3q7 0 38 -4t51 -4.5t47 7.5t44 27q73 83 80 194q10 120 -11 220q-2 9 -8 25.5t-8 23.5q-12 0 -24.5 -4
t-19.5 -7.5t-21 -11t-19 -9.5q-26 -15 -35 -12.5t-24 30.5q-23 39 -19 52t43 27q202 76 302 114q31 11 45 -5q26 -32 25 -63q0 -11 -16 -16q-25 -9 -70 -24t-59 -20q-13 -5 -38.5 -16t-33.5 -14z" />
    <glyph glyph-name="K" unicode="K" horiz-adv-x="383" 
d="M-83 316q15 6 35 17q2 35 10.5 160.5t13.5 195.5q1 0 10 -0.5t13 -2.5q26 -9 41 -34t14 -53q-2 -40 -6 -117.5t-5 -93.5q28 24 72 62q4 3 10 11l8 8t8.5 9t6 9t3.5 11.5t-2.5 13.5t-8.5 17q15 -6 27 -7t23 3.5t16.5 8t17 13t14.5 11.5q55 41 78 57.5t69.5 44.5t87.5 45
q18 8 40 26q20 17 52 -2q15 -10 33 -30q23 -26 -12 -40q-9 -4 -38 -16t-44 -19q-97 -47 -252 -175q-21 -18 -14 -39q7 -20 19 -60q10 -27 46 -123.5t56 -148.5q3 -8 9 -18t10.5 -16.5t13 -17.5t12.5 -16q1 -2 3.5 -4.5t3 -3.5t2 -3t2 -3l1.5 -3t1 -3.5t1 -4.5t1 -5.5t1 -6.5
q-42 4 -77 41q-34 34 -52 75q-7 16 -91 238q-12 32 -19 52q-15 -10 -35 -28q-16 -13 -47 -39.5t-47 -39.5q-16 -11 -16 -31q-7 -125 39 -204q5 -5 5 -10q0 -13 -5 -19q-5 -5 -16 -1q-31 16 -49.5 33t-28.5 46q-29 86 -30 162q0 29 -18 42q-3 2 -16 26z" />
    <glyph glyph-name="L" unicode="L" horiz-adv-x="405" 
d="M123 29q-2 -6 1 -15l4.5 -13.5t-6.5 -12.5q-5 -3 -9 -3.5t-8.5 1.5t-7 3.5t-7 5.5t-6.5 5q-20 14 -42 7q-30 -12 -56 -13q-33 -2 -41 8q-16 20 -28 61q-1 3 6.5 10t13.5 9q17 6 79 22q0 10 -2 73.5t-4 139t-3.5 152.5t0.5 129t8 53q-2 18 -6 50q15 1 19.5 0.5t13.5 -8.5
t12 -10q55 -34 55 -138q-1 -30 -2 -152t0 -153q1 -19 8 -114q16 5 38 13t38 12q87 24 174 45q25 5 34 -1t14 -30q1 -7 3.5 -20.5t3.5 -20.5q-39 -4 -150.5 -38.5t-146.5 -56.5z" />
    <glyph glyph-name="M" unicode="M" horiz-adv-x="617" 
d="M442 574q-7 -25 -8 -31q-7 -38 -12.5 -84t-8 -76.5t-6 -86.5t-5.5 -79q-3 -40 -10 -72q-8 -32 -24.5 -39.5t-48.5 4.5q-5 2 -14 6t-13 5q-39 15 -45 52q-15 97 -36 206q-6 28 -18 81.5t-17 78.5l-10 24q-28 -35 -37 -91q-19 -123 -14 -273q1 -43 -1 -130q0 -9 -2 -25
q-6 -43 -21.5 -50.5t-55.5 13.5q-5 3 -16.5 9t-15.5 9q4 62 1 111t-1 111.5t14 111.5q4 14 2 21q-8 9 -3.5 64.5t4.5 64.5q0 2 -9 113v31q58 3 88 -61q10 13 28 33q84 -1 112 -86q11 -37 35 -130q24 -91 31 -116q6 0 9 1q4 27 10 91q1 10 4.5 47.5t6.5 57.5q2 16 9.5 45
t9.5 37q5 18 13.5 56t13.5 57q8 28 27 49.5t36 17.5q55 -12 72 -60q8 -19 10 -31q32 -149 40 -305q12 -194 30 -280q4 -16 7 -25t11 -19.5t20 -17.5q3 -2 5 -6.5t4 -11.5t3 -10q-2 -1 -9.5 -4.5t-12 -4.5t-8.5 0q-56 21 -87 40q-12 7 -19 19.5t-9 21.5t-4.5 28t-3.5 25
q-14 78 -21.5 224t-12.5 195q-1 8 -4.5 24.5t-4.5 19.5h-8z" />
    <glyph glyph-name="N" unicode="N" horiz-adv-x="588" 
d="M92 363q1 -15 1 -43q9 -80 34 -308q2 -22 -5.5 -28.5t-26.5 1.5q-39 18 -49 57q-45 198 -41 396v62q57 1 89 -45q17 -23 79 -123q4 -7 24 -42.5t32 -53.5q34 -51 72.5 -55t84.5 32q64 47 94 145q35 111 31 176q-7 98 -52 189q-5 10 -16.5 19.5t-22.5 10.5q-75 9 -128 4
q-8 0 -16 -5.5t-19.5 -15t-17.5 -13.5q-9 10 -29 37q16 37 51 43q54 12 114.5 2.5t104.5 -49.5q37 -33 55 -72q45 -109 44 -205q-3 -142 -98 -268q-96 -128 -244 -35q-59 36 -104 123l-33 66q-6 -2 -8 -2z" />
    <glyph glyph-name="O" unicode="O" horiz-adv-x="440" 
d="M82 624q-21 -5 -41 -8q-13 32 -5.5 49t37.5 28q1 0 2.5 0.5t2.5 0.5q58 7 91 55q8 11 32 27q19 12 38 2q16 -9 13 -31q-1 -5 1 -20q10 -2 28 -4q110 -14 140 -121q24 -99 11.5 -187t-42 -157t-72.5 -122.5t-79 -84.5t-61 -42q-24 -10 -53 -17q-19 -4 -42 6
q-67 28 -90 120q-22 85 -8 209q14 114 79 251q0 1 18 46zM346 604q-23 40 -44 57t-33 16t-29 -8.5t-23 -8.5q-14 -2 -25 -19q-36 -51 -63.5 -122.5t-41.5 -140t-21.5 -132t-7.5 -107.5t6 -58q3 -8 6.5 -19t5 -16t5 -10.5t8.5 -6.5t13 -1t20 2q33 5 79 71t84.5 153.5t58 187
t2.5 162.5z" />
    <glyph glyph-name="P" unicode="P" horiz-adv-x="424" 
d="M237 -91q-21 15 -37.5 36.5t-24 36.5t-19.5 43q-5 10 -45 107q-1 1 -4 8t-5 11q-19 27 -36 62.5t-25.5 58.5t-24 71t-20.5 63q-49 132 -30 214q14 63 57.5 98t107.5 33q105 -2 189 -54q56 -37 78.5 -100t0.5 -126q-31 -91 -147 -205q-4 -4 -26 -21q-23 -16 -18 -51
q1 -5 33 -263q0 -2 -0.5 -5t-1.5 -7.5t-2 -9.5zM187 334q97 84 144 179q10 20 23 66q9 30 -21 45q-99 50 -179 42q-69 -4 -86 -38q104 -258 119 -294zM93 281q31 9 36.5 15t1.5 29q-8 36 -28 108q0 2 -12 22q-1 0 -2.5 -0.5t-2.5 -1.5q1 -28 3.5 -85t3.5 -87zM30 541
q-13 -36 -9.5 -71.5t21.5 -60.5q-4 46 -12 132zM117 181q19 -40 37 -74q2 1 8 3q0 2 -3.5 27t-5.5 37q-2 10 -7.5 13t-11.5 1t-17 -7z" />
    <glyph glyph-name="Q" unicode="Q" horiz-adv-x="566" 
d="M439 75q78 -97 195 -152q4 -2 13 -5.5t14 -6t8.5 -8.5t1.5 -15q-6 -26 -50 -28q-78 -5 -123 33q-18 16 -57.5 42.5t-56.5 40.5q-44 37 -97 23q-71 -17 -162 6q-100 24 -124 131q-30 143 34 299q10 25 21 68q4 14 -2 27q-10 25 -7 34t26 22q28 14 43 18q54 15 97 58
q42 40 132 46q17 0 24 -13q3 -8 -9 -26q-6 -7 -25 -26q9 -1 22 -3t19 -3q111 -17 156 -115q45 -101 12 -229q-31 -117 -88 -189q-4 -5 -9 -15t-8 -14zM391 127q50 49 91 142.5t39 155.5q-2 59 -22 101t-71 66q-72 34 -149 12q-16 -4 -26 -14t-19.5 -28.5t-13.5 -24.5
q-11 -19 -13 -22q-20 -34 -3 -69q35 -77 50 -105q65 -125 137 -214zM301 45q-30 45 -87 131.5t-86 129.5q-21 -118 13 -189q16 -31 36 -49q59 -56 124 -23z" />
    <glyph glyph-name="R" unicode="R" horiz-adv-x="326" 
d="M93 -20q-21 4 -44 17t-34 25q-4 6 -4 23q0 18 1 52t1 50q-10 6 -11 6q-6 0 -11 0.5t-9 1.5t-8.5 4t-7.5 4t-7 6t-5 6t-5 7t-4.5 7l-4.5 9l-5 7q-11 17 7 30q12 9 32 27q34 26 42 79q5 37 35 222q1 9 2 19.5t2 22.5t2 19q-41 -7 -60.5 -26t-35.5 -67q-47 31 -44 76t43 65
q41 23 102 28q4 0 6 26t7 26q13 0 42 -14t48 -28q4 -3 4 -7t-1.5 -6t2.5 -3q94 -18 143 -64q23 -24 27 -62.5t-12 -82.5t-45 -87t-75 -82t-100 -62h8q8 2 40.5 11t55 13.5t52.5 8t51.5 -3t33.5 -22.5q4 -5 6 -11.5t4.5 -15.5t4.5 -15q-5 0 -15 -1.5t-14 -1.5q-45 5 -126 -18
t-98 -26q-1 1 -3 -1.5t-5 -8t-5.5 -12.5t-4 -17.5t-0.5 -20.5v-132zM159 631q-26 -109 -46 -300q4 1 34.5 35t33.5 38q172 219 -22 227z" />
    <glyph glyph-name="S" unicode="S" horiz-adv-x="429" 
d="M346 221q2 -3 13.5 -25t16.5 -34q18 -51 -16 -96q-44 -54 -112 -74q-61 -18 -70 30q-10 71 -1 113.5t41 96.5q-13 6 -35.5 14t-31.5 12q-85 39 -127 140t0 203q53 126 123 229q41 60 105 97q8 6 37 10q20 5 32 -16q26 -45 -3 -84q-86 -110 -106 -135q-26 -34 -87 -105
q-6 -7 -18.5 -18t-17.5 -16q-23 -29 -32 -72.5t4.5 -86.5t52.5 -61q17 -8 62.5 -24.5t62.5 -24.5q9 -5 13 -5.5t5.5 -0.5t6 5t8.5 9q25 23 65.5 49.5t75.5 36.5q43 13 62.5 -7t19.5 -50h-6q-42 1 -92.5 -30t-65.5 -55q10 -16 15 -25zM221 88q35 3 57 26t45 63q3 5 4 8
q-4 2 -17.5 8t-21.5 10q-62 -69 -67 -115z" />
    <glyph glyph-name="T" unicode="T" horiz-adv-x="407" 
d="M372 -14q-83 32 -94 74q-12 46 -23 192q-19 188 -17 202q0 4 1 11.5t1.5 13.5t0.5 11v65q-5 -1 -16.5 -2.5t-17.5 -2.5q-28 -8 -84.5 -24.5t-84.5 -24.5l-12 -3q-9 -2 -21.5 -5t-17 -3t-11 -1.5t-9 1t-7 3.5t-8 7.5t-8 11.5t-12 16.5t-15.5 21.5q-9 12 34 43.5t93.5 54.5
t62.5 14q3 -3 7 -2q1 0 2 -4q1 -2 1 -3q5 -19 11 -24t21 -2l81 18q11 3 14.5 4t10.5 5.5t9 12.5t1 20q4 -1 9.5 -2t9 -1.5t5.5 -2.5q17 -15 49 -4q8 3 65 24t87 30q25 7 99 21q25 3 37 -20q2 -5 9.5 -18t11 -23t3.5 -22q-2 0 -25.5 1.5t-35.5 1.5t-26.5 -3.5t-23.5 -7
t-26 -10.5t-24 -10l-164 -60q6 -96 10 -149q1 -24 5 -73t5 -74q7 -125 8 -151q1 -21 10 -70t9 -78z" />
    <glyph glyph-name="U" unicode="U" horiz-adv-x="486" 
d="M574 -56q-65 28 -80 61q-27 56 -64 147q-7 18 -39 106q-7 -19 -8 -22q-4 -14 -12 -48.5t-13 -53.5t-15.5 -46.5t-24.5 -48.5q-1 -2 -5 -8l-6 -9q-41 -62 -111 -24q-108 58 -134 181q-3 11 -37 212q-1 6 -2 18.5t-2 19.5t-5 17t-11 17q-5 6 -5 22q2 73 5 109q2 29 8 79
q1 9 8 28q4 -1 10.5 -3t10.5 -3.5t7 -3.5q7 -6 26 -19t30.5 -22t21.5 -23.5t9 -28.5q-1 -22 -7 -107t-7 -121.5t3.5 -100.5t17.5 -115q9 -35 19 -57q17 -43 50 -10q29 32 41 61q24 59 38 120q44 193 70 341q4 19 4.5 40t-0.5 47.5t-1 41.5q0 4 1.5 13.5t1.5 14.5
q4 -1 9.5 -1t9.5 -0.5t6 -2.5q58 -39 59 -91q4 -225 10 -336q7 -131 77 -265q26 -47 44 -90q1 -2 4 -30z" />
    <glyph glyph-name="V" unicode="V" horiz-adv-x="457" 
d="M88 402q-8 -21 -9.5 -43t0.5 -48.5t2 -38.5q-26 -10 -47.5 2.5t-28.5 42.5q-14 63 -4.5 174.5t-1.5 173.5q22 1 56.5 -9.5t42.5 -11.5q37 -10 51.5 -43t18.5 -85t10 -71q17 -145 73 -325q4 -17 12 -26.5t16.5 -5t11.5 25.5q40 150 62 244.5t38.5 226.5t11.5 249
q0 48 -40 65q-24 8 -20 40q62 9 108 -28t59 -94q12 -109 -11.5 -231t-66.5 -266t-57 -222q-3 -45 -39 -81.5t-81 -37.5q-34 18 -60.5 55.5t-43 90t-27 97t-21 101.5t-15.5 79z" />
    <glyph glyph-name="W" unicode="W" horiz-adv-x="599" 
d="M182 421q33 4 51.5 -34.5t23.5 -89t16.5 -109t29.5 -84.5q23 -27 47.5 -30t45 11.5t40 40t32 50t20.5 47.5q44 132 40 240q-1 43 -15.5 91t-40.5 86.5t-61.5 44t-79.5 -36.5q-2 -2 -7.5 -6t-6.5 -5q-21 41 -2 73.5t63 30.5q69 -9 117.5 -67.5t68 -139.5t18 -171.5
t-26.5 -164.5q-21 -76 -65 -137q-43 -62 -97 -63t-99 60q-12 17 -41 76t-49 77q-4 -12 -20.5 -68t-28.5 -82q-16 -33 -54 -37t-61 25q-38 51 -55 118.5t-15.5 130t1.5 134t-3 129.5q-4 36 18 33q27 -4 60 -46q18 -22 18 -33q1 -33 0.5 -127.5t5 -155.5t22.5 -118
q28 53 51 159t39 148z" />
    <glyph glyph-name="X" unicode="X" horiz-adv-x="654" 
d="M329 292q-23 -29 -63 -79t-70 -88.5t-55 -73.5q-37 -51 -85 -50q-20 1 -55.5 0t-55.5 -1q56 85 161 208t136 163q-46 49 -131 138.5t-120 126.5q-29 28 12 50q32 16 67 12q27 -27 110.5 -111.5t130.5 -132.5q129 122 157 146q10 9 141 112q4 3 12.5 7.5t14.5 9t8 9.5
q10 23 24.5 36.5t35.5 19t34.5 6.5t40.5 1h11q21 -1 32.5 -12.5t5 -24t-31.5 -16.5q-52 -31 -105.5 -75.5t-88 -78t-92.5 -93t-87 -87.5q-5 -5 -15 -22t-13 -20q5 -10 34 -42q23 -25 75.5 -83t92 -100.5t77.5 -80.5q29 -40 2 -70q-25 -31 -59 1q-176 160 -288 295z" />
    <glyph glyph-name="Y" unicode="Y" horiz-adv-x="481" 
d="M437 665q35 104 83 110q29 3 43 -32q10 -27 0 -56q-75 -218 -97 -304q-63 -250 -18 -434q13 -60 0 -106.5t-47 -66.5q-16 1 -28.5 13.5t-19.5 37.5t-9.5 37.5t-6.5 37.5q-12 69 -8.5 162.5t12 166.5t20.5 130q-17 -18 -35.5 -15.5t-31.5 14.5t-30.5 34t-33.5 43.5
t-41 43.5t-52 33q-38 15 -48.5 2.5t-3.5 -49.5q-4 -26 -38 -22q-39 3 -58 37q-18 30 -2 69q24 60 66 78.5t84.5 1.5t81 -53t59.5 -79q67 -137 99 -63q6 12 10 29q3 14 12 55t18.5 78.5t19.5 66.5z" />
    <glyph glyph-name="Z" unicode="Z" horiz-adv-x="674" 
d="M431 655q-31 22 -85 12q-171 -31 -261 -129q-16 -18 -27.5 -17.5t-23.5 21.5q-5 8 -13 20q-19 30 -15 38q3 8 33 29q16 11 26 18q138 101 288 104q82 1 119.5 -47t23.5 -132q-2 -13 -14.5 -53.5t-15.5 -57.5q14 3 45 12t39 11q5 1 36 9.5t49 11.5q20 3 40 -5
q3 -2 11.5 -5t10 -4.5t3.5 -7t2 -14.5q-1 -26 -35 -38q-11 -3 -87.5 -29t-117.5 -37q-73 -20 -107 -79q-10 -19 -23 -39t-29.5 -44t-25.5 -37q-36 -57 -36 -81q37 20 188 112.5t160 108.5q34 11 52.5 2t28.5 -43q2 -6 4 -32q-26 -18 -29 -20q-190 -114 -286 -170
q-89 -51 -112 -60q-28 -11 -45.5 -14t-31 4t-22 17.5t-22.5 35.5q-13 25 3 58q36 75 84 149q2 3 9 12t10.5 14.5t8.5 14t4 13.5t-5 9t-16 4t-31 -5q-22 28 -30 45.5t0.5 28.5t22.5 17t45 14q123 30 164 152q3 9 36 103z" />
    <glyph glyph-name="bracketleft" unicode="[" horiz-adv-x="228" 
d="M218 579q0 -19 -10 -29.5t-24.5 -12t-31 -1t-30.5 2.5t-22 -1.5t-6 -13.5q4 -6 1 -38t-3 -37q0 -11 2.5 -61t1.5 -77q0 -28 -1 -60t-2.5 -70.5t-2.5 -60.5q0 -73 -3 -109q-1 -5 8 -19.5t-1 -22.5q2 -2 7 -0.5t27 0.5t47 -7q18 -2 21.5 -13.5t-4 -22t-14.5 -10.5
q-3 0 -18.5 1.5t-27 1.5t-24.5 -2.5t-19 -11t-3 -23.5q-14 7 -16 10q-22 30 -48 30q-15 0 -13 18q1 10 1 30.5v30.5q0 47 3 142t3 143q1 21 -1 158t-2 147q1 17 9 22.5t19 -3.5q7 -4 13 -10q3 -4 21.5 -4.5t43 0t48 0.5t38.5 -4t13 -13z" />
    <glyph glyph-name="backslash" unicode="\" horiz-adv-x="298" 
d="M54 745q9 -22 54.5 -167.5t51.5 -162.5q20 -57 57.5 -160.5t51.5 -143.5q4 -11 11 -32.5t12 -32.5q8 -20 -9 -26q-11 -4 -12 -10t2.5 -13.5t-0.5 -19.5q-1 -3 -14 -18q-22 26 -25 43q-7 42 -16 48q-10 6 -10.5 15t3.5 16t0 16q-9 21 -23 61.5t-20 55.5q-7 20 -33.5 92
t-39.5 112q-7 17 -46 149q-7 22 -28 80q-1 3 -4.5 12.5t-4.5 12.5t-3.5 11t-3 11t-2 10t-1 10.5t1 9t2 10t4 9.5t6.5 10q10 14 21 11.5t17 -19.5z" />
    <glyph glyph-name="bracketright" unicode="]" horiz-adv-x="240" 
d="M9 575q-4 14 39 16.5t84.5 0t52.5 4.5q6 6 14 10q12 9 20.5 3.5t9.5 -22.5q0 -12 -2.5 -146.5t-1.5 -154.5q1 -47 4 -141t3 -141v-30t1 -31q2 -17 -14 -17q-29 0 -52 -30q-3 -4 -17 -10q3 14 -3 23t-20 11t-26.5 2.5t-29 -1t-19.5 -1.5q-8 0 -16 10.5t-4.5 21.5t23.5 13
q17 4 33 6t25 1.5t17 -0.5t9.5 -0.5t2.5 0.5q-11 8 -1.5 22.5t8.5 19.5q-3 35 -3 107q-1 22 -2.5 60.5t-2.5 70t-1 58.5q-1 27 1.5 77.5t2.5 59.5q0 4 -3 36.5t1 37.5q2 10 -6.5 13.5t-23.5 1.5t-32.5 -2.5t-33.5 0.5t-26.5 11.5t-10.5 29.5z" />
    <glyph glyph-name="asciicircum" unicode="^" horiz-adv-x="234" 
d="M198 478q-2 1 -73 57q-7 -2 -13 -4.5t-11.5 -6.5t-8 -6t-7.5 -7.5t-6 -6.5q-5 -6 -15 -17t-16 -16q-12 -12 -23 -7q-7 2 -14 7t-6 9q2 32 12 44q9 12 84 92q3 3 16 13q5 -4 21.5 -14.5t22.5 -15t18.5 -14.5t18.5 -16.5t13 -16t10 -19t3 -20.5q0 -28 -26 -35z" />
    <glyph glyph-name="underscore" unicode="_" horiz-adv-x="529" 
d="M-6 100h106h305q31 -1 37.5 -10t-1.5 -22q-7 -20 -42 -20q7 1 -2 3q-11 2 -42 5q-29 2 -108.5 0.5t-131.5 -3t-73 2.5q-6 3 -17 4t-16.5 3t-2.5 7t-2 12.5t-9 12t-1 5.5z" />
    <glyph glyph-name="grave" unicode="`" horiz-adv-x="218" 
d="M9 692q22 14 41.5 18t52.5 1q22 -62 100 -108q1 -1 4 -2.5l4 -2t3.5 -2t3.5 -2.5t2.5 -3t2.5 -3.5t2 -3.5t1 -4.5v-5.5q0 -6 -3 -10.5t-5.5 -6t-9.5 -4.5t-8 -3q-59 -25 -81 -21t-68 48q-13 13 -51 55q-13 16 -10.5 32.5t19.5 27.5z" />
    <glyph glyph-name="a" unicode="a" 
d="M379 219q8 24 26 6q21 -19 16 -46q-1 -6 -3 -11q-10 -18 -29 -39.5t-44.5 -42.5t-54 -20t-49.5 30q-1 2 -5 10.5t-8 14.5t-9.5 12t-11.5 6t-12 -8q-5 -6 -14.5 -17t-16 -18t-16 -16.5t-18.5 -14t-19.5 -8.5t-23 -3.5t-25.5 5.5q0 1 -2 1t-2 1q-28 19 -39 48.5t-15 72.5
q-4 88 38.5 150t126.5 91q58 20 76 -43q3 -21 -3 -30.5t-29 -14.5q-63 -21 -109 -61t-46 -98q-2 -20 33 -20t43 12q11 16 20 26.5t12 13t8 11t10.5 21t18.5 42.5q16 36 49 19q22 -11 23 -26q0 -3 -2 -5q-6 -8 -11.5 -43t-3.5 -43q23 -96 76 -38q19 20 45 73z" />
    <glyph glyph-name="b" unicode="b" horiz-adv-x="307" 
d="M372 364q15 8 13 -11q-2 -29 -21 -56q-3 -4 -6 -6q-9 -7 -30.5 -13.5t-55.5 -9.5t-66 8q25 -25 44 -79t12.5 -103t-48.5 -53q-75 5 -124 52.5t-67 117.5t-17.5 154t18.5 161t46.5 139t61.5 88q58 46 92 -8q22 -34 18 -113t-17 -148.5t-26 -112.5q-4 -16 -14 -37
q44 -11 94.5 -2t92.5 32zM81 216q3 5 11.5 16t14.5 20t11.5 20t4.5 21.5t-9 18.5q-2 3 2.5 15.5t7.5 16.5q2 4 12 3.5t16 -3.5q21 60 34 156t10 167q-29 0 -52 -48q-30 -65 -52.5 -162.5t-23.5 -167.5q0 -58 13 -73zM184 135q24 6 31 19t-1.5 30.5t-21.5 34t-30 35.5
q-8 9 -12 13q-7 -12 -18 -31t-18.5 -33t-11.5 -23q-3 -6 9 -17t33 -20t40 -8z" />
    <glyph glyph-name="c" unicode="c" horiz-adv-x="331" 
d="M312 236q22 33 45 39q18 5 18 -16q1 -10 -3 -25q-14 -62 -62 -137q-3 -5 -17 -17q-52 -43 -120.5 -36.5t-110.5 58.5q-20 24 -40.5 70.5t-17.5 96.5q2 28 15.5 63t47.5 68t79 35q40 2 63 -46q18 -39 6 -57q-6 -10 -20 -4q-46 20 -77.5 -5t-40.5 -69t-1 -89q29 -38 82 -29
q105 14 154 100z" />
    <glyph glyph-name="d" unicode="d" horiz-adv-x="364" 
d="M231 192q17 -9 39 -13t54 7t53 43q4 2 7 -7q12 -29 6 -62q0 -4 -1 -7q-1 -5 -10 -12q-27 -20 -59 -24.5t-53 1.5t-40.5 8.5t-23.5 -3.5q-36 -45 -56 -58q-19 -15 -50.5 -20.5t-50.5 8.5q-36 31 -34 93t47 134l-7 18q-7 18 -15.5 40.5t-10.5 32.5q-32 126 -16 212
q20 113 107 178q38 28 78 17t59 -54q43 -96 34 -251q-4 -127 -57 -281zM67 411q18 -73 24 -72q3 -10 4 -10t7 5t8 6q9 6 15 5.5t8.5 -3.5t7.5 -12t10 -15q6 -11 -2 -21q-6 -7 -12 -11.5t-10 -8.5t-11 -14q0 -1 3 -4.5t9.5 -10l10.5 -10.5q2 -3 14 -4.5t14 2.5q83 167 69 410
q-2 23 -6 42q-9 43 -44 20q-36 -25 -60 -54q-83 -102 -59 -240zM66 140q8 -21 29 -8t32 32q2 3 0.5 11.5t-3.5 11.5q-1 2 -5.5 8.5t-8 12t-7.5 11t-7 8t-4 1.5q-14 -17 -20.5 -39t-5.5 -35v-14z" />
    <glyph glyph-name="e" unicode="e" horiz-adv-x="281" 
d="M83 137q46 -24 71 -16q57 20 106 99q3 3 7.5 12.5t11 15.5t15.5 4q17 -13 17 -42t-12 -53q-25 -50 -71 -87q-33 -27 -71.5 -24.5t-69 18.5t-48.5 38q-3 5 -31.5 2.5t-39.5 13.5q-4 7 6 21.5t22 25.5l12 11q0 2 -1 21.5t-1 35t2.5 39.5t8.5 42.5t18 37.5t29 30
q30 24 70.5 15.5t58.5 -41.5q14 -33 10.5 -63t-26 -61.5t-45.5 -54t-49 -40.5zM129 323q-36 -10 -53.5 -30t-18.5 -62q-1 -25 28 5q35 36 44 70q3 11 0 17z" />
    <glyph glyph-name="f" unicode="f" horiz-adv-x="207" 
d="M139 -257q-69 55 -79 123q-6 35 -23 209q-1 8 -2.5 21.5t-1.5 18.5q-3 0 -5.5 1t-3.5 1h-3q-5 -1 -16 -4t-16 -3.5t-11 1.5q-15 13 -39 57q-10 17 10 25q3 1 8 2.5t7 2.5q48 20 53 27t-1 40q-3 10 -4 19q-1 3 -4.5 25.5t-4.5 29.5t-4 27t-3 30.5v26.5t2 29t6 24
q30 49 105 60q14 -7 24 -18t12.5 -24.5t-14.5 -24.5q-19 -5 -32.5 -14t-20 -24.5t-9.5 -29t-1 -35.5t3.5 -35.5t6.5 -38t6 -34.5l10 -16q9 4 16.5 10.5t14.5 10.5q33 15 72 7q1 0 4.5 -1t5 -1t4.5 -0.5t4 -1.5t3.5 -2t4 -2t3 -2.5t2.5 -3.5t2 -4.5t2 -5.5q5 -24 -25 -38
q-58 -30 -88 -44q-13 -7 -17.5 -12.5t-4.5 -9t3 -15.5t4 -23q20 -190 20 -200q2 -58 39 -129q2 -4 4 -12.5t2 -10.5q-2 -1 -15 -4.5t-15 -4.5z" />
    <glyph glyph-name="g" unicode="g" horiz-adv-x="325" 
d="M363 367q24 1 35 -14t8 -35q-3 -19 -13.5 -25.5t-34.5 -8t-39 -6.5q-26 -8 -52 -30t-40 -40t-33 -46.5t-20 -29.5q18 -8 65.5 -45.5t57.5 -55.5q35 -72 1 -114t-88.5 -59.5t-83.5 -8.5q-36 15 -43 71.5t0.5 97.5t17.5 74q-31 15 -56.5 40.5t-29.5 48.5q-8 38 -3 75.5
t11.5 64t21.5 53t27 44t27 36.5q5 7 8 10q23 29 41.5 25.5t41.5 -38.5q3 -6 5.5 -10.5t2 -9t0 -7t-3 -7.5t-4.5 -7t-7 -9t-8 -10q-144 -178 -44 -229q2 -1 7.5 8.5t15.5 26t23 37t32 42t41 40t51.5 33t61.5 18.5zM139 -97q17 -22 60 -3q45 21 58 59q21 63 -78 111
q-11 5 -24 10q-15 -34 -19 -96t3 -81z" />
    <glyph glyph-name="h" unicode="h" horiz-adv-x="349" 
d="M12 681q7 29 20.5 36.5t26 -6t17.5 -39.5q11 -40 -10.5 -117.5t-22.5 -103.5q-4 -47 15 -149q18 -92 36 -83q1 0 3 2l48 132q17 33 34.5 36.5t33.5 -32.5q3 -6 14.5 -34t18.5 -44t20 -43t23.5 -44t24.5 -34t26 -24q13 -7 22.5 -4t17.5 2.5t11 -10.5q0 -35 -38 -53t-61 5
q-13 15 -25.5 33.5t-19.5 31.5t-19 37t-17 33q-2 9 -10.5 9.5t-11.5 -6.5q-14 -25 -23.5 -75t-20.5 -71q-21 -43 -49 -6q-31 43 -57 93q-107 271 -27 527v1z" />
    <glyph glyph-name="i" unicode="i" horiz-adv-x="116" 
d="M154 529q11 -20 -25 -40q-7 -3 -15 -7t-11 -6t-7.5 -4t-7 -4.5t-5 -4.5t-6.5 -6.5t-7 -8t-10 -12t-12 -15.5q-9 -6 -15 -7t-11 5t-6.5 9t-6.5 14q-32 64 85 87q2 0 10.5 2.5t14.5 3.5t14 1.5t13 -1t8 -6.5zM76 195q-2 -46 20 -73q19 -24 15 -58q-4 -31 -26 -19
q-9 5 -20 17q-84 95 -57 243q1 7 8 29.5t9 29.5q34 11 52 -5.5t17 -46t-9 -59.5q-7 -22 -9 -58z" />
    <glyph glyph-name="j" unicode="j" horiz-adv-x="289" 
d="M47 359q-29 15 -32.5 29.5t17.5 40.5q37 46 116 89q34 21 43 3t-22 -45l-4 -4q-18 -15 -43.5 -47.5t-44 -51t-30.5 -14.5zM316 270q1 -26 -5.5 -43.5t-12.5 -22.5l-7 -4q-44 -16 -71.5 -54t-27.5 -80q3 -160 -63 -352q-15 -46 -36 -90q-10 -21 -20 -21t-26 18
q-47 53 -47 153q0 93 30 180q43 121 86 188q20 31 -7 82q-16 30 -25 26q-2 -1 -3 -4q-32 -90 -60 -89q-18 1 -20 34q-1 15 4 30q9 27 33.5 54t45.5 30q28 4 58 -21t33 -54q15 13 22 18q41 35 55 42q44 24 64 -20zM70 -229q32 62 56 274q-27 -38 -45.5 -137.5t-10.5 -136.5z
" />
    <glyph glyph-name="k" unicode="k" horiz-adv-x="246" 
d="M24 876q26 -19 39 -38.5t12 -49.5q-2 -69 0 -275v-156q0 -29 22 -48q18 25 22 32q3 7 8 14.5t8.5 12t11.5 12t11 10t12.5 11t11.5 10.5q26 21 48 -1q20 -19 4 -45q-10 -17 -34 -58.5t-38 -63.5q-13 -22 4 -40q4 -4 13.5 -15.5t15.5 -16.5q12 -11 36 -24q7 -4 23 -10
t24 -10q22 -12 21 -35q-1 -17 -11 -24.5t-26 -2.5q-24 8 -35 19q-39 33 -75 69q-2 2 -20 26q-45 -99 -25 -164q3 -15 3 -16q-4 -16 -10 -19q-4 -2 -11.5 -2t-10.5 4q-4 4 -13 13.5t-14 15.5t-11 15t-9 17q-26 81 -27 138q-2 72 1 428v207v10v11t1 10t3 11t5.5 9t9.5 9z" />
    <glyph glyph-name="l" unicode="l" horiz-adv-x="230" 
d="M201 42q-92 -27 -154 76.5t-48.5 267.5t115.5 286q22 24 48.5 22t43.5 -30q27 -42 22 -101q6 -223 -131 -342q-8 -7 1.5 -28.5t30 -40.5t39.5 -18q22 1 107 28q8 3 9 -9q4 -29 -24 -67q-24 -33 -59 -44zM178 595q-70 -66 -93.5 -158t-3.5 -191q105 119 97 349z" />
    <glyph glyph-name="m" unicode="m" horiz-adv-x="425" 
d="M294 208q-6 1 -12.5 -6.5t-12.5 -21t-10 -25.5l-8 -24q-11 -31 -19 -33.5t-29 20.5q-18 20 -24.5 31.5t-12.5 36.5q-4 18 -16 29l-27 -69q-3 -7 -9 -25.5t-10 -28.5q-19 -41 -42 -8q-37 53 -41 77q-4 34 -7 73t-6 86t-5 73q0 5 5 12q32 -3 55 -44t24 -123q13 27 35 106
t34 104q16 -7 29 -23t20.5 -31.5t14 -42t8.5 -40t5.5 -41.5t4.5 -32q3 1 10 19.5t13 38.5l6 19q25 25 37 24t33 -29q31 -40 38 -110q6 -70 21 -92q23 -36 73 -11q22 11 27 -4.5t-5 -25.5q-8 -9 -31.5 -19.5t-53 -13t-50.5 21.5q-39 44 -47 91q0 1 -5 26t-10 35z" />
    <glyph glyph-name="n" unicode="n" horiz-adv-x="346" 
d="M399 256v-2q9 -36 -26.5 -104t-73.5 -42q-43 29 -66.5 77t-42.5 120q-27 -13 -45.5 -62t-33 -119t-17.5 -81q-38 12 -54 61q-20 51 -28 123t2 127q6 25 8 32q30 0 39.5 -29t5.5 -68t1 -79q14 10 42 72.5t35 72.5q20 31 48 35t42 -27q11 -27 32.5 -76t24.5 -56
q9 -26 31.5 -26.5t42 15t22.5 30.5z" />
    <glyph glyph-name="o" unicode="o" horiz-adv-x="272" 
d="M137 403q56 -21 96.5 -86t35.5 -126q-7 -86 -88 -134q-38 -18 -63.5 -12t-58.5 34q-38 32 -50 69t-1 72t26 63t34.5 54t22.5 33q1 1 -2.5 4t-6 8t0.5 14q23 20 54 7zM140 134q74 59 73 140q-2 41 -42 50q-21 -20 -53 -82t-36 -85q-9 -42 33 -33q16 4 25 10z" />
    <glyph glyph-name="p" unicode="p" horiz-adv-x="309" 
d="M342 366q9 2 13.5 -13t1.5 -31.5t-12 -18.5q-21 -5 -56 -21q-1 -55 -40.5 -114t-89.5 -98q-15 -11 -16.5 -18t3.5 -25q4 -25 10 -74t9 -73t10 -71.5t11 -71.5q-10 -7 -29 -5t-25 11q-31 50 -34 64q-6 25 -16.5 92.5t-17.5 122.5l-8 55q-13 59 -14 70q-3 23 -10 63.5
t-9 51.5l-25 121q7 14 32.5 15.5t48.5 -12.5q2 6 24 54q8 18 30 21t45.5 -5.5t42.5 -21.5q53 -37 60 -94q8 3 27 12.5t34 13.5zM116 344q-12 -33 5 -132q46 65 91 88q0 45 -53 86q-9 8 -17 2t-13.5 -15.5t-8.5 -18.5zM137 101q1 1 13 11.5t18.5 17.5t18.5 21.5t18.5 28
t12 32.5t5.5 39q-90 -58 -89 -96q0 -5 -1 -7q5 -44 4 -47z" />
    <glyph glyph-name="q" unicode="q" horiz-adv-x="275" 
d="M135 -68q-31 -33 -54 -33q-19 0 1 27q11 16 34 36q29 27 24 96q-22 -24 -30 -32q-26 -27 -57.5 -19.5t-44.5 43.5q-22 58 5 130q29 79 82 127q39 37 89 33q25 -2 39 7q13 8 25 0.5t12 -23.5q2 -42 -6 -73q-7 -33 -23 -93.5t-20 -77.5q-4 -18 -4 -27q-2 -23 2 -29.5
t24 -13.5q39 -15 61 -56q40 -74 32 -136q-1 -8 -2 -43.5t-7 -54.5q-10 -29 -30.5 -35t-45.5 14q-73 57 -99 176q0 2 -2 25.5t-5 31.5zM263 -239q11 26 11 28q5 63 2 81q-3 24 -25 66q-6 12 -19 17t-24 1q-16 -5 -14 -34q6 -60 14 -87q14 -50 55 -72zM156 263
q-57 -32 -88 -119q-1 -3 -4.5 -11t-5 -12.5t-2.5 -11.5t0.5 -13t5.5 -12q34 11 67.5 74t26.5 105z" />
    <glyph glyph-name="r" unicode="r" horiz-adv-x="424" 
d="M434 140q20 16 29 -9q11 -28 -6 -51q-5 -10 -36 -28t-47 -2q-34 32 -46.5 64t-13.5 85q3 36 1 89q-20 9 -50.5 9t-39.5 -18q-8 -18 -23.5 -72.5t-32.5 -82.5q-20 -33 -49 -20q-23 11 -20 35q1 7 5 13q37 58 59 128q-74 7 -115.5 62t-39 124t42.5 116q28 34 64 31.5
t60 -38.5q52 -79 52 -165q1 -26 6 -31.5t31 -7.5q59 -6 82 -66q12 -30 13 -102.5t12 -87.5q37 5 62 25zM104 370q64 -12 77.5 0t17.5 79q-1 4 -2.5 20t-3.5 25t-6.5 21t-13 19t-21.5 9q-34 6 -57 -24.5t-36 -73.5q-21 -63 45 -75z" />
    <glyph glyph-name="s" unicode="s" horiz-adv-x="246" 
d="M199 193q49 -32 63 -93q13 -51 -34 -79q-32 -19 -64 -20t-56.5 17t-35.5 51q-9 26 14 105q1 4 -3.5 9t-14.5 15t-18 20q-94 131 -7 269q30 45 80 61q37 11 57 -14q19 -25 -10 -57q-2 -2 -14.5 -16t-15.5 -17.5t-13.5 -16t-14 -18t-11.5 -17t-12 -19.5t-8.5 -19t-7.5 -21
q-13 -51 29 -77q10 -7 17 3q27 39 75.5 69t86.5 37q2 0 8.5 1.5t9 2t7 0.5t7.5 -2t6 -5l3 -4q6 -8 5 -20.5t-11 -13.5q-48 -7 -89.5 -33.5t-58.5 -59.5q-5 -10 3 -16q13 -11 28 -22zM113 79q4 -6 10 -6q48 -2 69 22q4 5 -4 17t-15 18q-29 24 -41 23q-3 0 -10 -15
t-10.5 -31.5t1.5 -27.5z" />
    <glyph glyph-name="t" unicode="t" horiz-adv-x="232" 
d="M235 135q20 20 29 -4q5 -15 0 -39q-2 -17 -44.5 -34t-71.5 -10q-31 7 -55.5 21.5t-41.5 36t-28.5 40t-19 47t-11 44.5t-8 44.5t-5.5 34.5q-18 0 -40 5q-16 3 -22.5 10.5t-1.5 17.5t21 22l36 24q0 9 -1.5 58t-0.5 80.5t5 76t17 77.5t33 52q29 -17 42.5 -47.5t-0.5 -54.5
q-18 -30 -25.5 -107t-1.5 -104q6 0 49.5 7.5t71 4t41.5 -25.5q18 -28 12.5 -44t-37.5 -23q-7 -2 -133 -25q5 -59 33 -116.5t69 -84t89 15.5z" />
    <glyph glyph-name="u" unicode="u" horiz-adv-x="329" 
d="M342 176q18 27 36.5 9.5t24.5 -45.5q-21 -35 -47.5 -50.5t-49 -12t-38.5 20.5q-35 39 -38 124q6 -118 -67 -200q-16 -18 -39 -19t-38 7.5t-22 16.5q-57 69 -60 186q0 32 -3 62q-9 51 17 83q23 27 46 5q7 -7 10.5 -19.5t4.5 -22.5t1.5 -26.5t0.5 -21.5q1 -24 0.5 -48
t0 -49t4.5 -36q17 -85 45 -81t43 88q11 59 9 133q0 10 6.5 18t15.5 8q20 1 43 -6.5t26 -19.5q10 -34 10 -61t14 -65q9 -24 29 -2q8 8 15 24z" />
    <glyph glyph-name="v" unicode="v" horiz-adv-x="303" 
d="M332 383q-30 -117 -56.5 -191t-37 -91t-25.5 -36q-48 -62 -118 -1q-39 32 -63 102.5t-27 133.5q-1 22 -1 66q1 7 4 19.5t3 15.5q28 0 35 -26q3 -16 9 -92t21 -112q5 -13 19 -29t26 -17q23 -1 47 35t41.5 87.5t28.5 92.5t15 65q5 30 28 33t41 -15t10 -40z" />
    <glyph glyph-name="w" unicode="w" horiz-adv-x="444" 
d="M146 81q-38 -57 -95 41q-20 33 -29 79.5t-9.5 73.5t0.5 90q2 23 16 26q10 3 42 -9t34 -22q3 -15 -5 -65.5t-5 -65.5q1 -8 3.5 -22t3.5 -21.5t4 -18t6.5 -19t8.5 -16.5q10 20 19.5 50t14.5 53t12 60.5t10 49.5q2 8 2.5 11.5t5 7t11.5 3.5q14 -1 32 -9.5t19 -18.5
q3 -24 -6.5 -89.5t3.5 -85.5q11 -29 37 -12q62 45 75 163q3 28 -3.5 40t-32.5 27q-16 8 -16 26q0 7 5 15.5t12 10.5q14 5 43.5 -1.5t34.5 -15.5q51 -47 27 -157q-10 -47 -49 -98.5t-82 -75.5q-34 -17 -59.5 13.5t-32.5 67.5q-7 52 -23 7q-5 -11 -13 -39q-15 -48 -21 -54z
" />
    <glyph glyph-name="x" unicode="x" horiz-adv-x="345" 
d="M148 315q83 64 93 71q22 16 40 19q27 2 40 -8q10 -8 2 -34q-11 -30 -41 -44q-17 -7 -26 -11t-22 -14.5t-22 -23.5q41 -29 63 -29q34 0 22 -30q-8 -23 -32 -50q-11 -13 -35 2q-35 21 -77 48q-66 -64 -131 -171q-15 12 -13 35q3 54 29 89q10 15 31 43.5t30 41.5
q-21 25 -44 50q-42 44 -13 106q11 -2 19.5 -8.5t19.5 -18t15 -15.5q24 -20 52 -48z" />
    <glyph glyph-name="y" unicode="y" horiz-adv-x="342" 
d="M232 134q-17 -8 -19 -10q-20 -12 -32.5 -11t-25.5 19q-11 16 -53 87q-2 3 -5 10.5t-5 10.5q-9 13 -17 13q-11 0 -17 -13q-5 -10 -12.5 -29.5t-10.5 -26.5q-2 -3 -6 -8.5t-5 -7.5q-27 14 -33.5 26t0.5 38q13 54 25 81q12 29 31.5 32.5t40.5 -20.5q9 -11 44 -68
q9 -15 33 -63q29 12 40 52q8 28 23.5 83t23.5 83q1 5 3 13q1 2 2 6.5t1.5 6.5t2.5 6t4 5.5t5.5 3.5t7.5 2q16 1 26 -23q15 -49 14 -69q-4 -95 -18 -285q-1 -19 -4 -57t-4 -58q-9 -151 -9 -202q0 -12 2 -24.5t6.5 -29.5t5.5 -25q1 -4 4 -10t4 -9t3 -9.5t2.5 -10t-0.5 -9
t-6 -9.5q-6 -6 -19 -0.5t-20 18.5q-19 33 -27 62q-14 58 -14 90q0 47 8 282v57z" />
    <glyph glyph-name="z" unicode="z" horiz-adv-x="289" 
d="M218 370q-13 27 -48 22q-19 -4 -30.5 -16t-29 -39t-37.5 -49q-22 -25 -38 3q-32 73 34 114q54 34 126 24q70 -10 82 -57q5 -19 -2 -42q-33 -34 -58.5 -68.5t-38.5 -56.5t-37 -66t-39 -69q18 10 81 53t70 56q46 33 67 18t-4 -69q-37 -29 -79 -48.5t-62 -25.5t-76 -22
q-4 0 -16 4.5t-30 19t-29 33.5q13 44 43 89t83.5 109.5t67.5 82.5z" />
    <glyph glyph-name="braceleft" unicode="{" horiz-adv-x="235" 
d="M186 638q11 0 19 -8q7 -6 3 -16q-4 -9 -25.5 -6.5t-30.5 -19.5q-6 -14 1.5 -75t17 -125t0 -129t-44.5 -91q-17 -7 0 -15q27 -12 40 -38t14 -56.5t-1 -60t-2 -55.5t7 -36t18.5 -12.5t16.5 -8.5q0 -2 1 -6t-9.5 -8.5t-30.5 -4.5q-31 -1 -49.5 19t-23 49.5t-6.5 63.5
t0.5 60.5t-1.5 39.5q-4 18 -20.5 32.5t-31.5 20.5l-14 6q-3 1 -6.5 3t-7.5 9.5t11 17.5q4 3 20 9t21 9q59 32 18 264q-26 147 52 168q28 7 44 0z" />
    <glyph glyph-name="bar" unicode="|" horiz-adv-x="110" 
d="M-16 698q1 19 10.5 25t25.5 -3q27 -17 37 -39t10 -59q-2 -72 -2 -86q6 -157 6 -158q0 -41 -2.5 -115.5t-2.5 -103.5l-3 -126q2 -37 2 -49t-2 -29t-2 -22q4 -22 -18 -20q-28 2 -52 24q-9 8 -7 13q1 12 0.5 35.5t-0.5 34.5q1 36 3.5 150.5t3.5 177.5q0 20 -4 173.5
t-3 176.5z" />
    <glyph glyph-name="braceright" unicode="}" horiz-adv-x="310" 
d="M45 571l23 3q65 0 78 -72q7 -39 -4 -98q-41 -232 19 -263q5 -3 21 -9t21 -9q12 -10 11 -16.5t-8 -9.5l-7 -3q-6 -2 -16 -6.5t-28.5 -19.5t-22.5 -33q-4 -13 -1.5 -39.5t1 -60t-6.5 -63.5t-24 -49.5t-50 -18.5q-44 1 -41 16q0 2 1 3q5 6 17 8.5t19 12.5t6.5 35.5t-2.5 55
t-0.5 60t15 56.5t40.5 38q16 8 0 15q-36 25 -45.5 90t0 128.5t17 124t1.5 74.5q-9 22 -30.5 19.5t-26.5 6.5q-8 18 23 24z" />
    <glyph glyph-name="asciitilde" unicode="~" horiz-adv-x="472" 
d="M6 223q6 6 15 16t16.5 18t14.5 15q27 28 47.5 44.5t47.5 28t54 3.5t54 -37q10 -12 25 -33t24 -33.5t23 -26t26.5 -18.5t29.5 -4t36 12q16 20 29 18q8 -2 8 -14q-3 -3 -20.5 -22.5t-28.5 -25.5q-29 -8 -47.5 -6t-40 18t-35.5 32t-33 36t-33 30q-23 23 -46 25.5
t-45.5 -13.5t-37 -32t-33.5 -40q-4 -5 -6 -8q-4 -5 -8 -7t-8 0.5t-7.5 5.5t-9.5 8.5t-11 9.5z" />
    <glyph glyph-name="exclamdown" unicode="&#xa1;" horiz-adv-x="164" 
d="M57 351q-2 -21 -1 -25q22 -88 10 -173q-38 -254 4 -293q20 -20 76 2q2 100 6 286q0 14 -0.5 41.5t-0.5 41.5q1 64 -61 108q-3 3 -8 4.5t-12.5 3.5t-12.5 4zM127 412l-1 -3q-20 -16 -34 -10q-1 1 -10.5 6t-14 8.5t-11.5 8.5t-10 10.5t-2 10.5q3 16 10 33.5t14 18.5
q9 1 31.5 -5t29.5 -12q6 -5 -2 -55q-2 -12 0 -11z" />
    <glyph glyph-name="cent" unicode="&#xa2;" horiz-adv-x="427" 
d="M212 421q-8 -148 -8 -167q0 -2 -0.5 -14.5t0 -17t2 -12.5t5.5 -11.5t11 -3.5q36 0 76 22t65 54q15 20 38 2q26 -21 22.5 -60t-33.5 -55q-4 -2 -33.5 -18.5t-46.5 -23.5t-39 -13.5t-33 -10.5t-14 -9q-1 -4 1 -29t-5 -43t-30 -18q-16 2 -28.5 15t-11.5 27q5 23 0 48.5
t-28 37.5q-30 14 -60 49.5t-41 57.5q-44 92 -19 176q25 81 105 116q17 3 27 7t13.5 11.5t4 13t-1 17t-1.5 17.5q1 22 28 15.5t36 -28.5q3 -6 3 -12q0 -2 -0.5 -10t-0.5 -10.5t1 -8t4 -7.5t9 -3.5t14 -1.5q34 -12 72 -40q21 -16 29 -47t-3 -56q-5 -13 -22 -13t-26 16
q-5 9 -11.5 15t-15.5 10.5t-15 6t-19.5 5t-19.5 4.5zM143 417q-44 0 -59 -36q-3 -9 -5.5 -30t5 -57.5t31.5 -61.5q4 1 25 -20q9 -9 9 -5q3 22 -2 106t-4 104z" />
    <glyph glyph-name="sterling" unicode="&#xa3;" horiz-adv-x="359" 
d="M148 367q68 11 90 14q34 5 48 -12q19 -21 -13 -34q-36 -14 -75 -28q72 -88 1 -208q66 -10 91 14q37 -7 49 -38q7 -16 11 -50q2 -8 -4 -13t-18 -6q-13 -2 -41 -2q-8 0 -54 -1t-70 -4q-54 -8 -94 23q-27 21 -28.5 37t21.5 41q58 60 77 143q1 3 1 49q-86 -14 -96 -16
q-35 -7 -70 12t-28 41q4 13 26 17q12 3 35.5 5t28.5 3q20 2 37 4q-5 6 -25 34q-58 71 -55 131q1 20 13 56q18 49 111 65q28 5 67 -6.5t52 -29.5q16 -22 51 -86q5 -9 1 -18q-4 -11 -15 -13q-14 -4 -23 5q-29 27 -43 46q-15 22 -41 25t-48 -16q-63 -56 -21 -125q5 -9 13 -18
t20.5 -22.5t17.5 -18.5z" />
    <glyph glyph-name="currency" unicode="&#xa4;" horiz-adv-x="441" 
d="M370 257q10 -10 14 -12q31 -15 37 -67q1 -17 -10 -24t-27 -1q-5 2 -13 6.5t-12 5.5q-1 0 -9 3.5t-9.5 4.5t-8.5 3.5t-10 3t-9 2t-10 1t-9.5 -1t-11 -2t-10.5 -4.5q-14 -5 -45 -1q-38 2 -57.5 -9t-34.5 -45q-1 -2 -2.5 -9.5t-4 -10.5t-9.5 -2q-13 2 -22 21q-28 53 4 87
q3 3 6 8.5t5 7.5q14 13 5 33q-22 52 -28 78q-8 27 -6 64q0 25 -4.5 33.5t-26.5 19.5q-32 15 -42 57q-6 18 9 33q11 11 32 -3q10 -6 41 -32q17 -15 23.5 -16t25.5 9q51 31 105 10q25 -9 45 9q9 8 26 24.5t25 24.5q13 11 25 13t21 -6t13 -25q4 -12 7 -29q5 -24 -12 -32
q-18 -9 -22 -25t0 -33l12 -63q5 -26 -13 -94zM330 412l-13.5 -4.5t-14.5 -4.5t-12 -0.5t-15 4.5q-29 16 -63 10t-57 -31q-21 -24 -15.5 -54t33.5 -43q35 -20 68 -15t57 44q1 1 2.5 3t3 4.5t2.5 4.5q3 7 9.5 19.5t10 19t6.5 20.5t-2 23z" />
    <glyph glyph-name="yen" unicode="&#xa5;" horiz-adv-x="681" 
d="M539 535q35 104 83 110q29 3 43 -32q10 -27 0 -56q-16 -46 -70 -117.5t-102.5 -126t-49.5 -57.5q-38 -88 -4 -229q13 -60 3.5 -82.5t-46.5 -31.5q-33 2 -48 18.5t-20 48.5q-8 53 -8.5 92.5t2 57.5t12.5 57t14 61q-33 28 -63.5 75t-48 81.5t-42 55t-52.5 7.5
q-4 -25 -42 -19q-43 6 -63.5 37t7.5 66q40 51 85 58.5t83 -22.5t66 -88q8 -17 20 -43.5t20 -43t18.5 -37t19.5 -30.5t20 -17t23.5 -4.5t25.5 14.5q27 24 62 85t52 112zM268 51q-60 31 -16 39q23 5 74 5q28 0 55.5 -1t57.5 -3l45 -3q53 -3 54 -22q2 -15 -24 -20
q-13 -3 -28 -2q-28 2 -81 2.5t-91.5 1t-45.5 3.5zM266 168q-60 31 -16 39q23 5 74 5q28 0 55.5 -1t57.5 -3l45 -3q53 -3 54 -22q2 -15 -24 -20q-13 -3 -28 -2q-28 2 -81 2.5t-91.5 1t-45.5 3.5z" />
    <glyph glyph-name="brokenbar" unicode="&#xa6;" horiz-adv-x="112" 
d="M100 -144q-1 -19 -11 -25.5t-25 3.5q-27 16 -37.5 38t-10.5 59q2 58 1 86q0 12 -5 69.5t-3 88.5q2 22 22 31t39.5 6.5t18.5 -6.5q-1 -23 5 -178t6 -172zM-10 616q1 19 10.5 25t25.5 -3q27 -16 37.5 -38t10.5 -59v-86q0 -11 5 -69t3 -89q-1 -22 -21 -31t-39.5 -6.5
t-18.5 6.5q1 22 -6 177t-7 173z" />
    <glyph glyph-name="section" unicode="&#xa7;" horiz-adv-x="340" 
d="M307 47q50 -46 22 -107q-27 -57 -95 -92q-23 -13 -43 -10q-43 5 -73.5 26.5t-41.5 42.5t-7 32q1 3 4 4.5t8.5 1.5t10 -0.5t10.5 -1.5t8 -1q20 -3 30 -21q11 -26 35 -23q86 9 116 69q-12 20 -31.5 28.5t-50.5 14.5q-7 1 -21 -0.5t-20 -0.5q-37 7 -65 23.5t-42 37
t-23.5 43.5t-9 41t2.5 30q1 7 5 17q-30 13 -40 42q-18 54 -1 116q11 48 47 77t76 40q33 14 86 -16q70 -39 93 -80l6.5 -13t6.5 -14q12 -23 -7 -38q-5 -3 -19 -22q-20 8 -19 23q0 35 -43 67q-21 15 -51 27q-27 12 -80 -15q-40 -31 -45 -73q-3 -22 4 -32.5t30 -15.5
q15 -3 51 -8.5t55 -9.5q66 -15 86 -34q49 -47 22 -107q-10 -21 -31 -44q27 -9 44 -24zM81 147q-2 -22 5 -32.5t30 -15.5q12 -2 35 -5.5t34 -5.5q5 3 18.5 9.5t20 10t15.5 9.5t12.5 12t3.5 13t-2.5 12.5t-8.5 9.5t-11 7t-14.5 5.5t-15 3.5t-16 2.5t-14.5 2.5q-6 1 -20 -0.5
t-21 -0.5q-17 2 -61 8q14 -24 10 -45z" />
    <glyph glyph-name="dieresis" unicode="&#xa8;" horiz-adv-x="379" 
d="M129 635q40 9 49 -30q2 -9 7 -54h-2q0 -5 -0.5 -14t-0.5 -14q-1 -17 -20 -20q-24 -3 -70 -11q-26 -5 -30 17q-12 57 -15 89q-2 22 25 25q28 5 57 12zM344 607q1 -2 7 -36q-1 -4 -3.5 -16.5t-6 -20.5t-9.5 -11q-17 -10 -76 -12q-4 -1 -10.5 6.5t-8.5 13.5q-11 40 -14 77
q-1 19 5.5 25.5t26.5 8.5q22 3 23 3q29 7 44 -1.5t22 -36.5z" />
    <glyph glyph-name="copyright" unicode="&#xa9;" horiz-adv-x="717" 
d="M369 473q-39 16 -69.5 4t-44.5 -43t-21 -69.5t2 -74.5q33 -41 91 -32q118 16 173 111q24 40 36 59q25 -16 30.5 -27.5t0.5 -33.5q-14 -67 -70 -153q-4 -7 -18 -19q-58 -47 -134.5 -40.5t-123.5 64.5q-12 15 -26 38.5t-27.5 66.5t-11.5 82q2 23 11.5 51.5t27.5 59t49.5 52
t70.5 23.5q43 2 69 -49q21 -41 9 -64q-7 -13 -24 -6zM701 415q34 -141 -33 -257q-67 -113 -185 -143q-109 -27 -232 9q-71 22 -112 54q-47 36 -83 101q-70 123 -42 245q17 74 50.5 141t78.5 92q107 58 264 55q56 -1 117 -33.5t106 -81.5q11 -12 7 -26.5t-16.5 -18.5t-24.5 6
q-38 39 -89 68.5t-94 30.5q-99 3 -224 -53q-40 -18 -71.5 -65t-49.5 -103q-32 -100 10 -190q34 -73 72 -109q39 -36 105 -57q126 -39 224 -9q117 34 164 150q24 61 19.5 126t-34.5 121q-8 14 -0.5 27t20 13.5t22.5 -12.5q21 -41 31 -81z" />
    <glyph glyph-name="ordfeminine" unicode="&#xaa;" horiz-adv-x="218" 
d="M211 529q5 14 16 2q13 -15 6 -29q-6 -10 -16.5 -21.5t-24.5 -22.5t-30.5 -10.5t-28.5 16.5q-1 1 -3 5.5t-4.5 8t-5 6.5t-6 2.5t-6.5 -4.5q-3 -3 -10 -10.5t-10.5 -11t-11 -9.5t-12.5 -7t-14.5 -3t-16.5 3l-2 1q-27 17 -31 64q-5 95 93 128q32 10 43 -23q3 -19 -18 -24
q-35 -11 -61 -32t-26 -52q-1 -7 8.5 -9t20 -0.5t13.5 5.5q8 10 13.5 15.5t7.5 8t5.5 9.5t12.5 27q10 21 30 9q14 -9 9 -15q-3 -4 -6 -22.5t-2 -23.5q13 -50 43 -20q9 9 25 39z" />
    <glyph glyph-name="guillemotleft" unicode="&#xab;" horiz-adv-x="557" 
d="M112 251q126 -61 127 -62q21 -9 33 -14.5t22 -13t13 -11t5.5 -13.5t2 -16.5t-0.5 -23.5v-31q0 -1 -5 -11q-10 0 -11 1q-14 11 -33.5 22t-30.5 16t-38.5 16t-33.5 14q-43 19 -114 61q-37 21 -41 92q0 10 10 20q39 40 114 119t112 117q1 1 5.5 6t6.5 6.5t6.5 4t9 2
t9.5 -3.5q19 -9 22 -38q3 -46 -26 -74q-16 -15 -41.5 -47.5t-31.5 -39.5q-8 -9 -25.5 -24.5t-24.5 -23.5q-16 -17 -41 -50zM340 268q126 -61 127 -62q21 -9 33 -14.5t22 -13t13 -11t5.5 -13.5t2 -16.5t-0.5 -23.5v-31q0 -1 -5 -11q-10 0 -11 1q-14 11 -33.5 22t-30.5 16
t-38.5 16t-33.5 14q-43 19 -114 61q-37 21 -41 92q0 10 10 20q39 40 114 119t112 117q1 1 5.5 6t6.5 6.5t6.5 4t9 2t9.5 -3.5q19 -9 22 -38q3 -46 -26 -74q-16 -15 -41.5 -47.5t-31.5 -39.5q-8 -9 -25.5 -24.5t-24.5 -23.5q-16 -17 -41 -50z" />
    <glyph glyph-name="logicalnot" unicode="&#xac;" horiz-adv-x="393" 
d="M32 394q-6 1 -14 12t-10.5 21.5t1.5 13.5q-2 4 0.5 9t9.5 6q52 2 266 -4q4 0 29.5 3t41.5 0.5t22 -14.5q1 -1 1 -19l-6 -114q-3 -9 -12.5 -8t-20 7.5t-11.5 11.5q-1 15 -1 30t0.5 21t-0.5 13q-31 -2 -58.5 -3t-45.5 -1t-46 2t-40 3t-50.5 4.5t-55.5 5.5z" />
    <glyph glyph-name="uni00AD" unicode="&#xad;" horiz-adv-x="304" 
d="M5 294q-10 4 -6.5 13t13.5 6l6 -2q-4 11 11 15q7 0 23 -7q2 -1 3 -1h2h-2q1 0 2 -1h4q14 0 21 -1h54q55 1 136 -6q6 -2 7.5 -8t-2.5 -10h7q8 -2 8 -10.5t-9 -9.5q-63 -12 -141.5 -9.5t-136.5 31.5zM57 318q1 0 1 -0.5t1 -0.5h2q-1 0 -2 0.5t-2 0.5z" />
    <glyph glyph-name="registered" unicode="&#xae;" horiz-adv-x="717" 
d="M518 259q-78 -12 -116 -20q-12 -3 -36 -13t-29 -12q6 -49 7 -68q0 -5 -4.5 -15t-5.5 -12q-3 2 -8.5 4.5t-10 5t-6.5 5.5q-39 63 -46 157q-5 58 -4 75q0 47 -24 119q-9 27 -4 43t28 32q34 25 93 25q22 -1 38.5 -15t24.5 -37q31 -83 3 -137q-2 -4 -3.5 -12.5t-2.5 -13.5
q9 1 42 5t50 6q24 2 36 -6t21 -30q4 -10 6 -23q4 -31 -6.5 -44.5t-42.5 -18.5zM323 387q27 34 38 76q-38 -2 -45 -16t7 -60zM696 409q34 -141 -33 -257q-67 -113 -185 -143q-109 -27 -232 9q-71 22 -112 54q-47 36 -83 101q-70 123 -42 245q17 74 50.5 141t78.5 92
q107 58 264 55q56 -1 117 -33.5t106 -81.5q11 -12 7 -26.5t-16.5 -18.5t-24.5 6q-38 39 -89 68.5t-94 30.5q-99 3 -224 -53q-40 -18 -71.5 -65t-49.5 -103q-32 -100 10 -190q34 -73 72 -109q39 -36 105 -57q126 -39 224 -9q117 34 164 150q24 61 19.5 126t-34.5 121
q-8 14 -0.5 27t20 13.5t22.5 -12.5q21 -41 31 -81z" />
    <glyph glyph-name="degree" unicode="&#xb0;" horiz-adv-x="214" 
d="M117 503q11 -8 29 -20l24 -16q28 -20 35.5 -41t-1.5 -53q-10 -34 -29 -65q-15 -24 -41 -32t-52 2q-48 18 -67 47q-29 46 -10 98t71 68q8 3 22.5 7t18.5 5zM155 421q-41 9 -48 12q-19 8 -28.5 5t-18.5 -21q-11 -22 -12 -32q0 -24 9 -32q23 -18 51 -26q8 -2 19.5 2t15.5 10
q32 54 12 82z" />
    <glyph glyph-name="plusminus" unicode="&#xb1;" horiz-adv-x="288" 
d="M118 420q0 33 15 36q14 2 24 -31q6 -24 8 -61v-46q61 -2 89 -7q13 -3 27 -20q16 -23 -14 -24q-5 -1 -11 0q-25 2 -91 2q-1 -22 -1 -63q-1 -53 -20 -55q-13 -2 -21 20q-4 14 -3 31q1 19 1 67q-74 0 -83 5q-60 31 -16 39q23 5 74 5h24q-2 98 -2 102zM28 56q-60 31 -16 39
q23 5 74 5q28 0 55.5 -1t57.5 -3l45 -3q53 -3 54 -22q2 -15 -24 -20q-13 -3 -28 -2q-28 2 -81 2.5t-91.5 1t-45.5 3.5z" />
    <glyph glyph-name="twosuperior" unicode="&#xb2;" horiz-adv-x="166" 
d="M1 337q-23 21 -8 51q29 61 79 141q11 15 29 57q7 15 -2 21q-11 10 -24 -2q-22 -22 -33 -39l-12 -33q-2 -6 -6 -8q-6 0 -9 5q-12 13 -10 36q1 54 53 90q21 13 34 4q18 -14 29 -33q2 -3 10 -30q8 -32 -9 -67q-10 -21 -60 -105q-2 -3 -10 -20q11 3 31.5 10t29.5 10
q3 1 11 3.5t13 3.5q17 5 22 -12q1 -3 6 -28q1 -4 -1 -7t-6 -2q-12 1 -23 -1.5t-26 -8.5t-21 -8q-7 -2 -18.5 -7.5t-15.5 -7.5l-33 -9q-3 -1 -10 -2t-10 -2z" />
    <glyph glyph-name="threesuperior" unicode="&#xb3;" horiz-adv-x="158" 
d="M134 491q-16 7 -46 -2q-8 -2 -23.5 -9.5t-17.5 -8.5q-12 12 -16 36q0 9 5 17q18 30 27 46l6 12q-20 -5 -39 -20q-2 -2 -7 -5t-7 -5q-12 -8 -17 4q-4 7 -8 23q0 7 4 11q53 44 102 49q14 1 19.5 -3t8.5 -19q3 -24 -11 -37q-16 -14 -29 -49q10 -2 13 -2q7 -1 20 -1
q21 -3 30.5 -18.5t3.5 -37.5q-10 -38 -22 -53q-11 -15 -26 -30q-8 -7 -24 -11q-17 -5 -51 -11q-3 -1 -13 2q-7 3 -8 9t4 11q7 5 25 12l12 3t12 4q25 8 43 36q6 8 16 24t14 23z" />
    <glyph glyph-name="acute" unicode="&#xb4;" horiz-adv-x="178" 
d="M135 714q30 -32 35 -89q-57 -33 -89 -118q0 -1 -1.5 -4t-2 -4.5t-1.5 -4t-2 -3.5t-2 -3t-2.5 -3t-3.5 -2l-4 -2t-5 -1q-25 -4 -29 21q-5 37 -5.5 50.5t1 45t14.5 58.5t36 57q13 16 30 16.5t31 -14.5z" />
    <glyph glyph-name="mu" unicode="&#xb5;" horiz-adv-x="298" 
d="M117 45q41 -10 57 18.5t13 77.5q1 17 -4 72t-4 71q1 19 33 16q39 -5 54 -33q6 -10 6 -21q2 -28 2 -74t2.5 -84t11.5 -74q8 -29 -24 -45q-26 -1 -42 33q-6 -20 -30 -35.5t-49 -10.5q-15 3 -28.5 13t-19 17.5t-22.5 29.5q-2 -89 -3 -102q0 -22 -5 -34q-5 -11 -14.5 -13
t-17.5 6q-7 8 -11 15t-8 17t-8 17q-16 29 -16 60q1 34 11 196q2 25 -2.5 78.5t-1.5 79.5q3 18 3 19q5 15 15.5 18.5t21.5 -6.5q31 -30 45 -57t6 -63q-6 -24 -8.5 -62.5t5.5 -82.5t32 -57z" />
    <glyph glyph-name="paragraph" unicode="&#xb6;" horiz-adv-x="426" 
d="M419 449q7 -17 0 -33q-6 -12 -32 -2q-20 8 -31 13q0 -26 -5 -106q-2 -24 5 -53.5t8 -40.5q1 -25 -2 -99.5t-6 -89.5q-3 -14 -20 -22.5t-30 -4.5q-7 2 -9.5 14t-1.5 26.5t0 29.5q-1 12 0.5 28.5t4.5 42.5t4 41q4 17 0 49t-4 36q-1 25 -1 167q-2 0 -8.5 1.5t-11.5 2.5v-139
q0 -129 -3 -130q-24 -92 -20 -163q2 -28 -1 -51q-5 -31 -31 -11q-47 33 -45 87q1 21 8 118q5 69 1 71q-102 15 -119 31q-56 49 -64 114q-11 89 57 132q29 19 81 37t83 14q109 -16 169 -79q19 -19 24 -31zM193 303q17 91 1 137q-3 2 -6 2t-11 -3l-8 -3q-22 -6 -34 -26
t-13 -40.5t7 -38.5t24 -22q30 -9 40 -6z" />
    <glyph glyph-name="periodcentered" unicode="&#xb7;" horiz-adv-x="178" 
d="M124 215q-7 -1 -36 -5q-4 2 -16 5t-20 7t-11 10q-9 20 -7 77q-1 4 7 10t14 7q35 8 77 10q20 0 26 -7t7 -27q0 -16 1 -23q5 -30 -4 -44t-38 -20z" />
    <glyph glyph-name="cedilla" unicode="&#xb8;" horiz-adv-x="186" 
d="M125 7l-3 -4q-3 -4 -4 -8t-1.5 -10t4.5 -13.5t15 -15.5q19 -17 32 -36.5t16 -42t-18 -37.5q-32 -24 -74 -29t-69 16q-16 13 -19.5 33.5t14.5 23.5q32 2 41 -27q4 -13 19.5 -18.5t34.5 10.5q19 19 18 43.5t-20 48.5q-33 45 -36 58q-1 12 8 20q11 8 20.5 5.5t16.5 -9
t5 -8.5z" />
    <glyph glyph-name="onesuperior" unicode="&#xb9;" horiz-adv-x="82" 
d="M54 347q-2 1 -4 1.5t-3.5 1l-3 1t-2.5 1.5q-23 21 -20 44q1 6 1 17t1 16q2 20 5.5 58t5.5 53q-4 -1 -11.5 -3.5l-10.5 -3.5q-11 7 -7 22q8 32 43 77q1 4 7 6q10 2 13 1q5 -2 9 -17.5t0 -19.5q-7 -10 -3 -23q4 -9 1 -21q-12 -49 -18 -134q-5 -53 -2 -68q0 -4 -1 -9z" />
    <glyph glyph-name="ordmasculine" unicode="&#xba;" horiz-adv-x="222" 
d="M123 491q11 -8 29 -20l24 -16q28 -20 35.5 -41t-1.5 -53q-10 -34 -29 -65q-15 -24 -41 -32t-52 2q-48 18 -67 47q-29 46 -10 98t71 68q8 3 22.5 7t18.5 5zM161 409q-41 9 -48 12q-19 8 -28.5 5t-18.5 -21q-11 -22 -12 -32q0 -24 9 -32q23 -18 51 -26q8 -2 19.5 2t15.5 10
q32 54 12 82z" />
    <glyph glyph-name="guillemotright" unicode="&#xbb;" horiz-adv-x="575" 
d="M458 248q-27 37 -42 52q-7 8 -25 24.5t-26 26.5q-9 11 -34 43.5t-41 48.5q-31 31 -26 78q3 29 22 40q6 3 10.5 3t9 -2t6.5 -4t6.5 -7t5.5 -6q38 -40 115 -123.5t117 -125.5q10 -10 10 -21q-4 -75 -42 -97q-73 -44 -117 -64q-5 -2 -34 -14.5t-39.5 -17.5t-30.5 -16.5
t-35 -23.5q-1 -1 -12 -1q-5 10 -5 12v32t-0.5 25t2 17.5t6 14t13.5 11.5t22 13.5t34 15.5q23 10 130 66zM225 266q-25 33 -42 52q-8 8 -25.5 24.5t-26.5 26.5q-3 3 -30.5 39t-44.5 52q-29 30 -26 78q3 30 22 41q6 3 10.5 3t9 -2t6.5 -4t6.5 -7t5.5 -6q38 -40 115 -123.5
t117 -125.5q10 -10 10 -21q-4 -75 -42 -97q-73 -44 -117 -64q-5 -2 -34 -14.5t-39.5 -17.5t-30.5 -16.5t-35 -23.5q-1 -1 -11 -1l-6 12q-2 25 0 43t1 28t8.5 19.5t23.5 17.5t44 21q13 6 131 66z" />
    <glyph glyph-name="onequarter" unicode="&#xbc;" horiz-adv-x="393" 
d="M76 142l-18 9q-34 34 -30 75q2 36 4 55q9 107 15 188q-11 -4 -31 -12q-17 11 -11 37q10 51 62 131q4 9 10 10q12 5 18 1q8 -3 14 -28.5t1 -34.5q-12 -18 -5 -37q5 -19 2 -36q-17 -74 -27 -227q-7 -85 -3 -114q1 -2 -1 -17zM236 601q4 11 10.5 12.5t12.5 -7.5
q2 -3 3.5 -6.5t3 -6.5t1.5 -7t0.5 -6t-0.5 -7t-1 -6.5t-2 -7.5l-2.5 -7.5t-2.5 -8t-3 -8.5q-14 -41 -17 -53q-23 -85 -28 -99q-3 -11 -45 -136q-3 -8 -11.5 -36t-14.5 -42q-13 -55 -38 -62q-13 -4 -15 11q-1 7 4 17q2 6 6.5 21t7.5 23q61 185 66 202q4 12 32 109t33 111z
M365 49q-21 15 -23 45q-3 34 -3 100v32q-37 -13 -63 -32q-4 -3 -53 -49q-37 35 -18 86l66 198q18 50 41 109q1 4 7 8.5t8 2.5q15 -6 15 -19q0 -2 1 -18t1 -22t-2.5 -17.5t-8.5 -19.5q-4 -5 -8 -18t-5 -16l-51 -144q-3 -9 -7 -25q36 18 40 19q55 15 55 74q0 5 3.5 13t3.5 9
q24 -6 25 -31q1 -14 2 -41t1 -41q0 -13 -3 -16q-14 -19 -16 -47.5t1 -50.5q2 -60 -9 -89z" />
    <glyph glyph-name="onehalf" unicode="&#xbd;" horiz-adv-x="421" 
d="M76 142l-18 9q-34 34 -30 75q2 36 4 55q9 107 15 188q-11 -4 -31 -12q-17 11 -11 37q10 51 62 131q4 9 10 10q12 5 18 1q8 -3 14 -28.5t1 -34.5q-12 -18 -5 -37q5 -19 2 -36q-17 -74 -27 -227q-7 -85 -3 -114q1 -2 -1 -17zM236 601q4 11 10.5 12.5t12.5 -7.5
q2 -3 3.5 -6.5t3 -6.5t1.5 -7t0.5 -6t-0.5 -7t-1 -6.5t-2 -7.5l-2.5 -7.5t-2.5 -8t-3 -8.5q-14 -41 -17 -53q-23 -85 -28 -99q-3 -11 -45 -136q-3 -8 -11.5 -36t-14.5 -42q-13 -55 -38 -62q-13 -4 -15 11q-1 7 4 17q2 6 6.5 21t7.5 23q61 185 66 202q4 12 32 109t33 111z
M238 70q-27 25 -9 63q40 83 98 173q11 15 36 71q9 18 -3 25q-13 12 -30 -2q-23 -21 -40 -48q-1 -1 -15 -41q-3 -9 -7 -9q-6 -2 -11 5q-15 16 -13 45q1 67 66 111q24 18 41 5q22 -16 36 -41q3 -4 13 -37q10 -39 -11 -82q-14 -29 -75 -130q-4 -6 -12 -25l75 25q22 6 30 8
q21 7 27 -14q2 -6 4.5 -17.5t3.5 -16.5t-1 -9t-8 -3q-14 2 -28 -1t-32.5 -11t-26.5 -10t-22 -9t-20 -9q-13 -5 -41 -11q-8 -3 -25 -5z" />
    <glyph glyph-name="threequarters" unicode="&#xbe;" horiz-adv-x="399" 
d="M236 601q4 11 10.5 12.5t12.5 -7.5q2 -3 3.5 -6.5t3 -6.5t1.5 -7t0.5 -6t-0.5 -7t-1 -6.5t-2 -7.5l-2.5 -7.5t-2.5 -8t-3 -8.5q-14 -41 -17 -53q-23 -85 -28 -99q-3 -11 -45 -136q-3 -8 -11.5 -36t-14.5 -42q-13 -55 -38 -62q-13 -4 -15 11q-1 7 4 17q2 6 6.5 21t7.5 23
q61 185 66 202q4 12 32 109t33 111zM365 49q-21 15 -23 45q-3 34 -3 100v32q-37 -13 -63 -32q-4 -3 -53 -49q-37 35 -18 86l66 198q18 50 41 109q1 4 7 8.5t8 2.5q15 -6 15 -19q0 -2 1 -18t1 -22t-2.5 -17.5t-8.5 -19.5q-4 -5 -8 -18t-5 -16l-51 -144q-3 -9 -7 -25
q36 18 40 19q55 15 55 74q0 5 3.5 13t3.5 9q24 -6 25 -31q1 -14 2 -41t1 -41q0 -13 -3 -16q-14 -19 -16 -47.5t1 -50.5q2 -60 -9 -89zM138 441q-7 3 -12.5 4.5t-13.5 0.5t-10.5 -1.5t-12.5 -3.5l-10 -3q-11 -4 -52 -23q-17 17 -20 46q-1 8 5 22q31 51 35 59q2 2 4 7t4 8
q-28 -7 -51 -25q-8 -8 -17 -14q-17 -8 -23 6q-6 13 -9 29q-2 8 5 15q67 55 131 63q18 2 25 -3.5t11 -25.5q5 -31 -14 -47q-21 -19 -37 -64q14 -2 17 -2q8 -1 26 -1q26 -4 38.5 -24t5.5 -48q-15 -51 -29 -68q-19 -24 -34 -38q-10 -9 -30 -15q-30 -8 -67 -13q-7 -1 -17 2
q-8 4 -9.5 12t5.5 14q10 7 32 15q6 2 16.5 4.5t14.5 3.5q30 10 55 47q8 12 38 61z" />
    <glyph glyph-name="questiondown" unicode="&#xbf;" horiz-adv-x="320" 
d="M23 -91q-41 117 29 256q12 23 27 49t35.5 59t30.5 50q39 8 59 -12q56 -54 14 -115q-44 -64 -61 -92q-64 -109 -48 -217q2 -13 4 -19.5t9 -14t20 -9.5t30.5 9.5t30.5 30.5q35 54 35 112q-1 9 -1 27q33 0 53.5 -12.5t21.5 -34.5q12 -123 -97 -204q-34 -26 -76.5 -22
t-60.5 36q-32 57 -55 123zM140 385q-25 -15 -35 -3q-20 20 -21 39q-2 19 27.5 65.5t48.5 56.5q21 12 31 -6q12 -17 38 -68q0 -26 -20 -39z" />
    <glyph glyph-name="Agrave" unicode="&#xc0;" horiz-adv-x="513" 
d="M20 155q-7 -30 -24 -95q-5 -20 12.5 -38t44.5 -26q12 9 35 97t33 92q5 1 17 5t17 5q10 3 30.5 9.5t30.5 9.5q17 4 50 15t50 15q18 5 24.5 1.5t11.5 -19.5q20 -57 33 -102q19 -69 69 -135q7 -12 26 -27q11 -7 20 -3.5t11 17.5q3 24 -13 40q-36 38 -54 85q-8 24 -24.5 68
t-21.5 60q0 1 -0.5 4.5t-1.5 4.5q-6 19 12 30q28 20 55 25q59 13 78 29q20 16 9 40q-5 13 -30 13q-4 0 -22 -5q-80 -15 -131 -23q-2 3 -6.5 11.5t-6.5 13.5q-4 9 -31.5 78.5t-43.5 105.5q-4 10 -67 133q-10 22 -30 18q-14 -3 -20 -23q-1 -2 -1 -3q-1 -5 -15.5 -50t-20.5 -69
q-39 -154 -61 -264q-12 -57 -63 -65q-5 -1 -17 -3.5t-18 -4.5q-17 -3 -31 -10q-26 -12 -16 -38q12 -35 58 -29q2 0 43 7zM150 278q-9 -3 11.5 53t49 116.5t38.5 70.5q1 -2 10 -27q36 -90 51 -135q5 -15 2 -21t-17 -11q-27 -8 -76.5 -24t-68.5 -22zM193 614q3 -5 3.5 -9.5
t-1.5 -9t-3.5 -7t-5.5 -7.5t-5 -7q-1 0 -3 0.5t-3 0.5q5 25 10 39h8zM111 884q22 14 41.5 18t52.5 1q22 -62 100 -108q1 -1 4 -2.5l4 -2t3.5 -2t3.5 -2.5t2.5 -3t2.5 -3.5t2 -3.5t1 -4.5v-5.5q0 -6 -3 -10.5t-5.5 -6t-9.5 -4.5t-8 -3q-59 -25 -81 -21t-68 48q-13 13 -51 55
q-13 16 -10.5 32.5t19.5 27.5z" />
    <glyph glyph-name="Aacute" unicode="&#xc1;" horiz-adv-x="513" 
d="M20 155q-7 -30 -24 -95q-5 -20 12.5 -38t44.5 -26q12 9 35 97t33 92q5 1 17 5t17 5q10 3 30.5 9.5t30.5 9.5q17 4 50 15t50 15q18 5 24.5 1.5t11.5 -19.5q20 -57 33 -102q19 -69 69 -135q7 -12 26 -27q11 -7 20 -3.5t11 17.5q3 24 -13 40q-36 38 -54 85q-8 24 -24.5 68
t-21.5 60q0 1 -0.5 4.5t-1.5 4.5q-6 19 12 30q28 20 55 25q59 13 78 29q20 16 9 40q-5 13 -30 13q-4 0 -22 -5q-80 -15 -131 -23q-2 3 -6.5 11.5t-6.5 13.5q-4 9 -31.5 78.5t-43.5 105.5q-4 10 -67 133q-10 22 -30 18q-14 -3 -20 -23q-1 -2 -1 -3q-1 -5 -15.5 -50t-20.5 -69
q-39 -154 -61 -264q-12 -57 -63 -65q-5 -1 -17 -3.5t-18 -4.5q-17 -3 -31 -10q-26 -12 -16 -38q12 -35 58 -29q2 0 43 7zM150 278q-9 -3 11.5 53t49 116.5t38.5 70.5q1 -2 10 -27q36 -90 51 -135q5 -15 2 -21t-17 -11q-27 -8 -76.5 -24t-68.5 -22zM193 614q3 -5 3.5 -9.5
t-1.5 -9t-3.5 -7t-5.5 -7.5t-5 -7q-1 0 -3 0.5t-3 0.5q5 25 10 39h8zM197 904q30 -32 35 -89q-57 -33 -89 -118q0 -1 -1.5 -4t-2 -4.5t-1.5 -4t-2 -3.5t-2 -3t-2.5 -3t-3.5 -2l-4 -2t-5 -1q-25 -4 -29 21q-5 37 -5.5 50.5t1 45t14.5 58.5t36 57q13 16 30 16.5t31 -14.5z" />
    <glyph glyph-name="Acircumflex" unicode="&#xc2;" horiz-adv-x="513" 
d="M77 753q-5 -1 -7 6q-7 20 2 32q2 2 4 3q40 25 72 32q12 2 16 -13q4 -12 -6 -13q-3 -2 -20 -14.5t-31.5 -20.5t-29.5 -12zM302 756q-15 4 -29.5 11.5t-32.5 21t-20 14.5q-7 1 -7 8.5t5 13.5t12 5q16 -3 29 -8t19 -8.5t15 -9t11 -6.5q11 -4 7 -28q-3 -14 -9 -14zM20 155
q-41 -7 -43 -7q-46 -6 -58 29q-10 26 16 38q14 7 31 10q6 2 18 4.5t17 3.5q51 8 63 65q22 110 61 264q4 18 10.5 38t14 43.5t11.5 37.5q0 1 1 3q6 20 20 23q20 4 30 -18q63 -123 67 -133q16 -36 43.5 -105.5t31.5 -78.5q2 -5 6.5 -13.5t6.5 -11.5q51 8 131 23q18 5 22 5
q25 0 30 -13q11 -24 -9 -40q-19 -16 -78 -29q-27 -5 -55 -25q-18 -11 -12 -30q1 -1 1.5 -4.5t0.5 -4.5q5 -16 21.5 -60t24.5 -68q18 -47 54 -85q16 -16 13 -40q-2 -14 -11 -17.5t-20 3.5q-19 15 -26 27q-50 66 -69 135q-13 45 -33 102q-5 16 -11.5 19.5t-24.5 -1.5
q-17 -4 -50 -15t-50 -15q-10 -3 -30.5 -9.5t-30.5 -9.5q-5 -1 -17 -5t-17 -5q-10 -4 -33 -92t-35 -97q-27 8 -44.5 26t-12.5 38q17 65 24 95zM150 278q19 6 68.5 22t76.5 24q14 5 17 11t-2 21q-15 45 -51 135q-9 25 -10 27q-19 -19 -72 -147q-40 -97 -27 -93zM193 614h-8
q-5 -14 -10 -39q1 0 3 -0.5t3 -0.5q1 2 5 7t5.5 7.5t3.5 7t1.5 9t-3.5 9.5z" />
    <glyph glyph-name="Atilde" unicode="&#xc3;" horiz-adv-x="513" 
d="M20 155q-41 -7 -43 -7q-46 -6 -58 29q-10 26 16 38q14 7 31 10q6 2 18 4.5t17 3.5q51 8 63 65q22 110 61 264q4 18 10.5 38t14 43.5t11.5 37.5q0 1 1 3q6 20 20 23q20 4 30 -18q63 -123 67 -133q16 -36 43.5 -105.5t31.5 -78.5q2 -5 6.5 -13.5t6.5 -11.5q51 8 131 23
q18 5 22 5q25 0 30 -13q11 -24 -9 -40q-19 -16 -78 -29q-27 -5 -55 -25q-18 -11 -12 -30q1 -1 1.5 -4.5t0.5 -4.5q5 -16 21.5 -60t24.5 -68q18 -47 54 -85q16 -16 13 -40q-2 -14 -11 -17.5t-20 3.5q-19 15 -26 27q-50 66 -69 135q-13 45 -33 102q-5 16 -11.5 19.5
t-24.5 -1.5q-17 -4 -50 -15t-50 -15q-10 -3 -30.5 -9.5t-30.5 -9.5q-5 -1 -17 -5t-17 -5q-10 -4 -33 -92t-35 -97q-27 8 -44.5 26t-12.5 38q17 65 24 95zM150 278q19 6 68.5 22t76.5 24q14 5 17 11t-2 21q-15 45 -51 135q-9 25 -10 27q-19 -19 -72 -147q-40 -97 -27 -93z
M193 614h-8q-5 -14 -10 -39q1 0 3 -0.5t3 -0.5q1 2 5 7t5.5 7.5t3.5 7t1.5 9t-3.5 9.5zM63 760q28 25 29 26q30 28 41 34q48 26 87 -12l46 -46q4 -4 14 -12q14 -10 22 -10t22 10q10 8 16 11h6q0 -1 1 -3q1 -3 0 -4q-20 -18 -31 -24q-24 -13 -45 3q-20 16 -44 40q-5 4 -28 27
q-32 28 -64 2q-25 -22 -43 -41q-11 -13 -29 -1z" />
    <glyph glyph-name="Adieresis" unicode="&#xc4;" horiz-adv-x="513" 
d="M20 155q-7 -30 -24 -95q-5 -20 12.5 -38t44.5 -26q12 9 35 97t33 92q5 1 17 5t17 5q10 3 30.5 9.5t30.5 9.5q17 4 50 15t50 15q18 5 24.5 1.5t11.5 -19.5q20 -57 33 -102q19 -69 69 -135q7 -12 26 -27q11 -7 20 -3.5t11 17.5q3 24 -13 40q-36 38 -54 85q-8 24 -24.5 68
t-21.5 60q0 1 -0.5 4.5t-1.5 4.5q-6 19 12 30q28 20 55 25q59 13 78 29q20 16 9 40q-5 13 -30 13q-4 0 -22 -5q-80 -15 -131 -23q-2 3 -6.5 11.5t-6.5 13.5q-4 9 -31.5 78.5t-43.5 105.5q-4 10 -67 133q-10 22 -30 18q-14 -3 -20 -23q-1 -2 -1 -3q-1 -5 -15.5 -50t-20.5 -69
q-39 -154 -61 -264q-12 -57 -63 -65q-5 -1 -17 -3.5t-18 -4.5q-17 -3 -31 -10q-26 -12 -16 -38q12 -35 58 -29q2 0 43 7zM150 278q-9 -3 11.5 53t49 116.5t38.5 70.5q1 -2 10 -27q36 -90 51 -135q5 -15 2 -21t-17 -11q-27 -8 -76.5 -24t-68.5 -22zM193 614q3 -5 3.5 -9.5
t-1.5 -9t-3.5 -7t-5.5 -7.5t-5 -7q-1 0 -3 0.5t-3 0.5q5 25 10 39h8zM133 859q40 9 49 -30q2 -9 7 -54h-2q0 -5 -0.5 -14t-0.5 -14q-1 -17 -20 -20q-24 -3 -70 -11q-26 -5 -30 17q-12 57 -15 89q-2 22 25 25q28 5 57 12zM348 831q1 -2 7 -36q-1 -4 -3.5 -16.5t-6 -20.5
t-9.5 -11q-17 -10 -76 -12q-4 -1 -10.5 6.5t-8.5 13.5q-11 40 -14 77q-1 19 5.5 25.5t26.5 8.5q22 3 23 3q29 7 44 -1.5t22 -36.5z" />
    <glyph glyph-name="Aring" unicode="&#xc5;" horiz-adv-x="513" 
d="M200 801q2 -2 12 -8t14 -10q26 -17 17 -45q-4 -14 -14 -31q-8 -11 -19 -15l2 -3q63 -123 67 -133q16 -36 43.5 -105.5t31.5 -78.5q2 -5 6.5 -13.5t6.5 -11.5q51 8 131 23q18 5 22 5q25 0 30 -13q11 -24 -9 -40q-19 -16 -78 -29q-27 -5 -55 -25q-18 -11 -12 -30
q1 -1 1.5 -4.5t0.5 -4.5q5 -16 21.5 -60t24.5 -68q18 -47 54 -85q16 -16 13 -40q-2 -14 -11 -17.5t-20 3.5q-19 15 -26 27q-50 66 -69 135q-13 45 -33 102q-5 16 -11.5 19.5t-24.5 -1.5q-17 -4 -50 -15t-50 -15l-61 -19l-34 -10q-10 -4 -33 -92t-35 -97q-27 8 -44.5 26
t-12.5 38q17 65 24 95q-41 -7 -43 -7q-46 -6 -58 29q-10 26 16 38q14 7 31 10l35 8q51 8 63 65q22 110 61 264q4 18 10.5 38t14 43.5t11.5 37.5q5 14 7 17q-12 6 -19 17q-14 22 -4.5 47.5t35.5 32.5q4 2 11 3.5t9 2.5zM150 278q19 6 68.5 22t76.5 24q14 5 17 11t-2 21
q-15 45 -51 135q-9 25 -10 27q-19 -19 -72 -147q-40 -97 -27 -93zM219 762q-10 1 -24 5q-17 6 -23 -7q-6 -10 -6 -16q0 -11 4 -16q13 -9 26 -12q4 -1 10 1t7 5q16 26 6 40zM193 614h-8q-5 -14 -10 -39q1 0 3 -0.5t3 -0.5q1 2 5 7t5.5 7.5t3.5 7t1.5 9t-3.5 9.5z" />
    <glyph glyph-name="AE" unicode="&#xc6;" horiz-adv-x="695" 
d="M425 1q-3 -7 0.5 -16t5 -13.5t-7.5 -12.5q-6 -4 -12.5 -3.5t-9.5 2.5t-9.5 6.5t-8.5 6.5q-21 15 -46 6q-34 -11 -60 -12q-34 -5 -44 8q-16 18 -30 62q-1 4 6.5 11t14.5 9q11 4 86 23q0 7 0.5 36.5t0 44.5t-3.5 38.5t-9 41.5q-11 -3 -38.5 -12t-43.5 -13l-61 -19l-34 -10
q-10 -4 -33 -92t-35 -97q-27 8 -44.5 26t-12.5 38q17 65 24 95q-41 -7 -43 -7q-46 -6 -58 29q-10 26 16 38q14 7 31 10l35 8q51 8 63 65q22 110 61 264q4 18 10.5 38t14 43.5t11.5 37.5q0 1 1 3q6 20 20 23q20 4 30 -18q6 -13 18.5 -35t15.5 -29q2 0 4 1q10 2 58 13
q-2 11 -4 30.5t-2 21.5q6 2 11.5 2t9 -1t8.5 -4t7 -4.5t6.5 -6l5.5 -5.5q27 -25 81 -16q95 14 102 15q40 1 50 -6t19 -45l5 -26q0 -1 -0.5 -2.5t-1 -4t-0.5 -4.5q-31 -14 -84 -16q-8 0 -28.5 -0.5t-30.5 -1.5t-26 -4.5t-28 -9.5q-18 -12 -20 -26q-3 -43 -3 -129q0 -3 1 -6.5
t3 -8.5t3 -9q6 2 25 6.5t29 7.5q24 8 151 49q26 8 39 1t19 -31q4 -14 10 -61q-55 -2 -137 -31q-14 -9 -36 -14q-46 -15 -56 -18q-18 -7 -20 -8q-4 -1 -8 -5h-3q-8 -5 -8.5 -9.5t2.5 -16t4 -22.5q1 -19 6 -58t6 -60q40 13 83 24q124 32 187 46q26 6 36 -0.5t16 -31.5l7 -42
q-40 -3 -161 -38.5t-158 -58.5zM150 278q25 8 61.5 17.5t60.5 16.5q4 1 9 3q5 1 6 3.5t1 12.5q-1 8 -1 13q-2 81 -28 147q-9 25 -10 27q-19 -19 -72 -147q-40 -97 -27 -93zM193 614h-8q-5 -14 -10 -39q1 0 3 -0.5t3 -0.5q1 2 5 7t5.5 7.5t3.5 7t1.5 9t-3.5 9.5z" />
    <glyph glyph-name="Ccedilla" unicode="&#xc7;" horiz-adv-x="456" 
d="M133 101l21 -36q18 -33 41 -41.5t60 6.5q50 18 85 58q13 14 36.5 38t31.5 32q23 23 36 14q15 -11 25 -41q3 -9 -5 -28q-90 -163 -250 -122q-51 14 -67 19q-64 26 -94 83q-48 87 -51 180q-1 25 19 125q4 17 13 48.5t12 46.5q15 74 84 155q67 80 175 41q2 -1 13 -4.5t14 -5
t13 -5t14 -5.5t12.5 -6t13.5 -7t11.5 -7t12 -9t10.5 -10q15 -15 22 -43q1 -5 -3.5 -13.5t-10.5 -11.5q-15 -9 -31 12q-29 38 -56 62q-51 43 -106 0q-47 -38 -70 -94q-28 -66 -46 -137q-29 -119 -12 -191q8 -38 25 -103h2zM322 -13l-3 -4q-3 -4 -4 -8t-1.5 -10t4.5 -13.5
t15 -15.5q19 -17 32 -36.5t16 -42t-18 -37.5q-32 -24 -74 -29t-69 16q-16 13 -19.5 33.5t14.5 23.5q32 2 41 -27q4 -13 19.5 -18.5t34.5 10.5q19 19 18 43.5t-20 48.5q-33 45 -36 58q-1 12 8 20q11 8 20.5 5.5t16.5 -9t5 -8.5z" />
    <glyph glyph-name="Egrave" unicode="&#xc8;" horiz-adv-x="494" 
d="M184 28q37 23 158 58.5t161 38.5q-1 7 -3.5 21t-3.5 21q-6 25 -16 31.5t-36 0.5q-63 -14 -187 -46q-36 -10 -104 -31q-1 17 -4.5 57t-4.5 61q-1 32 8.5 44.5t42.5 23.5q24 7 70.5 24t84 27.5t74.5 11.5q-6 47 -10 61q-6 24 -19 31t-39 -1q-127 -42 -151 -49
q-10 -3 -29 -7.5t-25 -6.5q-1 3 -4 11.5t-3 12.5q0 86 3 129q2 14 20 26q12 6 28 9.5t26 4.5t30.5 1.5t28.5 0.5q53 2 84 16q0 2 1 5.5t1 5.5q-1 4 -2.5 13t-2.5 13q-9 38 -19 45t-50 6q-7 -1 -102 -15q-54 -9 -81 16l-5.5 5.5t-6.5 6t-7 4.5t-8.5 4t-9 1t-11.5 -2
q0 -2 2 -21.5t4 -30.5q-48 -11 -58 -13q-22 -5 -27 -13.5t3 -28.5q16 -35 24 -45q4 -4 29 -17q4 -1 12.5 -1h16.5q6 -55 -4 -163q0 -10 -25 -15q-7 -2 -28 -4t-32 -5q-39 -12 -20 -45q11 -21 20 -33t26.5 -20.5t40.5 -3.5q2 1 7 -1l5 -2q7 -18 10.5 -39.5t3.5 -36t-1 -39.5
t-1 -36q-75 -19 -86 -23q-7 -2 -14.5 -9t-6.5 -11q14 -44 30 -62q10 -13 44 -8q26 1 60 12q25 9 46 -6q2 -2 8.5 -6.5t9.5 -6.5t9.5 -2.5t12.5 3.5q9 8 7.5 12.5t-5 13.5t-0.5 16zM59 886q22 14 41.5 18t52.5 1q22 -62 100 -108q1 -1 4 -2.5l4 -2t3.5 -2t3.5 -2.5t2.5 -3
t2.5 -3.5t2 -3.5t1 -4.5v-5.5q0 -6 -3 -10.5t-5.5 -6t-9.5 -4.5t-8 -3q-59 -25 -81 -21t-68 48q-13 13 -51 55q-13 16 -10.5 32.5t19.5 27.5z" />
    <glyph glyph-name="Eacute" unicode="&#xc9;" horiz-adv-x="494" 
d="M184 28q37 23 158 58.5t161 38.5q-1 7 -3.5 21t-3.5 21q-6 25 -16 31.5t-36 0.5q-63 -14 -187 -46q-36 -10 -104 -31q-1 17 -4.5 57t-4.5 61q-1 32 8.5 44.5t42.5 23.5q24 7 70.5 24t84 27.5t74.5 11.5q-6 47 -10 61q-6 24 -19 31t-39 -1q-127 -42 -151 -49
q-10 -3 -29 -7.5t-25 -6.5q-1 3 -4 11.5t-3 12.5q0 86 3 129q2 14 20 26q12 6 28 9.5t26 4.5t30.5 1.5t28.5 0.5q53 2 84 16q0 2 1 5.5t1 5.5q-1 4 -2.5 13t-2.5 13q-9 38 -19 45t-50 6q-7 -1 -102 -15q-54 -9 -81 16l-5.5 5.5t-6.5 6t-7 4.5t-8.5 4t-9 1t-11.5 -2
q0 -2 2 -21.5t4 -30.5q-48 -11 -58 -13q-22 -5 -27 -13.5t3 -28.5q16 -35 24 -45q4 -4 29 -17q4 -1 12.5 -1h16.5q6 -55 -4 -163q0 -10 -25 -15q-7 -2 -28 -4t-32 -5q-39 -12 -20 -45q11 -21 20 -33t26.5 -20.5t40.5 -3.5q2 1 7 -1l5 -2q7 -18 10.5 -39.5t3.5 -36t-1 -39.5
t-1 -36q-75 -19 -86 -23q-7 -2 -14.5 -9t-6.5 -11q14 -44 30 -62q10 -13 44 -8q26 1 60 12q25 9 46 -6q2 -2 8.5 -6.5t9.5 -6.5t9.5 -2.5t12.5 3.5q9 8 7.5 12.5t-5 13.5t-0.5 16zM257 984q30 -32 35 -89q-57 -33 -89 -118q0 -1 -1.5 -4t-2 -4.5t-1.5 -4t-2 -3.5t-2 -3
t-2.5 -3t-3.5 -2l-4 -2t-5 -1q-25 -4 -29 21q-5 37 -5.5 50.5t1 45t14.5 58.5t36 57q13 16 30 16.5t31 -14.5z" />
    <glyph glyph-name="Ecircumflex" unicode="&#xca;" horiz-adv-x="494" 
d="M184 28q-3 -7 0.5 -16t5 -13.5t-7.5 -12.5q-6 -4 -12.5 -3.5t-9.5 2.5t-9.5 6.5t-8.5 6.5q-21 15 -46 6q-34 -11 -60 -12q-34 -5 -44 8q-16 18 -30 62q-1 4 6.5 11t14.5 9q11 4 86 23q0 11 1 36t1 39.5t-3.5 36t-10.5 39.5l-5 2q-5 2 -7 1q-33 -7 -51.5 8.5t-35.5 48.5
q-19 33 20 45q11 3 32 5t28 4q25 5 25 15q10 108 4 163h-16t-13 1q-25 13 -29 17q-8 10 -24 45q-8 20 -3 28.5t27 13.5q10 2 58 13q-2 11 -4 30.5t-2 21.5q6 2 11.5 2t9 -1t8.5 -4t7 -4.5t6.5 -6l5.5 -5.5q27 -25 81 -16q95 14 102 15q40 1 50 -6t19 -45q1 -4 2.5 -13
t2.5 -13q0 -1 -0.5 -2.5t-1 -4t-0.5 -4.5q-31 -14 -84 -16q-8 0 -28.5 -0.5t-30.5 -1.5t-26 -4.5t-28 -9.5q-18 -12 -20 -26q-3 -43 -3 -129q0 -3 1 -6.5t3 -8.5t3 -9q6 2 25 6.5t29 7.5q24 7 151 49q26 8 39 1t19 -31q4 -14 10 -61q-37 -1 -74.5 -11.5t-84 -27.5t-70.5 -24
q-33 -11 -42.5 -23.5t-8.5 -44.5q1 -21 4.5 -61t4.5 -57q68 21 104 31q124 32 187 46q26 6 36 -0.5t16 -31.5q1 -7 3.5 -21t3.5 -21q-40 -3 -161 -38.5t-158 -58.5zM77 753q-5 -1 -7 6q-7 20 2 32q2 2 4 3q40 25 72 32q12 2 16 -13q4 -12 -6 -13q-3 -2 -20 -14.5
t-31.5 -20.5t-29.5 -12zM302 756q-15 4 -29.5 11.5t-32.5 21t-20 14.5q-7 1 -7 8.5t5 13.5t12 5q16 -3 29 -8t19 -8.5t15 -9t11 -6.5q11 -4 7 -28q-3 -14 -9 -14z" />
    <glyph glyph-name="Edieresis" unicode="&#xcb;" horiz-adv-x="494" 
d="M184 28q37 23 158 58.5t161 38.5q-1 7 -3.5 21t-3.5 21q-6 25 -16 31.5t-36 0.5q-63 -14 -187 -46q-36 -10 -104 -31q-1 17 -4.5 57t-4.5 61q-1 32 8.5 44.5t42.5 23.5q24 7 70.5 24t84 27.5t74.5 11.5q-6 47 -10 61q-6 24 -19 31t-39 -1q-127 -42 -151 -49
q-10 -3 -29 -7.5t-25 -6.5q-1 3 -4 11.5t-3 12.5q0 86 3 129q2 14 20 26q12 6 28 9.5t26 4.5t30.5 1.5t28.5 0.5q53 2 84 16q0 2 1 5.5t1 5.5q-1 4 -2.5 13t-2.5 13q-9 38 -19 45t-50 6q-7 -1 -102 -15q-54 -9 -81 16l-5.5 5.5t-6.5 6t-7 4.5t-8.5 4t-9 1t-11.5 -2
q0 -2 2 -21.5t4 -30.5q-48 -11 -58 -13q-22 -5 -27 -13.5t3 -28.5q16 -35 24 -45q4 -4 29 -17q4 -1 12.5 -1h16.5q6 -55 -4 -163q0 -10 -25 -15q-7 -2 -28 -4t-32 -5q-39 -12 -20 -45q11 -21 20 -33t26.5 -20.5t40.5 -3.5q2 1 7 -1l5 -2q7 -18 10.5 -39.5t3.5 -36t-1 -39.5
t-1 -36q-75 -19 -86 -23q-7 -2 -14.5 -9t-6.5 -11q14 -44 30 -62q10 -13 44 -8q26 1 60 12q25 9 46 -6q2 -2 8.5 -6.5t9.5 -6.5t9.5 -2.5t12.5 3.5q9 8 7.5 12.5t-5 13.5t-0.5 16zM137 921q40 9 49 -30q2 -9 7 -54h-2q0 -5 -0.5 -14t-0.5 -14q-1 -17 -20 -20q-24 -3 -70 -11
q-26 -5 -30 17q-12 57 -15 89q-2 22 25 25q28 5 57 12zM352 893q1 -2 7 -36q-1 -4 -3.5 -16.5t-6 -20.5t-9.5 -11q-17 -10 -76 -12q-4 -1 -10.5 6.5t-8.5 13.5q-11 40 -14 77q-1 19 5.5 25.5t26.5 8.5q22 3 23 3q29 7 44 -1.5t22 -36.5z" />
    <glyph glyph-name="Igrave" unicode="&#xcc;" horiz-adv-x="136" 
d="M113 -18q4 2 10 6q-1 6 4 18t3 19t-13 66q-25 127 -16 256q4 44 10.5 127.5t9.5 121.5q1 16 6 20t28 6q14 1 20.5 31.5t-9.5 45.5q-10 10 -32 8q-93 -9 -115 -12q-35 -4 -48 -22q-7 -8 0.5 -27.5t19.5 -36t14 -15.5q16 2 28 4v-41q-19 -197 -29 -310q-10 -99 31 -205
q16 -39 78 -60zM-31 902q22 14 41.5 18t52.5 1q22 -62 100 -108q1 -1 4 -2.5l4 -2t3.5 -2t3.5 -2.5t2.5 -3t2.5 -3.5t2 -3.5t1 -4.5v-5.5q0 -6 -3 -10.5t-5.5 -6t-9.5 -4.5t-8 -3q-59 -25 -81 -21t-68 48q-13 13 -51 55q-13 16 -10.5 32.5t19.5 27.5z" />
    <glyph glyph-name="Iacute" unicode="&#xcd;" horiz-adv-x="136" 
d="M113 -18q4 2 10 6q-1 6 4 18t3 19t-13 66q-25 127 -16 256q4 44 10.5 127.5t9.5 121.5q1 16 6 20t28 6q14 1 20.5 31.5t-9.5 45.5q-10 10 -32 8q-93 -9 -115 -12q-35 -4 -48 -22q-7 -8 0.5 -27.5t19.5 -36t14 -15.5q16 2 28 4v-41q-19 -197 -29 -310q-10 -99 31 -205
q16 -39 78 -60zM151 972q30 -32 35 -89q-57 -33 -89 -118q0 -1 -1.5 -4t-2 -4.5t-1.5 -4t-2 -3.5t-2 -3t-2.5 -3t-3.5 -2l-4 -2t-5 -1q-25 -4 -29 21q-5 37 -5.5 50.5t1 45t14.5 58.5t36 57q13 16 30 16.5t31 -14.5z" />
    <glyph glyph-name="Icircumflex" unicode="&#xce;" horiz-adv-x="200" 
d="M-25 746q-5 -1 -7 6q-7 20 2 32q2 2 4 3q40 25 72 32q12 2 16 -13q4 -12 -6 -13q-3 -2 -20 -14.5t-31.5 -20.5t-29.5 -12zM200 749q-15 4 -29.5 11.5t-32.5 21t-20 14.5q-7 1 -7 8.5t5 13.5t12 5q16 -3 29 -8t19 -8.5t15 -9t11 -6.5q11 -4 7 -28q-3 -14 -9 -14zM125 -14
q-62 21 -78 60q-41 106 -31 205q10 113 29 310v41q-12 -2 -28 -4q-2 -1 -14 15.5t-19.5 36t-0.5 27.5q13 18 48 22q22 3 115 12q22 2 32 -8q16 -15 9.5 -45.5t-20.5 -31.5q-23 -2 -28 -6t-6 -20q-3 -38 -9.5 -121.5t-10.5 -127.5q-9 -129 16 -256q11 -59 13 -66t-3 -19
t-4 -18q-6 -4 -10 -6z" />
    <glyph glyph-name="Idieresis" unicode="&#xcf;" horiz-adv-x="136" 
d="M113 -18q4 2 10 6q-1 6 4 18t3 19t-13 66q-25 127 -16 256q4 44 10.5 127.5t9.5 121.5q1 16 6 20t28 6q14 1 20.5 31.5t-9.5 45.5q-10 10 -32 8q-93 -9 -115 -12q-35 -4 -48 -22q-7 -8 0.5 -27.5t19.5 -36t14 -15.5q16 2 28 4v-41q-19 -197 -29 -310q-10 -99 31 -205
q16 -39 78 -60zM23 852q33 8 40 -23q0 -2 6 -41h-2q0 -3 -0.5 -10t-0.5 -11q0 -12 -16 -15q-20 -2 -58 -8q-20 -5 -25 13q-10 44 -12 67q-1 8 4.5 12.5t15.5 6.5q24 3 48 9zM200 831q3 -7 6 -27q-1 -3 -3 -12.5t-5 -16t-8 -8.5q-13 -7 -62 -9q-4 -1 -9.5 4.5t-6.5 10.5
q-9 28 -12 59q-1 14 4.5 19t22.5 6q1 0 8 1t11 2q24 5 36 -1.5t18 -27.5z" />
    <glyph glyph-name="Eth" unicode="&#xd0;" horiz-adv-x="413" 
d="M-82 337q-60 31 -16 39q23 5 74 5h1q0 31 -4 95q-1 28 -18 141q-1 4 -17 32q12 29 56 40q126 27 199 8q137 -37 192 -168q23 -90 9 -175t-61 -158.5t-107 -126t-128.5 -77t-125.5 -11.5q-39 3 -50 65l-5 43q23 -38 23 -39q13 -18 41.5 -26.5t74 3.5t90.5 51
q72 68 113.5 141.5t49.5 136.5t-1.5 121t-35.5 100.5t-57 70.5t-61 35q-48 11 -96 -1q-32 -7 -44 -24t-9 -49q26 1 47.5 -15.5t22.5 -35.5q0 -12 2 -34t2 -28q1 -40 1 -119q3 0 23.5 -1.5t30.5 -1.5q53 -3 54 -22q2 -15 -24 -20q-13 -3 -28 -2q-32 2 -55 2l3 -57
q1 -19 4.5 -40t9 -46.5t7.5 -39.5q1 -2 -1.5 -3t-6 -2t-7 -1.5t-5.5 -2t-2 -2.5q-25 -10 -48 -1.5t-29 32.5q-1 6 -17.5 57t-14.5 80q2 18 2 27q-50 0 -58 4z" />
    <glyph glyph-name="Ntilde" unicode="&#xd1;" horiz-adv-x="588" 
d="M92 363q1 -15 1 -43q9 -80 34 -308q2 -22 -5.5 -28.5t-26.5 1.5q-39 18 -49 57q-45 198 -41 396v62q57 1 89 -45q17 -23 79 -123q4 -7 24 -42.5t32 -53.5q34 -51 72.5 -55t84.5 32q64 47 94 145q35 111 31 176q-7 98 -52 189q-5 10 -16.5 19.5t-22.5 10.5q-75 9 -128 4
q-8 0 -16 -5.5t-19.5 -15t-17.5 -13.5q-9 10 -29 37q16 37 51 43q54 12 114.5 2.5t104.5 -49.5q37 -33 55 -72q45 -109 44 -205q-3 -142 -98 -268q-96 -128 -244 -35q-59 36 -104 123l-33 66q-6 -2 -8 -2zM-1 610q28 25 29 26q30 28 41 34q48 26 87 -12l46 -46q4 -4 14 -12
q14 -10 22 -10t22 10q10 8 16 11h6q0 -1 1 -3q1 -3 0 -4q-20 -18 -31 -24q-24 -13 -45 3q-20 16 -44 40q-5 4 -28 27q-32 28 -64 2q-25 -22 -43 -41q-11 -13 -29 -1z" />
    <glyph glyph-name="Ograve" unicode="&#xd2;" horiz-adv-x="440" 
d="M82 624q-18 -45 -18 -46q-65 -137 -79 -251q-14 -124 8 -209q23 -92 90 -120q23 -10 42 -6q29 7 53 17q25 11 61 42t79 84.5t72.5 122.5t42 157t-11.5 187q-30 107 -140 121q-18 2 -28 4q-2 15 -1 20q3 22 -13 31q-19 10 -38 -2q-24 -16 -32 -27q-33 -48 -91 -55
q-1 0 -2.5 -0.5t-2.5 -0.5q-30 -11 -37.5 -28t5.5 -49q20 3 41 8zM346 604q17 -63 -2.5 -162.5t-58 -187t-84.5 -153.5t-79 -71q-12 -2 -20 -2t-13 1t-8.5 6.5t-5 10.5t-5 16t-6.5 19q-6 14 -6 58t7.5 107.5t21.5 132t41.5 140t63.5 122.5q11 17 25 19q6 1 23 8.5t29 8.5
t33 -16t44 -57zM87 964q22 14 41.5 18t52.5 1q22 -62 100 -108q1 -1 4 -2.5l4 -2t3.5 -2t3.5 -2.5t2.5 -3t2.5 -3.5t2 -3.5t1 -4.5v-5.5q0 -6 -3 -10.5t-5.5 -6t-9.5 -4.5t-8 -3q-59 -25 -81 -21t-68 48q-13 13 -51 55q-13 16 -10.5 32.5t19.5 27.5z" />
    <glyph glyph-name="Oacute" unicode="&#xd3;" horiz-adv-x="440" 
d="M82 624q-18 -45 -18 -46q-65 -137 -79 -251q-14 -124 8 -209q23 -92 90 -120q23 -10 42 -6q29 7 53 17q25 11 61 42t79 84.5t72.5 122.5t42 157t-11.5 187q-30 107 -140 121q-18 2 -28 4q-2 15 -1 20q3 22 -13 31q-19 10 -38 -2q-24 -16 -32 -27q-33 -48 -91 -55
q-1 0 -2.5 -0.5t-2.5 -0.5q-30 -11 -37.5 -28t5.5 -49q20 3 41 8zM346 604q17 -63 -2.5 -162.5t-58 -187t-84.5 -153.5t-79 -71q-12 -2 -20 -2t-13 1t-8.5 6.5t-5 10.5t-5 16t-6.5 19q-6 14 -6 58t7.5 107.5t21.5 132t41.5 140t63.5 122.5q11 17 25 19q6 1 23 8.5t29 8.5
t33 -16t44 -57zM201 990q30 -32 35 -89q-57 -33 -89 -118q0 -1 -1.5 -4t-2 -4.5t-1.5 -4t-2 -3.5t-2 -3t-2.5 -3t-3.5 -2l-4 -2t-5 -1q-25 -4 -29 21q-5 37 -5.5 50.5t1 45t14.5 58.5t36 57q13 16 30 16.5t31 -14.5z" />
    <glyph glyph-name="Ocircumflex" unicode="&#xd4;" horiz-adv-x="440" 
d="M79 778q-5 -1 -7 6q-7 20 2 32q2 2 4 3q40 25 72 32q12 2 16 -13q4 -12 -6 -13q-3 -2 -20 -14.5t-31.5 -20.5t-29.5 -12zM304 781q-15 4 -29.5 11.5t-32.5 21t-20 14.5q-7 1 -7 8.5t5 13.5t12 5q16 -3 29 -8t19 -8.5t15 -9t11 -6.5q11 -4 7 -28q-3 -14 -9 -14zM82 624
q-21 -5 -41 -8q-13 32 -5.5 49t37.5 28q1 0 2.5 0.5t2.5 0.5q58 7 91 55q8 11 32 27q19 12 38 2q16 -9 13 -31q-1 -5 1 -20q10 -2 28 -4q110 -14 140 -121q24 -99 11.5 -187t-42 -157t-72.5 -122.5t-79 -84.5t-61 -42q-24 -10 -53 -17q-19 -4 -42 6q-67 28 -90 120
q-22 85 -8 209q14 114 79 251q0 1 18 46zM346 604q-23 40 -44 57t-33 16t-29 -8.5t-23 -8.5q-14 -2 -25 -19q-36 -51 -63.5 -122.5t-41.5 -140t-21.5 -132t-7.5 -107.5t6 -58q3 -8 6.5 -19t5 -16t5 -10.5t8.5 -6.5t13 -1t20 2q33 5 79 71t84.5 153.5t58 187t2.5 162.5z" />
    <glyph glyph-name="Otilde" unicode="&#xd5;" horiz-adv-x="440" 
d="M82 624q-21 -5 -41 -8q-13 32 -5.5 49t37.5 28q1 0 2.5 0.5t2.5 0.5q58 7 91 55q8 11 32 27q19 12 38 2q16 -9 13 -31q-1 -5 1 -20q10 -2 28 -4q110 -14 140 -121q24 -99 11.5 -187t-42 -157t-72.5 -122.5t-79 -84.5t-61 -42q-24 -10 -53 -17q-19 -4 -42 6
q-67 28 -90 120q-22 85 -8 209q14 114 79 251q0 1 18 46zM346 604q-23 40 -44 57t-33 16t-29 -8.5t-23 -8.5q-14 -2 -25 -19q-36 -51 -63.5 -122.5t-41.5 -140t-21.5 -132t-7.5 -107.5t6 -58q3 -8 6.5 -19t5 -16t5 -10.5t8.5 -6.5t13 -1t20 2q33 5 79 71t84.5 153.5t58 187
t2.5 162.5zM73 872q28 25 29 26q30 28 41 34q48 26 87 -12l46 -46q4 -4 14 -12q14 -10 22 -10t22 10q10 8 16 11h6q0 -1 1 -3q1 -3 0 -4q-20 -18 -31 -24q-24 -13 -45 3q-20 16 -44 40q-5 4 -28 27q-32 28 -64 2q-25 -22 -43 -41q-11 -13 -29 -1z" />
    <glyph glyph-name="Odieresis" unicode="&#xd6;" horiz-adv-x="440" 
d="M82 624q-18 -45 -18 -46q-65 -137 -79 -251q-14 -124 8 -209q23 -92 90 -120q23 -10 42 -6q29 7 53 17q25 11 61 42t79 84.5t72.5 122.5t42 157t-11.5 187q-30 107 -140 121q-18 2 -28 4q-2 15 -1 20q3 22 -13 31q-19 10 -38 -2q-24 -16 -32 -27q-33 -48 -91 -55
q-1 0 -2.5 -0.5t-2.5 -0.5q-30 -11 -37.5 -28t5.5 -49q20 3 41 8zM346 604q17 -63 -2.5 -162.5t-58 -187t-84.5 -153.5t-79 -71q-12 -2 -20 -2t-13 1t-8.5 6.5t-5 10.5t-5 16t-6.5 19q-6 14 -6 58t7.5 107.5t21.5 132t41.5 140t63.5 122.5q11 17 25 19q6 1 23 8.5t29 8.5
t33 -16t44 -57zM171 918q28 6 34 -20q2 -6 3 -18.5t2 -16.5h-2v-18q-1 -11 -14 -13q-31 -4 -49 -7t-21 11q-8 32 -11 58q-1 7 4 11t14 5t40 8zM321 900q2 -6 5 -24q-1 -2 -2.5 -10.5t-4 -13.5t-6.5 -7q-11 -6 -53 -8q-9 0 -14 13q-7 23 -10 50q-1 12 4 16.5t19 5.5
q3 0 8 0.5t8 1.5q20 5 30.5 -0.5t15.5 -23.5z" />
    <glyph glyph-name="multiply" unicode="&#xd7;" horiz-adv-x="353" 
d="M151 293q-66 -82 -76 -96q-15 -21 -34 -20q-6 0 -20 -0.5t-24 -0.5q22 35 65.5 85.5t53.5 63.5q-17 18 -50.5 53t-50.5 53q-14 14 10 22q11 4 22 3q16 -17 48 -49t48 -49q11 10 31.5 29.5t31.5 29.5q13 12 57 44q2 1 5.5 3t5.5 4t3 4q6 13 17 18.5t17.5 6t23.5 0.5
q8 0 13 -5t2.5 -10t-12.5 -6q-21 -13 -42.5 -30.5t-35 -31l-37.5 -37.5l-35 -35q-2 -2 -11 -17q2 -3 7.5 -9.5t6.5 -7.5q75 -82 98 -105q11 -17 1 -28q-10 -12 -24 0q-70 63 -115 118z" />
    <glyph glyph-name="Oslash" unicode="&#xd8;" horiz-adv-x="440" 
d="M300 719l3 8q7 17 18.5 19.5t22.5 -11.5q14 -20 14 -40q44 -30 63 -93q24 -99 11.5 -187t-42 -157t-72.5 -122.5t-79 -84.5t-61 -42q-24 -10 -53 -17q-18 -3 -36 3q-24 -21 -41 -10.5t-3 36.5q-36 32 -52 97q-22 85 -8 209q14 114 79 251q0 1 18 46l-41 -8
q-13 32 -5.5 49t37.5 28q1 0 2.5 0.5t2.5 0.5q58 7 91 55q8 11 32 27q19 12 38 2q16 -9 13 -31q-1 -5 1 -20q10 -2 28 -4q14 -2 19 -4zM217 660q-14 -2 -25 -19q-36 -51 -63.5 -122.5t-41.5 -140t-21.5 -132t-7.5 -107.5t6 -58q0 -1 0.5 -2.5t0.5 -2.5l6 14
q14 38 55.5 142.5t62.5 162.5q5 14 42 123.5t53 154.5q-17 7 -40.5 -3t-26.5 -10zM346 604l-10 16q-20 -48 -28 -72q-43 -135 -49 -150q-14 -39 -41.5 -108.5t-37.5 -96.5q-6 -15 -21 -55.5t-25 -61.5q-10 -31 -19 -47q4 0 7 1q33 5 79 71t84.5 153.5t58 187t2.5 162.5z" />
    <glyph glyph-name="Ugrave" unicode="&#xd9;" horiz-adv-x="486" 
d="M574 -56l12 6q-3 28 -4 30q-18 43 -44 90q-70 134 -77 265q-6 111 -10 336q-1 52 -59 91q-2 2 -6 2.5t-9.5 0.5t-9.5 1q0 -5 -1.5 -14.5t-1.5 -13.5q0 -15 1 -41.5t0.5 -47.5t-4.5 -40q-26 -148 -70 -341q-14 -61 -38 -120q-12 -29 -41 -61q-33 -33 -50 10q-10 22 -19 57
q-13 51 -17.5 115t-3.5 100.5t7 121.5t7 107q1 14 -9 28.5t-21.5 23.5t-30.5 22t-26 19q-3 2 -7 3.5t-10.5 3.5t-10.5 3q-7 -19 -8 -28q-6 -50 -8 -79q-3 -36 -5 -109q0 -16 5 -22q9 -10 12.5 -20t5.5 -29.5t2 -22.5q34 -201 37 -212q26 -123 134 -181q70 -38 111 24l6 9
t5 8q14 21 24.5 48.5t15.5 46.5t13 53.5t12 48.5q1 3 8 22q32 -88 39 -106q37 -91 64 -147q15 -33 80 -61zM67 894q22 14 41.5 18t52.5 1q22 -62 100 -108q1 -1 4 -2.5l4 -2t3.5 -2t3.5 -2.5t2.5 -3t2.5 -3.5t2 -3.5t1 -4.5v-5.5q0 -6 -3 -10.5t-5.5 -6t-9.5 -4.5t-8 -3
q-59 -25 -81 -21t-68 48q-13 13 -51 55q-13 16 -10.5 32.5t19.5 27.5z" />
    <glyph glyph-name="Uacute" unicode="&#xda;" horiz-adv-x="486" 
d="M574 -56l12 6q-3 28 -4 30q-18 43 -44 90q-70 134 -77 265q-6 111 -10 336q-1 52 -59 91q-2 2 -6 2.5t-9.5 0.5t-9.5 1q0 -5 -1.5 -14.5t-1.5 -13.5q0 -15 1 -41.5t0.5 -47.5t-4.5 -40q-26 -148 -70 -341q-14 -61 -38 -120q-12 -29 -41 -61q-33 -33 -50 10q-10 22 -19 57
q-13 51 -17.5 115t-3.5 100.5t7 121.5t7 107q1 14 -9 28.5t-21.5 23.5t-30.5 22t-26 19q-3 2 -7 3.5t-10.5 3.5t-10.5 3q-7 -19 -8 -28q-6 -50 -8 -79q-3 -36 -5 -109q0 -16 5 -22q9 -10 12.5 -20t5.5 -29.5t2 -22.5q34 -201 37 -212q26 -123 134 -181q70 -38 111 24l6 9
t5 8q14 21 24.5 48.5t15.5 46.5t13 53.5t12 48.5q1 3 8 22q32 -88 39 -106q37 -91 64 -147q15 -33 80 -61zM287 896q30 -32 35 -89q-57 -33 -89 -118q0 -1 -1.5 -4t-2 -4.5t-1.5 -4t-2 -3.5t-2 -3t-2.5 -3t-3.5 -2l-4 -2t-5 -1q-25 -4 -29 21q-5 37 -5.5 50.5t1 45
t14.5 58.5t36 57q13 16 30 16.5t31 -14.5z" />
    <glyph glyph-name="Ucircumflex" unicode="&#xdb;" horiz-adv-x="486" 
d="M574 -56q-65 28 -80 61q-27 56 -64 147q-7 18 -39 106q-7 -19 -8 -22q-4 -14 -12 -48.5t-13 -53.5t-15.5 -46.5t-24.5 -48.5q-1 -2 -5 -8l-6 -9q-41 -62 -111 -24q-108 58 -134 181q-3 11 -37 212q-1 6 -2 18.5t-2 19.5t-5 17t-11 17q-5 6 -5 22q2 73 5 109q2 29 8 79
q1 9 8 28q4 -1 10.5 -3t10.5 -3.5t7 -3.5q7 -6 26 -19t30.5 -22t21.5 -23.5t9 -28.5q-1 -22 -7 -107t-7 -121.5t3.5 -100.5t17.5 -115q9 -35 19 -57q17 -43 50 -10q29 32 41 61q24 59 38 120q44 193 70 341q4 19 4.5 40t-0.5 47.5t-1 41.5q0 4 1.5 13.5t1.5 14.5
q4 -1 9.5 -1t9.5 -0.5t6 -2.5q58 -39 59 -91q4 -225 10 -336q7 -131 77 -265q26 -47 44 -90q1 -2 4 -30zM289 764q-20 12 -65 44q-19 -4 -41 -24q-5 -4 -14 -12.5t-14 -12.5q-10 -10 -20 -6q-6 2 -12.5 6t-5.5 7q2 25 11 34q10 11 22 23t28 26t24 22q3 3 15 10q5 -3 19 -11
t20 -12t17 -11t16 -12.5t11.5 -12.5t9 -15t2.5 -16q0 -21 -23 -27z" />
    <glyph glyph-name="Udieresis" unicode="&#xdc;" horiz-adv-x="486" 
d="M574 -56l12 6q-3 28 -4 30q-18 43 -44 90q-70 134 -77 265q-6 111 -10 336q-1 52 -59 91q-2 2 -6 2.5t-9.5 0.5t-9.5 1q0 -5 -1.5 -14.5t-1.5 -13.5q0 -15 1 -41.5t0.5 -47.5t-4.5 -40q-26 -148 -70 -341q-14 -61 -38 -120q-12 -29 -41 -61q-33 -33 -50 10q-10 22 -19 57
q-13 51 -17.5 115t-3.5 100.5t7 121.5t7 107q1 14 -9 28.5t-21.5 23.5t-30.5 22t-26 19q-3 2 -7 3.5t-10.5 3.5t-10.5 3q-7 -19 -8 -28q-6 -50 -8 -79q-3 -36 -5 -109q0 -16 5 -22q9 -10 12.5 -20t5.5 -29.5t2 -22.5q34 -201 37 -212q26 -123 134 -181q70 -38 111 24l6 9
t5 8q14 21 24.5 48.5t15.5 46.5t13 53.5t12 48.5q1 3 8 22q32 -88 39 -106q37 -91 64 -147q15 -33 80 -61zM115 905q40 9 49 -30q2 -9 7 -54h-2q0 -5 -0.5 -14t-0.5 -14q-1 -17 -20 -20q-24 -3 -70 -11q-26 -5 -30 17q-12 57 -15 89q-2 22 25 25q28 5 57 12zM330 877
q1 -2 7 -36q-1 -4 -3.5 -16.5t-6 -20.5t-9.5 -11q-17 -10 -76 -12q-4 -1 -10.5 6.5t-8.5 13.5q-11 40 -14 77q-1 19 5.5 25.5t26.5 8.5q22 3 23 3q29 7 44 -1.5t22 -36.5z" />
    <glyph glyph-name="Yacute" unicode="&#xdd;" horiz-adv-x="481" 
d="M363 874q30 -32 35 -89q-57 -33 -89 -118q0 -1 -1.5 -4t-2 -4.5t-1.5 -4t-2 -3.5t-2 -3t-2.5 -3t-3.5 -2l-4 -2t-5 -1q-25 -4 -29 21q-5 37 -5.5 50.5t1 45t14.5 58.5t36 57q13 16 30 16.5t31 -14.5zM437 665q35 104 83 110q29 3 43 -32q10 -27 0 -56q-75 -218 -97 -304
q-63 -250 -18 -434q13 -60 0 -106.5t-47 -66.5q-16 1 -28.5 13.5t-19.5 37.5t-9.5 37.5t-6.5 37.5q-12 69 -8.5 162.5t12 166.5t20.5 130q-17 -18 -35.5 -15.5t-31.5 14.5t-30.5 34t-33.5 43.5t-41 43.5t-52 33q-38 15 -48.5 2.5t-3.5 -49.5q-4 -26 -38 -22q-39 3 -58 37
q-18 30 -2 69q24 60 66 78.5t84.5 1.5t81 -53t59.5 -79q67 -137 99 -63q6 12 10 29q3 14 12 55t18.5 78.5t19.5 66.5z" />
    <glyph glyph-name="Thorn" unicode="&#xde;" horiz-adv-x="292" 
d="M-12 555q1 19 10.5 25t25.5 -3q27 -17 37 -39t10 -59l-2 -10v2q-1 4 -1 1v-9q0 -19 1 -19t1 -19l22 7q65 23 113 -12t66 -95t13.5 -124t-32.5 -95q-31 -35 -57 -42q-76 -19 -131 -8q0 -4 -0.5 -12t-0.5 -11q3 -32 -1 -109q4 -22 -18 -20q-28 2 -52 24q-9 8 -7 13
q1 12 0 40t-1 39q1 36 3.5 150.5t3.5 177.5q0 20 -2 102t-1 105zM66 159q-1 -26 -1 -76q35 -7 72 10t58 45q22 34 30 85.5t-6.5 99.5t-52.5 62q-41 11 -95 -15q-1 -36 -3 -106t-2 -105z" />
    <glyph glyph-name="germandbls" unicode="&#xdf;" horiz-adv-x="488" 
d="M346 415q32 8 71 -16.5t63.5 -68.5t15.5 -86q-17 -79 -62.5 -121.5t-143.5 -72.5q-81 -25 -116 68q103 4 182.5 66t87.5 143q-22 13 -43 18t-46 0t-35 -8t-36 -13q-20 -8 -37 -9t-32.5 6.5t-16 29.5t13.5 62q9 23 49.5 83.5t47.5 73.5q9 17 13 44t-6 29q-24 0 -72 -43.5
t-52 -70.5q-22 -53 -58.5 -275t-15.5 -289q-44 -2 -69 18.5t-29 51.5q-7 57 21 266.5t61 268.5q26 51 102 90.5t118 24.5q47 -17 63.5 -54.5t-0.5 -79.5q-10 -25 -33 -59.5t-30 -46.5q-16 -26 -22 -38.5t-2 -13t10.5 3t18.5 10t19 8.5z" />
    <glyph glyph-name="agrave" unicode="&#xe0;" 
d="M379 219q8 24 26 6q21 -19 16 -46q-1 -6 -3 -11q-10 -18 -29 -39.5t-44.5 -42.5t-54 -20t-49.5 30q-1 2 -5 10.5t-8 14.5t-9.5 12t-11.5 6t-12 -8q-5 -6 -14.5 -17t-16 -18t-16 -16.5t-18.5 -14t-19.5 -8.5t-23 -3.5t-25.5 5.5q0 1 -2 1t-2 1q-28 19 -39 48.5t-15 72.5
q-4 88 38.5 150t126.5 91q58 20 76 -43q3 -21 -3 -30.5t-29 -14.5q-63 -21 -109 -61t-46 -98q-2 -20 33 -20t43 12q11 16 20 26.5t12 13t8 11t10.5 21t18.5 42.5q16 36 49 19q22 -11 23 -26q0 -3 -2 -5q-6 -8 -11.5 -43t-3.5 -43q23 -96 76 -38q19 20 45 73zM9 692
q22 14 41.5 18t52.5 1q22 -62 100 -108q1 -1 4 -2.5l4 -2t3.5 -2t3.5 -2.5t2.5 -3t2.5 -3.5t2 -3.5t1 -4.5v-5.5q0 -6 -3 -10.5t-5.5 -6t-9.5 -4.5t-8 -3q-59 -25 -81 -21t-68 48q-13 13 -51 55q-13 16 -10.5 32.5t19.5 27.5z" />
    <glyph glyph-name="aacute" unicode="&#xe1;" 
d="M185 706q30 -32 35 -89q-57 -33 -89 -118q0 -1 -1.5 -4t-2 -4.5t-1.5 -4t-2 -3.5t-2 -3t-2.5 -3t-3.5 -2l-4 -2t-5 -1q-25 -4 -29 21q-5 37 -5.5 50.5t1 45t14.5 58.5t36 57q13 16 30 16.5t31 -14.5zM379 219q8 24 26 6q21 -19 16 -46q-1 -6 -3 -11q-10 -18 -29 -39.5
t-44.5 -42.5t-54 -20t-49.5 30q-1 2 -5 10.5t-8 14.5t-9.5 12t-11.5 6t-12 -8q-5 -6 -14.5 -17t-16 -18t-16 -16.5t-18.5 -14t-19.5 -8.5t-23 -3.5t-25.5 5.5q0 1 -2 1t-2 1q-28 19 -39 48.5t-15 72.5q-4 88 38.5 150t126.5 91q58 20 76 -43q3 -21 -3 -30.5t-29 -14.5
q-63 -21 -109 -61t-46 -98q-2 -20 33 -20t43 12q11 16 20 26.5t12 13t8 11t10.5 21t18.5 42.5q16 36 49 19q22 -11 23 -26q0 -3 -2 -5q-6 -8 -11.5 -43t-3.5 -43q23 -96 76 -38q19 20 45 73z" />
    <glyph glyph-name="acircumflex" unicode="&#xe2;" 
d="M379 219q8 24 26 6q21 -19 16 -46q-1 -6 -3 -11q-10 -18 -29 -39.5t-44.5 -42.5t-54 -20t-49.5 30q-1 2 -5 10.5t-8 14.5t-9.5 12t-11.5 6t-12 -8q-5 -6 -14.5 -17t-16 -18t-16 -16.5t-18.5 -14t-19.5 -8.5t-23 -3.5t-25.5 5.5q0 1 -2 1t-2 1q-28 19 -39 48.5t-15 72.5
q-4 88 38.5 150t126.5 91q58 20 76 -43q3 -21 -3 -30.5t-29 -14.5q-63 -21 -109 -61t-46 -98q-2 -20 33 -20t43 12q11 16 20 26.5t12 13t8 11t10.5 21t18.5 42.5q16 36 49 19q22 -11 23 -26q0 -3 -2 -5q-6 -8 -11.5 -43t-3.5 -43q23 -96 76 -38q19 20 45 73zM205 514
q-20 12 -65 44q-19 -4 -41 -24q-5 -4 -14 -12.5t-14 -12.5q-10 -10 -20 -6q-6 2 -12.5 6t-5.5 7q2 25 11 34q10 11 22 23t28 26t24 22q3 3 15 10q5 -3 19 -11t20 -12t17 -11t16 -12.5t11.5 -12.5t9 -15t2.5 -16q0 -21 -23 -27z" />
    <glyph glyph-name="atilde" unicode="&#xe3;" 
d="M379 219q8 24 26 6q21 -19 16 -46q-1 -6 -3 -11q-10 -18 -29 -39.5t-44.5 -42.5t-54 -20t-49.5 30q-1 2 -5 10.5t-8 14.5t-9.5 12t-11.5 6t-12 -8q-5 -6 -14.5 -17t-16 -18t-16 -16.5t-18.5 -14t-19.5 -8.5t-23 -3.5t-25.5 5.5q0 1 -2 1t-2 1q-28 19 -39 48.5t-15 72.5
q-4 88 38.5 150t126.5 91q58 20 76 -43q3 -21 -3 -30.5t-29 -14.5q-63 -21 -109 -61t-46 -98q-2 -20 33 -20t43 12q11 16 20 26.5t12 13t8 11t10.5 21t18.5 42.5q16 36 49 19q22 -11 23 -26q0 -3 -2 -5q-6 -8 -11.5 -43t-3.5 -43q23 -96 76 -38q19 20 45 73zM12 603
q5 5 15 14t15 14q24 22 42 33t43 10.5t48 -21.5q6 -7 16 -19t15.5 -19t15 -14.5t17.5 -10.5t19 -2.5t24 6.5q13 15 21 10q3 -2 3 -7q-3 -3 -14 -13.5t-18 -14.5q-25 -9 -46 1t-44 32.5t-34 29.5q-15 13 -31 14.5t-32.5 -10.5t-23.5 -19t-22 -24q-3 -3 -5.5 -4t-5 0.5l-5 3
t-6.5 5t-7 5.5z" />
    <glyph glyph-name="adieresis" unicode="&#xe4;" 
d="M379 219q8 24 26 6q21 -19 16 -46q-1 -6 -3 -11q-10 -18 -29 -39.5t-44.5 -42.5t-54 -20t-49.5 30q-1 2 -5 10.5t-8 14.5t-9.5 12t-11.5 6t-12 -8q-5 -6 -14.5 -17t-16 -18t-16 -16.5t-18.5 -14t-19.5 -8.5t-23 -3.5t-25.5 5.5q0 1 -2 1t-2 1q-28 19 -39 48.5t-15 72.5
q-4 88 38.5 150t126.5 91q58 20 76 -43q3 -21 -3 -30.5t-29 -14.5q-63 -21 -109 -61t-46 -98q-2 -20 33 -20t43 12q11 16 20 26.5t12 13t8 11t10.5 21t18.5 42.5q16 36 49 19q22 -11 23 -26q0 -3 -2 -5q-6 -8 -11.5 -43t-3.5 -43q23 -96 76 -38q19 20 45 73zM108 597
q29 8 36 -22q3 -13 5 -40h-1q0 -3 -0.5 -10t-0.5 -11q-1 -12 -15 -15q-18 -2 -52 -8q-19 -3 -22 13q-8 34 -11 66q-2 16 18 18q2 0 18 3.5t25 5.5zM267 576q2 -6 5 -26q-1 -3 -3 -12t-4.5 -15.5t-6.5 -8.5q-12 -7 -56 -9q-4 0 -8.5 5t-5.5 10q-8 24 -11 57q-1 14 4 19t20 6
q16 3 17 3q21 5 32 -1.5t17 -27.5z" />
    <glyph glyph-name="aring" unicode="&#xe5;" 
d="M379 219q8 24 26 6q21 -19 16 -46q-1 -6 -3 -11q-10 -18 -29 -39.5t-44.5 -42.5t-54 -20t-49.5 30q-1 2 -5 10.5t-8 14.5t-9.5 12t-11.5 6t-12 -8q-5 -6 -14.5 -17t-16 -18t-16 -16.5t-18.5 -14t-19.5 -8.5t-23 -3.5t-25.5 5.5q0 1 -2 1t-2 1q-28 19 -39 48.5t-15 72.5
q-4 88 38.5 150t126.5 91q58 20 76 -43q3 -21 -3 -30.5t-29 -14.5q-63 -21 -109 -61t-46 -98q-2 -20 33 -20t43 12q11 16 20 26.5t12 13t8 11t10.5 21t18.5 42.5q16 36 49 19q22 -11 23 -26q0 -3 -2 -5q-6 -8 -11.5 -43t-3.5 -43q23 -96 76 -38q19 20 45 73zM130 597
q2 -2 12 -8t14 -10q26 -17 17 -45q-4 -14 -14 -31q-17 -25 -47 -15q-24 10 -33 23q-14 22 -4.5 47.5t35.5 32.5q4 2 11 3.5t9 2.5zM149 558q-10 1 -24 5q-17 6 -23 -7q-6 -10 -6 -16q0 -11 4 -16q13 -9 26 -12q4 -1 10 1t7 5q16 26 6 40z" />
    <glyph glyph-name="ae" unicode="&#xe6;" horiz-adv-x="495" 
d="M505 229q17 -13 17 -42t-12 -53q-25 -50 -71 -87q-28 -22 -63 -23.5t-63 10.5t-49 31h-1h1q-12 -24 -40 -15.5t-33 26.5q0 1 -1 10t-1.5 15.5t0.5 12.5v11q-77 -85 -127 -67l-4 2q-28 19 -39 48.5t-15 72.5q-4 88 38.5 150t126.5 91q58 20 76 -43q3 -21 -3 -30.5
t-29 -14.5q-63 -21 -109 -61t-46 -98q-1 -13 15 -17t34.5 0t26.5 9l9 6q9 6 15.5 11.5t18 20t22.5 33.5l25 54q18 47 51 67q30 24 70.5 15.5t58.5 -41.5q14 -33 10.5 -63t-26 -61.5t-45.5 -54t-49 -40.5q46 -24 71 -16q57 20 106 99q3 3 7.5 12.5t11 15.5t15.5 4zM340 300
q-36 -10 -53.5 -30t-18.5 -62q-1 -25 28 5q35 36 44 70q3 11 0 17z" />
    <glyph glyph-name="ccedilla" unicode="&#xe7;" horiz-adv-x="331" 
d="M312 236q22 33 45 39q18 5 18 -16q1 -10 -3 -25q-14 -62 -62 -137q-3 -5 -17 -17q-52 -43 -120.5 -36.5t-110.5 58.5q-20 24 -40.5 70.5t-17.5 96.5q2 28 15.5 63t47.5 68t79 35q40 2 63 -46q18 -39 6 -57q-6 -10 -20 -4q-46 20 -77.5 -5t-40.5 -69t-1 -89q29 -38 82 -29
q105 14 154 100zM261 49q2 2 -5 8.5t-16.5 9t-20.5 -5.5q-7 -6 -8.5 -13t4.5 -18t10.5 -17.5t15.5 -21.5q4 -5 6 -8q19 -24 20 -48.5t-18 -43.5q-19 -16 -34.5 -10.5t-19.5 18.5q-9 29 -41 27q-18 -3 -14.5 -23.5t19.5 -33.5q27 -21 69 -16t74 29q21 15 18 37.5t-16 42
t-32 36.5q-10 8 -15 15.5t-4.5 13.5t1.5 10t4 8z" />
    <glyph glyph-name="egrave" unicode="&#xe8;" horiz-adv-x="281" 
d="M83 137q26 18 49 40.5t45.5 54t26 61.5t-10.5 63q-18 33 -58.5 41.5t-70.5 -15.5q-17 -11 -29 -30t-18 -37.5t-8.5 -42.5t-2.5 -39.5t1 -35t1 -21.5l-2.5 -2.5t-7 -6.5t-9.5 -9t-9.5 -10.5t-8 -11.5t-4.5 -10.5t1 -7.5q11 -16 39.5 -13.5t31.5 -2.5q18 -22 48.5 -38
t69 -18.5t71.5 24.5q46 37 71 87q12 24 12 53t-17 42q-9 2 -15.5 -4t-11 -15.5t-7.5 -12.5q-49 -79 -106 -99q-25 -8 -71 16zM129 323q10 -18 -27 -67q-31 -42 -42 -35q-3 3 -3 10q1 42 18.5 62t53.5 30zM9 692q22 14 41.5 18t52.5 1q22 -62 100 -108q1 -1 4 -2.5l4 -2
t3.5 -2t3.5 -2.5t2.5 -3t2.5 -3.5t2 -3.5t1 -4.5v-5.5q0 -6 -3 -10.5t-5.5 -6t-9.5 -4.5t-8 -3q-59 -25 -81 -21t-68 48q-13 13 -51 55q-13 16 -10.5 32.5t19.5 27.5z" />
    <glyph glyph-name="eacute" unicode="&#xe9;" horiz-adv-x="281" 
d="M83 137q26 18 49 40.5t45.5 54t26 61.5t-10.5 63q-18 33 -58.5 41.5t-70.5 -15.5q-17 -11 -29 -30t-18 -37.5t-8.5 -42.5t-2.5 -39.5t1 -35t1 -21.5l-2.5 -2.5t-7 -6.5t-9.5 -9t-9.5 -10.5t-8 -11.5t-4.5 -10.5t1 -7.5q11 -16 39.5 -13.5t31.5 -2.5q18 -22 48.5 -38
t69 -18.5t71.5 24.5q46 37 71 87q12 24 12 53t-17 42q-9 2 -15.5 -4t-11 -15.5t-7.5 -12.5q-49 -79 -106 -99q-25 -8 -71 16zM129 323q10 -18 -27 -67q-31 -42 -42 -35q-3 3 -3 10q1 42 18.5 62t53.5 30zM135 714q30 -32 35 -89q-57 -33 -89 -118q0 -1 -1.5 -4t-2 -4.5
t-1.5 -4t-2 -3.5t-2 -3t-2.5 -3t-3.5 -2l-4 -2t-5 -1q-25 -4 -29 21q-5 37 -5.5 50.5t1 45t14.5 58.5t36 57q13 16 30 16.5t31 -14.5z" />
    <glyph glyph-name="ecircumflex" unicode="&#xea;" horiz-adv-x="281" 
d="M83 137q46 -24 71 -16q57 20 106 99q3 3 7.5 12.5t11 15.5t15.5 4q17 -13 17 -42t-12 -53q-25 -50 -71 -87q-33 -27 -71.5 -24.5t-69 18.5t-48.5 38q-3 5 -31.5 2.5t-39.5 13.5q-4 7 6 21.5t22 25.5l12 11q0 2 -1 21.5t-1 35t2.5 39.5t8.5 42.5t18 37.5t29 30
q30 24 70.5 15.5t58.5 -41.5q14 -33 10.5 -63t-26 -61.5t-45.5 -54t-49 -40.5zM129 323q-36 -10 -53.5 -30t-18.5 -62q-1 -25 28 5q35 36 44 70q3 11 0 17zM177 512q-20 12 -65 44q-19 -4 -41 -24q-5 -4 -14 -12.5t-14 -12.5q-10 -10 -20 -6q-6 2 -12.5 6t-5.5 7q2 25 11 34
q10 11 22 23t28 26t24 22q3 3 15 10q5 -3 19 -11t20 -12t17 -11t16 -12.5t11.5 -12.5t9 -15t2.5 -16q0 -21 -23 -27z" />
    <glyph glyph-name="edieresis" unicode="&#xeb;" horiz-adv-x="281" 
d="M83 137q26 18 49 40.5t45.5 54t26 61.5t-10.5 63q-18 33 -58.5 41.5t-70.5 -15.5q-17 -11 -29 -30t-18 -37.5t-8.5 -42.5t-2.5 -39.5t1 -35t1 -21.5l-2.5 -2.5t-7 -6.5t-9.5 -9t-9.5 -10.5t-8 -11.5t-4.5 -10.5t1 -7.5q11 -16 39.5 -13.5t31.5 -2.5q18 -22 48.5 -38
t69 -18.5t71.5 24.5q46 37 71 87q12 24 12 53t-17 42q-9 2 -15.5 -4t-11 -15.5t-7.5 -12.5q-49 -79 -106 -99q-25 -8 -71 16zM129 323q10 -18 -27 -67q-31 -42 -42 -35q-3 3 -3 10q1 42 18.5 62t53.5 30zM67 625q40 9 49 -30q2 -9 7 -54h-2q0 -5 -0.5 -14t-0.5 -14
q-1 -17 -20 -20q-24 -3 -70 -11q-26 -5 -30 17q-12 57 -15 89q-2 22 25 25q28 5 57 12zM282 597q1 -2 7 -36q-1 -4 -3.5 -16.5t-6 -20.5t-9.5 -11q-17 -10 -76 -12q-4 -1 -10.5 6.5t-8.5 13.5q-11 40 -14 77q-1 19 5.5 25.5t26.5 8.5q22 3 23 3q29 7 44 -1.5t22 -36.5z" />
    <glyph glyph-name="igrave" unicode="&#xec;" horiz-adv-x="116" 
d="M109 425q-16 -16 -46 12q-30 31 -35.5 34.5t-53.5 22.5q-11 9 -11 17.5t4.5 13t15.5 13.5q14 14 29.5 15t26 -5t23 -21t17 -23t12.5 -22q1 -2 5.5 -9.5t7.5 -13t6 -12.5t2.5 -12.5t-3.5 -9.5zM76 195q-2 -46 20 -73q19 -24 15 -58q-4 -31 -26 -19q-9 5 -20 17
q-84 95 -57 243q1 7 8 29.5t9 29.5q34 11 52 -5.5t17 -46t-9 -59.5q-7 -22 -9 -58z" />
    <glyph glyph-name="iacute" unicode="&#xed;" horiz-adv-x="116" 
d="M135 714q30 -32 35 -89q-57 -33 -89 -118q0 -1 -1.5 -4t-2 -4.5t-1.5 -4t-2 -3.5t-2 -3t-2.5 -3t-3.5 -2l-4 -2t-5 -1q-25 -4 -29 21q-5 37 -5.5 50.5t1 45t14.5 58.5t36 57q13 16 30 16.5t31 -14.5zM76 195q-2 -46 20 -73q19 -24 15 -58q-4 -31 -26 -19q-9 5 -20 17
q-84 95 -57 243q1 7 8 29.5t9 29.5q34 11 52 -5.5t17 -46t-9 -59.5q-7 -22 -9 -58z" />
    <glyph glyph-name="icircumflex" unicode="&#xee;" horiz-adv-x="116" 
d="M76 195q-2 -46 20 -73q19 -24 15 -58q-4 -31 -26 -19q-9 5 -20 17q-84 95 -57 243q1 7 8 29.5t9 29.5q34 11 52 -5.5t17 -46t-9 -59.5q-7 -22 -9 -58zM149 528q-20 12 -65 44q-19 -4 -41 -24q-5 -4 -14 -12.5t-14 -12.5q-10 -10 -20 -6q-6 2 -12.5 6t-5.5 7q2 25 11 34
q10 11 22 23t28 26t24 22q3 3 15 10q5 -3 19 -11t20 -12t17 -11t16 -12.5t11.5 -12.5t9 -15t2.5 -16q0 -21 -23 -27z" />
    <glyph glyph-name="idieresis" unicode="&#xef;" horiz-adv-x="116" 
d="M76 195q-2 -46 20 -73q19 -24 15 -58q-4 -31 -26 -19q-9 5 -20 17q-84 95 -57 243q1 7 8 29.5t9 29.5q34 11 52 -5.5t17 -46t-9 -59.5q-7 -22 -9 -58zM3 522q27 6 34 -18q2 -12 4 -34h-1q0 -3 -0.5 -9t-0.5 -9q0 -10 -13 -12q-31 -4 -49 -7q-17 -3 -20 11q-10 44 -11 55
q0 14 18 16q26 4 39 7zM151 505q1 -3 5 -23q-1 -3 -2.5 -10t-4 -12.5t-6.5 -7.5q-10 -5 -53 -7q-7 -2 -13 12q-8 24 -9 49q-1 12 3.5 16t18.5 5q11 0 15 2q21 4 31 -1t15 -23z" />
    <glyph glyph-name="eth" unicode="&#xf0;" horiz-adv-x="332" 
d="M208 642q21 2 23 -16t-18 -23q-30 -6 -61 -34q29 -25 45 -43q74 -83 112 -197q18 -52 18 -171q1 -86 -66 -131t-151 -24q-19 5 -54.5 30t-44.5 41q-14 28 -8.5 67t20 74t32.5 60q33 48 65 77.5t78 50.5q-32 61 -90 124l-9 -7.5t-7 -4.5t-5.5 -2.5t-8 -2t-11.5 -2.5
q-20 -5 -25 13t14 25q6 2 13 0.5t11 4.5q-8 8 -12 21t-7 30t-6 25q-3 18 11.5 23.5t25.5 -8.5q6 -20 34 -48q44 40 82 48zM235 326q-7 16 -12 21q-4 -4 -15 -14.5t-18 -16.5q-56 -41 -80 -80q-60 -97 -38 -146q10 -4 28 -18t34 -18q35 -10 61 -4t46 36q16 25 18 74.5
t-5.5 93.5t-18.5 72z" />
    <glyph glyph-name="ntilde" unicode="&#xf1;" horiz-adv-x="346" 
d="M399 256v-2q9 -36 -26.5 -104t-73.5 -42q-43 29 -66.5 77t-42.5 120q-27 -13 -45.5 -62t-33 -119t-17.5 -81q-38 12 -54 61q-20 51 -28 123t2 127q6 25 8 32q30 0 39.5 -29t5.5 -68t1 -79q14 10 42 72.5t35 72.5q20 31 48 35t42 -27q11 -27 32.5 -76t24.5 -56
q9 -26 31.5 -26.5t42 15t22.5 30.5zM5 532q28 25 29 26q30 28 41 34q48 26 87 -12l46 -46q4 -4 14 -12q14 -10 22 -10t22 10q10 8 16 11h6q0 -1 1 -3q1 -3 0 -4q-20 -18 -31 -24q-24 -13 -45 3q-20 16 -44 40q-5 4 -28 27q-32 28 -64 2q-25 -22 -43 -41q-11 -13 -29 -1z" />
    <glyph glyph-name="ograve" unicode="&#xf2;" horiz-adv-x="272" 
d="M137 403q56 -21 96.5 -86t35.5 -126q-7 -86 -88 -134q-38 -18 -63.5 -12t-58.5 34q-38 32 -50 69t-1 72t26 63t34.5 54t22.5 33q1 1 -2.5 4t-6 8t0.5 14q23 20 54 7zM140 134q74 59 73 140q-2 41 -42 50q-21 -20 -53 -82t-36 -85q-9 -42 33 -33q16 4 25 10zM9 692
q22 14 41.5 18t52.5 1q22 -62 100 -108q1 -1 4 -2.5l4 -2t3.5 -2t3.5 -2.5t2.5 -3t2.5 -3.5t2 -3.5t1 -4.5v-5.5q0 -6 -3 -10.5t-5.5 -6t-9.5 -4.5t-8 -3q-59 -25 -81 -21t-68 48q-13 13 -51 55q-13 16 -10.5 32.5t19.5 27.5z" />
    <glyph glyph-name="oacute" unicode="&#xf3;" horiz-adv-x="272" 
d="M137 403q56 -21 96.5 -86t35.5 -126q-7 -86 -88 -134q-38 -18 -63.5 -12t-58.5 34q-38 32 -50 69t-1 72t26 63t34.5 54t22.5 33q1 1 -2.5 4t-6 8t0.5 14q23 20 54 7zM140 134q74 59 73 140q-2 41 -42 50q-21 -20 -53 -82t-36 -85q-9 -42 33 -33q16 4 25 10zM163 698
q30 -32 35 -89q-57 -33 -89 -118q0 -1 -1.5 -4t-2 -4.5t-1.5 -4t-2 -3.5t-2 -3t-2.5 -3t-3.5 -2l-4 -2t-5 -1q-25 -4 -29 21q-5 37 -5.5 50.5t1 45t14.5 58.5t36 57q13 16 30 16.5t31 -14.5z" />
    <glyph glyph-name="ocircumflex" unicode="&#xf4;" horiz-adv-x="272" 
d="M137 403q56 -21 96.5 -86t35.5 -126q-7 -86 -88 -134q-38 -18 -63.5 -12t-58.5 34q-38 32 -50 69t-1 72t26 63t34.5 54t22.5 33q1 1 -2.5 4t-6 8t0.5 14q23 20 54 7zM140 134q74 59 73 140q-2 41 -42 50q-21 -20 -53 -82t-36 -85q-9 -42 33 -33q16 4 25 10zM205 504
q-20 12 -65 44q-19 -4 -41 -24q-5 -4 -14 -12.5t-14 -12.5q-10 -10 -20 -6q-6 2 -12.5 6t-5.5 7q2 25 11 34q10 11 22 23t28 26t24 22q3 3 15 10q5 -3 19 -11t20 -12t17 -11t16 -12.5t11.5 -12.5t9 -15t2.5 -16q0 -21 -23 -27z" />
    <glyph glyph-name="otilde" unicode="&#xf5;" horiz-adv-x="272" 
d="M137 403q56 -21 96.5 -86t35.5 -126q-7 -86 -88 -134q-38 -18 -63.5 -12t-58.5 34q-38 32 -50 69t-1 72t26 63t34.5 54t22.5 33q1 1 -2.5 4t-6 8t0.5 14q23 20 54 7zM140 134q74 59 73 140q-2 41 -42 50q-21 -20 -53 -82t-36 -85q-9 -42 33 -33q16 4 25 10zM5 532
q28 25 29 26q30 28 41 34q48 26 87 -12l46 -46q4 -4 14 -12q14 -10 22 -10t22 10q10 8 16 11h6q0 -1 1 -3q1 -3 0 -4q-20 -18 -31 -24q-24 -13 -45 3q-20 16 -44 40q-5 4 -28 27q-32 28 -64 2q-25 -22 -43 -41q-11 -13 -29 -1z" />
    <glyph glyph-name="odieresis" unicode="&#xf6;" horiz-adv-x="272" 
d="M137 403q56 -21 96.5 -86t35.5 -126q-7 -86 -88 -134q-38 -18 -63.5 -12t-58.5 34q-38 32 -50 69t-1 72t26 63t34.5 54t22.5 33q1 1 -2.5 4t-6 8t0.5 14q23 20 54 7zM140 134q74 59 73 140q-2 41 -42 50q-21 -20 -53 -82t-36 -85q-9 -42 33 -33q16 4 25 10zM75 595
q29 6 35 -21q2 -7 3 -21t2 -18h-2v-20q-2 -12 -14 -14q-18 -2 -50 -8q-17 -3 -22 12q-8 42 -10 64q-2 15 17 17q22 3 41 9zM228 575q2 -6 5 -26q-1 -3 -3 -11.5t-4.5 -14.5t-6.5 -8q-14 -8 -54 -8q-3 -1 -7.5 4t-5.5 10q-9 32 -10 55q-1 13 3.5 17.5t19.5 6.5q3 0 8 1t8 1
q21 5 31.5 -1t15.5 -26z" />
    <glyph glyph-name="divide" unicode="&#xf7;" horiz-adv-x="276" 
d="M175 344q6 -41 -33 -47q-9 -1 -54 -4v2q-4 1 -14 2t-14 1q-16 1 -19 21q-1 24 -7 70q-3 26 19 29q50 9 90 10q21 0 23 -26q3 -30 9 -58zM133 3q-7 -1 -36 -5q-4 2 -16 5t-20 7t-11 10q-9 20 -7 77q-1 4 7 10t14 7q35 8 77 10q20 0 26 -7t7 -27q0 -16 1 -23q5 -30 -4 -44
t-38 -20zM-6 188q-60 31 -16 39q23 5 74 5q28 0 55.5 -1t57.5 -3l45 -3q53 -3 54 -22q2 -15 -24 -20q-13 -3 -28 -2q-28 2 -81 2.5t-91.5 1t-45.5 3.5z" />
    <glyph glyph-name="oslash" unicode="&#xf8;" horiz-adv-x="272" 
d="M270 420q8 5 14 1.5t2 -12.5q-34 -62 -52 -93q40 -62 35 -125q-7 -86 -88 -134q-53 -31 -108 10l-43 -55q-3 -6 -8.5 -5.5t-7.5 5.5t0 11q13 20 37 62q-34 31 -43.5 67.5t1.5 70.5t26.5 61.5t34 53t21.5 32.5q1 1 -2.5 4t-6 8t0.5 14q23 20 54 7q43 -16 78 -61
q19 26 55 78zM82 157q-3 -14 -1 -21q27 48 58 96t55 81q-10 8 -23 11q-21 -20 -53 -82t-36 -85zM140 134q74 59 73 140v5q-52 -86 -100 -156q1 0 1 0.5t1 0.5q16 4 25 10z" />
    <glyph glyph-name="ugrave" unicode="&#xf9;" horiz-adv-x="329" 
d="M342 176q18 27 36.5 9.5t24.5 -45.5q-21 -35 -47.5 -50.5t-49 -12t-38.5 20.5q-35 39 -38 124q6 -118 -67 -200q-16 -18 -39 -19t-38 7.5t-22 16.5q-57 69 -60 186q0 32 -3 62q-9 51 17 83q23 27 46 5q7 -7 10.5 -19.5t4.5 -22.5t1.5 -26.5t0.5 -21.5q1 -24 0.5 -48
t0 -49t4.5 -36q17 -85 45 -81t43 88q11 59 9 133q0 10 6.5 18t15.5 8q20 1 43 -6.5t26 -19.5q10 -34 10 -61t14 -65q9 -24 29 -2q8 8 15 24zM9 692q22 14 41.5 18t52.5 1q22 -62 100 -108q1 -1 4 -2.5l4 -2t3.5 -2t3.5 -2.5t2.5 -3t2.5 -3.5t2 -3.5t1 -4.5v-5.5
q0 -6 -3 -10.5t-5.5 -6t-9.5 -4.5t-8 -3q-59 -25 -81 -21t-68 48q-13 13 -51 55q-13 16 -10.5 32.5t19.5 27.5z" />
    <glyph glyph-name="uacute" unicode="&#xfa;" horiz-adv-x="329" 
d="M135 714q30 -32 35 -89q-57 -33 -89 -118q0 -1 -1.5 -4t-2 -4.5t-1.5 -4t-2 -3.5t-2 -3t-2.5 -3t-3.5 -2l-4 -2t-5 -1q-25 -4 -29 21q-5 37 -5.5 50.5t1 45t14.5 58.5t36 57q13 16 30 16.5t31 -14.5zM342 176q18 27 36.5 9.5t24.5 -45.5q-21 -35 -47.5 -50.5t-49 -12
t-38.5 20.5q-35 39 -38 124q6 -118 -67 -200q-16 -18 -39 -19t-38 7.5t-22 16.5q-57 69 -60 186q0 32 -3 62q-9 51 17 83q23 27 46 5q7 -7 10.5 -19.5t4.5 -22.5t1.5 -26.5t0.5 -21.5q1 -24 0.5 -48t0 -49t4.5 -36q17 -85 45 -81t43 88q11 59 9 133q0 10 6.5 18t15.5 8
q20 1 43 -6.5t26 -19.5q10 -34 10 -61t14 -65q9 -24 29 -2q8 8 15 24z" />
    <glyph glyph-name="ucircumflex" unicode="&#xfb;" horiz-adv-x="329" 
d="M342 176q18 27 36.5 9.5t24.5 -45.5q-21 -35 -47.5 -50.5t-49 -12t-38.5 20.5q-35 39 -38 124q6 -118 -67 -200q-16 -18 -39 -19t-38 7.5t-22 16.5q-57 69 -60 186q0 32 -3 62q-9 51 17 83q23 27 46 5q7 -7 10.5 -19.5t4.5 -22.5t1.5 -26.5t0.5 -21.5q1 -24 0.5 -48
t0 -49t4.5 -36q17 -85 45 -81t43 88q11 59 9 133q0 10 6.5 18t15.5 8q20 1 43 -6.5t26 -19.5q10 -34 10 -61t14 -65q9 -24 29 -2q8 8 15 24zM177 512q-20 12 -65 44q-19 -4 -41 -24q-5 -4 -14 -12.5t-14 -12.5q-10 -10 -20 -6q-6 2 -12.5 6t-5.5 7q2 25 11 34q10 11 22 23
t28 26t24 22q3 3 15 10q5 -3 19 -11t20 -12t17 -11t16 -12.5t11.5 -12.5t9 -15t2.5 -16q0 -21 -23 -27z" />
    <glyph glyph-name="udieresis" unicode="&#xfc;" horiz-adv-x="329" 
d="M62 590q30 7 37 -22q3 -14 5 -41h-1q0 -3 -0.5 -10t-0.5 -11q-1 -12 -15 -15q-15 -2 -53 -8q-19 -3 -22 13q-8 37 -11 67q-2 16 18 18q15 3 43 9zM223 569q2 -4 3.5 -13t2.5 -14q-1 -3 -3 -12t-5 -15.5t-7 -8.5q-11 -7 -57 -9q-3 0 -7.5 5t-6.5 10q-9 33 -10 58
q-1 15 3.5 19.5t20.5 6.5q12 0 17 2q40 10 49 -29zM342 176q18 27 36.5 9.5t24.5 -45.5q-21 -35 -47.5 -50.5t-49 -12t-38.5 20.5q-35 39 -38 124q6 -118 -67 -200q-16 -18 -39 -19t-38 7.5t-22 16.5q-57 69 -60 186q0 32 -3 62q-9 51 17 83q23 27 46 5q7 -7 10.5 -19.5
t4.5 -22.5t1.5 -26.5t0.5 -21.5q1 -24 0.5 -48t0 -49t4.5 -36q17 -85 45 -81t43 88q11 59 9 133q0 10 6.5 18t15.5 8q20 1 43 -6.5t26 -19.5q10 -34 10 -61t14 -65q9 -24 29 -2q8 8 15 24z" />
    <glyph glyph-name="yacute" unicode="&#xfd;" horiz-adv-x="342" 
d="M232 134v-57q-8 -235 -8 -282q0 -32 14 -90q8 -29 27 -62q7 -13 20 -18.5t19 0.5q5 4 6 9.5t0.5 9t-2.5 10t-3 9.5t-4 9t-4 10q-1 8 -5.5 25t-6.5 29.5t-2 24.5q0 51 9 202q1 20 4 58t4 57q14 190 18 285q1 20 -14 69q-10 24 -26 23q-5 -1 -8.5 -2.5t-6 -5.5t-3.5 -6
t-3 -8.5t-2 -7.5q-2 -8 -3 -13q-8 -28 -23.5 -83t-23.5 -83q-11 -40 -40 -52q-24 48 -33 63q-35 57 -44 68q-21 24 -40.5 20.5t-31.5 -32.5q-12 -27 -25 -81q-7 -26 -0.5 -38t33.5 -26q1 2 5 7.5t6 8.5q3 7 10.5 26.5t12.5 29.5q6 13 17 13q8 0 17 -13q2 -3 5 -10.5t5 -10.5
q42 -71 53 -87q13 -18 25.5 -19t32.5 11q2 2 19 10zM201 706q30 -32 35 -89q-57 -33 -89 -118q0 -1 -1.5 -4t-2 -4.5t-1.5 -4t-2 -3.5t-2 -3t-2.5 -3t-3.5 -2l-4 -2t-5 -1q-25 -4 -29 21q-5 37 -5.5 50.5t1 45t14.5 58.5t36 57q13 16 30 16.5t31 -14.5z" />
    <glyph glyph-name="thorn" unicode="&#xfe;" horiz-adv-x="290" 
d="M-16 698q1 19 10.5 25t25.5 -3q27 -17 37 -39t10 -59q-2 -72 -2 -86q1 -18 3 -55t2 -56l22 7q65 23 113 -12t66 -95t13.5 -124t-32.5 -95q-31 -35 -57 -42q-76 -19 -131 -8q0 -4 -0.5 -12t-0.5 -11q2 -37 2 -49t-2 -29t-2 -22q4 -22 -18 -20q-28 2 -52 24q-9 8 -7 13
q1 12 0.5 35.5t-0.5 34.5q1 36 3.5 150.5t3.5 177.5q0 20 -4 173.5t-3 176.5zM66 159q-1 -26 -1 -76q35 -7 72 10t58 45q22 34 30 85.5t-6.5 99.5t-52.5 62q-41 11 -95 -15q-1 -36 -3 -106t-2 -105z" />
    <glyph glyph-name="ydieresis" unicode="&#xff;" horiz-adv-x="342" 
d="M232 134v-57q-8 -235 -8 -282q0 -32 14 -90q8 -29 27 -62q7 -13 20 -18.5t19 0.5q5 4 6 9.5t0.5 9t-2.5 10t-3 9.5t-4 9t-4 10q-1 8 -5.5 25t-6.5 29.5t-2 24.5q0 51 9 202q1 20 4 58t4 57q14 190 18 285q1 20 -14 69q-10 24 -26 23q-5 -1 -8.5 -2.5t-6 -5.5t-3.5 -6
t-3 -8.5t-2 -7.5q-2 -8 -3 -13q-8 -28 -23.5 -83t-23.5 -83q-11 -40 -40 -52q-24 48 -33 63q-35 57 -44 68q-21 24 -40.5 20.5t-31.5 -32.5q-12 -27 -25 -81q-7 -26 -0.5 -38t33.5 -26q1 2 5 7.5t6 8.5q3 7 10.5 26.5t12.5 29.5q6 13 17 13q8 0 17 -13q2 -3 5 -10.5t5 -10.5
q42 -71 53 -87q13 -18 25.5 -19t32.5 11q2 2 19 10zM110 604q31 8 38 -23q2 -9 3 -23.5t2 -19.5h-2v-22q-1 -13 -16 -16q-21 -2 -53 -8q-20 -5 -23 13q-10 45 -12 70q-2 17 19 20q20 3 44 9zM275 582q1 -4 5 -28q-1 -3 -3 -12.5t-4.5 -16.5t-6.5 -9q-16 -9 -59 -9
q-3 -1 -8 4.5t-6 10.5q-7 24 -11 61q-1 15 4 20t21 7q3 0 8.5 0.5t8.5 1.5q22 5 33.5 -1.5t17.5 -28.5z" />
    <glyph glyph-name="Abreve" unicode="&#x102;" horiz-adv-x="513" 
d="M20 155q-7 -30 -24 -95q-5 -20 12.5 -38t44.5 -26q12 9 35 97t33 92q5 1 17 5t17 5q10 3 30.5 9.5t30.5 9.5q17 4 50 15t50 15q18 5 24.5 1.5t11.5 -19.5q20 -57 33 -102q19 -69 69 -135q7 -12 26 -27q11 -7 20 -3.5t11 17.5q3 24 -13 40q-36 38 -54 85q-8 24 -24.5 68
t-21.5 60q0 1 -0.5 4.5t-1.5 4.5q-6 19 12 30q28 20 55 25q59 13 78 29q20 16 9 40q-5 13 -30 13q-4 0 -22 -5q-80 -15 -131 -23q-2 3 -6.5 11.5t-6.5 13.5q-4 9 -31.5 78.5t-43.5 105.5q-4 10 -67 133q-10 22 -30 18q-14 -3 -20 -23q-1 -2 -1 -3q-1 -5 -15.5 -50t-20.5 -69
q-39 -154 -61 -264q-12 -57 -63 -65q-5 -1 -17 -3.5t-18 -4.5q-17 -3 -31 -10q-26 -12 -16 -38q12 -35 58 -29q2 0 43 7zM150 278q-9 -3 11.5 53t49 116.5t38.5 70.5q1 -2 10 -27q36 -90 51 -135q5 -15 2 -21t-17 -11q-27 -8 -76.5 -24t-68.5 -22zM193 614q3 -5 3.5 -9.5
t-1.5 -9t-3.5 -7t-5.5 -7.5t-5 -7q-1 0 -3 0.5t-3 0.5q5 25 10 39h8zM89 898q5 8 13 6t6 -11q-11 -46 11 -75t58.5 -34.5t76.5 8t62 44.5q3 8 3 15t-2.5 18.5t-2.5 15.5q1 9 9.5 9t10.5 -8q1 -7 4.5 -20.5t4 -19.5t-1.5 -20q-14 -57 -91.5 -76.5t-135 21t-25.5 127.5z" />
    <glyph glyph-name="abreve" unicode="&#x103;" 
d="M379 219q8 24 26 6q21 -19 16 -46q-1 -6 -3 -11q-10 -18 -29 -39.5t-44.5 -42.5t-54 -20t-49.5 30q-1 2 -5 10.5t-8 14.5t-9.5 12t-11.5 6t-12 -8q-5 -6 -14.5 -17t-16 -18t-16 -16.5t-18.5 -14t-19.5 -8.5t-23 -3.5t-25.5 5.5q0 1 -2 1t-2 1q-28 19 -39 48.5t-15 72.5
q-4 88 38.5 150t126.5 91q58 20 76 -43q3 -21 -3 -30.5t-29 -14.5q-63 -21 -109 -61t-46 -98q-2 -20 33 -20t43 12q11 16 20 26.5t12 13t8 11t10.5 21t18.5 42.5q16 36 49 19q22 -11 23 -26q0 -3 -2 -5q-6 -8 -11.5 -43t-3.5 -43q23 -96 76 -38q19 20 45 73zM13 682
q5 8 13 6t6 -11q-11 -46 11 -75t58.5 -34.5t76.5 8t62 44.5q3 8 3 15t-2.5 18.5t-2.5 15.5q1 9 9.5 9t10.5 -8q1 -7 4.5 -20.5t4 -19.5t-1.5 -20q-14 -57 -91.5 -76.5t-135 21t-25.5 127.5z" />
    <glyph glyph-name="Aogonek" unicode="&#x104;" horiz-adv-x="513" 
d="M20 155q-41 -7 -43 -7q-46 -6 -58 29q-10 26 16 38q14 7 31 10q6 2 18 4.5t17 3.5q51 8 63 65q22 110 61 264q4 18 10.5 38t14 43.5t11.5 37.5q0 1 1 3q6 20 20 23q20 4 30 -18q63 -123 67 -133q16 -36 43.5 -105.5t31.5 -78.5q2 -5 6.5 -13.5t6.5 -11.5q51 8 131 23
q18 5 22 5q25 0 30 -13q11 -24 -9 -40q-19 -16 -78 -29q-27 -5 -55 -25q-18 -11 -12 -30q1 -1 1.5 -4.5t0.5 -4.5q5 -16 21.5 -60t24.5 -68q18 -47 54 -85q16 -16 13 -40q-2 -14 -11 -17.5t-20 3.5q-19 15 -26 27q-50 66 -69 135q-13 45 -33 102q-5 16 -11.5 19.5
t-24.5 -1.5q-17 -4 -50 -15t-50 -15q-10 -3 -30.5 -9.5t-30.5 -9.5q-5 -1 -17 -5t-17 -5q-10 -4 -33 -92t-35 -97q-27 8 -44.5 26t-12.5 38q17 65 24 95zM150 278q19 6 68.5 22t76.5 24q14 5 17 11t-2 21q-15 45 -51 135q-9 25 -10 27q-19 -19 -72 -147q-40 -97 -27 -93z
M193 614h-8q-5 -14 -10 -39q1 0 3 -0.5t3 -0.5q1 2 5 7t5.5 7.5t3.5 7t1.5 9t-3.5 9.5zM438 10q-1 2 5.5 8t16 8.5t20.5 -4.5q7 -6 8 -13.5t-6 -19.5t-12 -18t-18 -23q-40 -50 -2 -88q19 -15 34 -9.5t19 17.5q9 28 40 26q18 -3 14.5 -22t-18.5 -32q-27 -20 -68.5 -15.5
t-72.5 27.5q-21 14 -18 35.5t16 40t32 34.5q10 8 14.5 15t4 13t-1.5 9.5t-4 6.5z" />
    <glyph glyph-name="aogonek" unicode="&#x105;" 
d="M239 96q-1 2 5.5 8t16 8.5t20.5 -4.5q7 -6 8 -13.5t-6 -19.5t-12 -18t-18 -23q-40 -50 -2 -88q19 -15 34 -9.5t19 17.5q9 28 40 26q18 -3 14.5 -22t-18.5 -32q-27 -20 -68.5 -15.5t-72.5 27.5q-21 14 -18 35.5t16 40t32 34.5q10 8 14.5 15t4 13t-1.5 9.5t-4 6.5zM379 219
q8 24 26 6q21 -19 16 -46q-1 -6 -3 -11q-10 -18 -29 -39.5t-44.5 -42.5t-54 -20t-49.5 30q-1 2 -5 10.5t-8 14.5t-9.5 12t-11.5 6t-12 -8q-5 -6 -14.5 -17t-16 -18t-16 -16.5t-18.5 -14t-19.5 -8.5t-23 -3.5t-25.5 5.5q0 1 -2 1t-2 1q-28 19 -39 48.5t-15 72.5
q-4 88 38.5 150t126.5 91q58 20 76 -43q3 -21 -3 -30.5t-29 -14.5q-63 -21 -109 -61t-46 -98q-2 -20 33 -20t43 12q11 16 20 26.5t12 13t8 11t10.5 21t18.5 42.5q16 36 49 19q22 -11 23 -26q0 -3 -2 -5q-6 -8 -11.5 -43t-3.5 -43q23 -96 76 -38q19 20 45 73z" />
    <glyph glyph-name="Cacute" unicode="&#x106;" horiz-adv-x="456" 
d="M133 101h-2q-17 65 -25 103q-17 72 12 191q18 71 46 137q23 56 70 94q55 43 106 0q27 -24 56 -62q16 -21 31 -12q6 3 10.5 11.5t3.5 13.5q-7 28 -22 43q-5 5 -10.5 10t-12 9t-11.5 7t-13.5 7t-12.5 6t-14 5.5t-13 5t-14 5t-13 4.5q-108 39 -175 -41q-69 -81 -84 -155
q-3 -15 -12 -46.5t-13 -48.5q-20 -100 -19 -125q3 -93 51 -180q30 -57 94 -83q16 -5 67 -19q160 -41 250 122q8 19 5 28q-10 30 -25 41q-13 9 -36 -14q-8 -8 -31.5 -32t-36.5 -38q-35 -40 -85 -58q-37 -15 -60 -6.5t-41 41.5zM396 942q30 -32 35 -89q-57 -33 -89 -118
q0 -1 -1.5 -4t-2 -4.5t-1.5 -4t-2 -3.5t-2 -3t-2.5 -3t-3.5 -2l-4 -2t-5 -1q-25 -4 -29 21q-5 37 -5.5 50.5t1 45t14.5 58.5t36 57q13 16 30 16.5t31 -14.5z" />
    <glyph glyph-name="cacute" unicode="&#x107;" horiz-adv-x="331" 
d="M312 236q22 33 45 39q18 5 18 -16q1 -10 -3 -25q-14 -62 -62 -137q-3 -5 -17 -17q-52 -43 -120.5 -36.5t-110.5 58.5q-20 24 -40.5 70.5t-17.5 96.5q2 28 15.5 63t47.5 68t79 35q40 2 63 -46q18 -39 6 -57q-6 -10 -20 -4q-46 20 -77.5 -5t-40.5 -69t-1 -89q29 -38 82 -29
q105 14 154 100zM330 678q30 -32 35 -89q-57 -33 -89 -118q0 -1 -1.5 -4t-2 -4.5t-1.5 -4t-2 -3.5t-2 -3t-2.5 -3t-3.5 -2l-4 -2t-5 -1q-25 -4 -29 21q-5 37 -5.5 50.5t1 45t14.5 58.5t36 57q13 16 30 16.5t31 -14.5z" />
    <glyph glyph-name="Ccaron" unicode="&#x10c;" horiz-adv-x="456" 
d="M133 101l21 -36q18 -33 41 -41.5t60 6.5q50 18 85 58q13 14 36.5 38t31.5 32q23 23 36 14q15 -11 25 -41q3 -9 -5 -28q-90 -163 -250 -122q-51 14 -67 19q-64 26 -94 83q-48 87 -51 180q-1 25 19 125q4 17 13 48.5t12 46.5q15 74 84 155q67 80 175 41q2 -1 13 -4.5t14 -5
t13 -5t14 -5.5t12.5 -6t13.5 -7t11.5 -7t12 -9t10.5 -10q15 -15 22 -43q1 -5 -3.5 -13.5t-10.5 -11.5q-15 -9 -31 12q-29 38 -56 62q-51 43 -106 0q-47 -38 -70 -94q-28 -66 -46 -137q-29 -119 -12 -191q8 -38 25 -103h2zM211 816q19 -10 68 -41q21 7 39 27q5 4 13.5 13
t13.5 13q2 3 8.5 5.5t10.5 1.5q6 -1 13 -5t6 -7q0 -24 -9 -34q-11 -13 -70 -75q-5 -5 -14 -11q-4 2 -15.5 7.5t-16 8t-14.5 8t-14.5 8.5t-12 8.5t-11 10t-8 10t-6.5 11.5t-2 12q-2 22 21 29z" />
    <glyph glyph-name="ccaron" unicode="&#x10d;" horiz-adv-x="331" 
d="M312 236q22 33 45 39q18 5 18 -16q1 -10 -3 -25q-14 -62 -62 -137q-3 -5 -17 -17q-52 -43 -120.5 -36.5t-110.5 58.5q-20 24 -40.5 70.5t-17.5 96.5q2 28 15.5 63t47.5 68t79 35q40 2 63 -46q18 -39 6 -57q-6 -10 -20 -4q-46 20 -77.5 -5t-40.5 -69t-1 -89q29 -38 82 -29
q105 14 154 100zM46 612q19 -10 68 -41q21 7 39 27q5 4 13.5 13t13.5 13q2 3 8.5 5.5t10.5 1.5q6 -1 13 -5t6 -7q0 -24 -9 -34q-11 -13 -70 -75q-5 -5 -14 -11q-4 2 -15.5 7.5t-16 8t-14.5 8t-14.5 8.5t-12 8.5t-11 10t-8 10t-6.5 11.5t-2 12q-2 22 21 29z" />
    <glyph glyph-name="Dcaron" unicode="&#x10e;" horiz-adv-x="413" 
d="M5 609q26 1 47.5 -15.5t22.5 -35.5q0 -12 2 -34t2 -28q0 -18 1.5 -98t3.5 -123q1 -19 4.5 -40t9 -46.5t7.5 -39.5q1 -2 -1.5 -3t-6 -2t-7 -1.5t-5.5 -2t-2 -2.5q-25 -10 -48 -1.5t-29 32.5q-1 6 -17.5 57t-14.5 80q6 70 -1 170q-1 28 -18 141q-1 4 -17 32q12 29 56 40
q126 27 199 8q137 -37 192 -168q23 -90 9 -175t-61 -158.5t-107 -126t-128.5 -77t-125.5 -11.5q-39 3 -50 65q-1 7 -2.5 21.5t-2.5 21.5q23 -38 23 -39q13 -18 41.5 -26.5t74 3.5t90.5 51q72 68 113.5 141.5t49.5 136.5t-1.5 121t-35.5 100.5t-57 70.5t-61 35q-48 11 -96 -1
q-32 -7 -44 -24t-9 -49zM62 848q19 -10 68 -41q21 7 39 27q5 4 13.5 13t13.5 13q2 3 8.5 5.5t10.5 1.5q6 -1 13 -5t6 -7q0 -24 -9 -34q-11 -13 -70 -75q-5 -5 -14 -11q-4 2 -15.5 7.5t-16 8t-14.5 8t-14.5 8.5t-12 8.5t-11 10t-8 10t-6.5 11.5t-2 12q-2 22 21 29z" />
    <glyph glyph-name="dcaron" unicode="&#x10f;" horiz-adv-x="364" 
d="M324 549l-11 72q21 7 39 27q5 4 13.5 13t13.5 13q2 3 8.5 5.5t10.5 1.5q6 -1 13 -5t6 -7q0 -24 -9 -34q-11 -13 -70 -75q-5 -5 -14 -11zM231 192q17 -9 39 -13t54 7t53 43q4 2 7 -7q12 -29 6 -62q0 -4 -1 -7q-1 -5 -10 -12q-27 -20 -59 -24.5t-53 1.5t-40.5 8.5
t-23.5 -3.5q-36 -45 -56 -58q-19 -15 -50.5 -20.5t-50.5 8.5q-36 31 -34 93t47 134l-7 18q-7 18 -15.5 40.5t-10.5 32.5q-32 126 -16 212q20 113 107 178q38 28 78 17t59 -54q43 -96 34 -251q-4 -127 -57 -281zM67 411q18 -73 24 -72q3 -10 4 -10t7 5t8 6q9 6 15 5.5
t8.5 -3.5t7.5 -12t10 -15q6 -11 -2 -21q-6 -7 -12 -11.5t-10 -8.5t-11 -14q0 -1 3 -4.5t9.5 -10l10.5 -10.5q2 -3 14 -4.5t14 2.5q83 167 69 410q-2 23 -6 42q-9 43 -44 20q-36 -25 -60 -54q-83 -102 -59 -240zM66 140q8 -21 29 -8t32 32q2 3 0.5 11.5t-3.5 11.5
q-1 2 -5.5 8.5t-8 12t-7.5 11t-7 8t-4 1.5q-14 -17 -20.5 -39t-5.5 -35v-14z" />
    <glyph glyph-name="Dcroat" unicode="&#x110;" horiz-adv-x="413" 
d="M5 609q26 1 47.5 -15.5t22.5 -35.5q0 -12 2 -34t2 -28q1 -29 1 -87q24 0 42 -2q9 -1 15 -3.5t10 -8t5.5 -9.5t3.5 -12.5t4 -12.5q3 -12 0.5 -19.5t-7.5 -11.5l-5 -4q-30 -3 -66 -6q0 -15 2 -45q1 -19 4.5 -40t9 -46.5t7.5 -39.5q1 -2 -1.5 -3t-6 -2t-7 -1.5t-5.5 -2
t-2 -2.5q-25 -10 -48 -1.5t-29 32.5q-1 6 -17.5 57t-14.5 80q0 1 0.5 3t0.5 4q-30 -2 -35 1q-14 5 -33 39q-20 49 9 54q37 0 61 1q-2 44 -4 68q-1 28 -18 141q-1 4 -17 32q12 29 56 40q126 27 199 8q137 -37 192 -168q23 -90 9 -175t-61 -158.5t-107 -126t-128.5 -77
t-125.5 -11.5q-39 3 -50 65l-5 43q23 -38 23 -39q13 -18 41.5 -26.5t74 3.5t90.5 51q72 68 113.5 141.5t49.5 136.5t-1.5 121t-35.5 100.5t-57 70.5t-61 35q-48 11 -96 -1q-32 -7 -44 -24t-9 -49z" />
    <glyph glyph-name="dcroat" unicode="&#x111;" horiz-adv-x="364" 
d="M287 500q0 -20 -1 -30q-4 -127 -57 -281q17 -9 39 -13t54 7t53 43q4 2 7 -7q12 -29 6 -62q0 -4 -1 -7q-1 -5 -10 -12q-27 -20 -59 -24.5t-53 1.5t-40.5 8.5t-23.5 -3.5q-36 -45 -56 -58q-19 -15 -50.5 -20.5t-50.5 8.5q-36 31 -34 93t47 134l-7 18q-7 18 -15.5 40.5
t-10.5 32.5q-32 126 -16 212q20 113 107 178q38 28 78 17t59 -54q31 -68 36 -166h-2l2 -1v1q6 0 20 0.5t21.5 0t18.5 -1.5t20.5 -3.5t18.5 -6.5q9 -2 9 -19t-9 -19q-63 -8 -100 -6v1v-1zM125 161q2 3 0.5 11.5t-3.5 11.5q-1 2 -5.5 8.5t-8 12t-7.5 11t-7 8t-4 1.5
q-14 -17 -20.5 -39t-5.5 -36v-13q8 -21 29 -8t32 32zM165 230q57 115 69 272l-13 11q-13 5 -22.5 13t-25.5 12q-4 12 -3.5 21t9.5 19q9 0 18.5 -2.5t21 -7.5t17.5 -7v-1l1 1h-1q0 53 -2 79q-2 23 -6 42q-9 43 -44 20q-36 -25 -60 -54q-83 -102 -59 -240q18 -73 24 -72
q3 -10 4 -10t7 5t8 6q9 6 15 5.5t8.5 -3.5t7.5 -12t10 -15q6 -11 -2 -21q-6 -7 -12 -11.5t-10 -8.5t-11 -14q0 -1 3 -4.5t9.5 -10l10.5 -10.5q2 -3 14 -4.5t14 2.5z" />
    <glyph glyph-name="Eogonek" unicode="&#x118;" horiz-adv-x="494" 
d="M184 28q-3 -7 0.5 -16t5 -13.5t-7.5 -12.5q-6 -4 -12.5 -3.5t-9.5 2.5t-9.5 6.5t-8.5 6.5q-21 15 -46 6q-34 -11 -60 -12q-34 -5 -44 8q-16 18 -30 62q-1 4 6.5 11t14.5 9q11 4 86 23q0 11 1 36t1 39.5t-3.5 36t-10.5 39.5l-5 2q-5 2 -7 1q-33 -7 -51.5 8.5t-35.5 48.5
q-19 33 20 45q11 3 32 5t28 4q25 5 25 15q10 108 4 163h-16t-13 1q-25 13 -29 17q-8 10 -24 45q-8 20 -3 28.5t27 13.5q10 2 58 13q-2 11 -4 30.5t-2 21.5q6 2 11.5 2t9 -1t8.5 -4t7 -4.5t6.5 -6l5.5 -5.5q27 -25 81 -16q95 14 102 15q40 1 50 -6t19 -45q1 -4 2.5 -13
t2.5 -13q0 -1 -0.5 -2.5t-1 -4t-0.5 -4.5q-31 -14 -84 -16q-8 0 -28.5 -0.5t-30.5 -1.5t-26 -4.5t-28 -9.5q-18 -12 -20 -26q-3 -43 -3 -129q0 -3 1 -6.5t3 -8.5t3 -9q6 2 25 6.5t29 7.5q24 7 151 49q26 8 39 1t19 -31q4 -14 10 -61q-37 -1 -74.5 -11.5t-84 -27.5t-70.5 -24
q-33 -11 -42.5 -23.5t-8.5 -44.5q1 -21 4.5 -61t4.5 -57q68 21 104 31q124 32 187 46q26 6 36 -0.5t16 -31.5q1 -7 3.5 -21t3.5 -21q-40 -3 -161 -38.5t-158 -58.5zM161 -14q-1 2 5.5 8t16 8.5t20.5 -4.5q7 -6 8 -13.5t-6 -19.5t-12 -18t-18 -23q-40 -50 -2 -88
q19 -15 34 -9.5t19 17.5q9 28 40 26q18 -3 14.5 -22t-18.5 -32q-27 -20 -68.5 -15.5t-72.5 27.5q-21 14 -18 35.5t16 40t32 34.5q10 8 14.5 15t4 13t-1.5 9.5t-4 6.5z" />
    <glyph glyph-name="eogonek" unicode="&#x119;" horiz-adv-x="281" 
d="M83 137q46 -24 71 -16q57 20 106 99q3 3 7.5 12.5t11 15.5t15.5 4q17 -13 17 -42t-12 -53q-25 -50 -71 -87q-33 -27 -71.5 -24.5t-69 18.5t-48.5 38q-3 5 -31.5 2.5t-39.5 13.5q-4 7 6 21.5t22 25.5l12 11q0 2 -1 21.5t-1 35t2.5 39.5t8.5 42.5t18 37.5t29 30
q30 24 70.5 15.5t58.5 -41.5q14 -33 10.5 -63t-26 -61.5t-45.5 -54t-49 -40.5zM129 323q-36 -10 -53.5 -30t-18.5 -62q-1 -25 28 5q35 36 44 70q3 11 0 17zM151 40q-1 2 5.5 8t16 8.5t20.5 -4.5q7 -6 8 -13.5t-6 -19.5t-12 -18t-18 -23q-40 -50 -2 -88q19 -15 34 -9.5
t19 17.5q9 28 40 26q18 -3 14.5 -22t-18.5 -32q-27 -20 -68.5 -15.5t-72.5 27.5q-21 14 -18 35.5t16 40t32 34.5q10 8 14.5 15t4 13t-1.5 9.5t-4 6.5z" />
    <glyph glyph-name="Ecaron" unicode="&#x11a;" horiz-adv-x="494" 
d="M184 28q-3 -7 0.5 -16t5 -13.5t-7.5 -12.5q-6 -4 -12.5 -3.5t-9.5 2.5t-9.5 6.5t-8.5 6.5q-21 15 -46 6q-34 -11 -60 -12q-34 -5 -44 8q-16 18 -30 62q-1 4 6.5 11t14.5 9q11 4 86 23q0 11 1 36t1 39.5t-3.5 36t-10.5 39.5l-5 2q-5 2 -7 1q-33 -7 -51.5 8.5t-35.5 48.5
q-19 33 20 45q11 3 32 5t28 4q25 5 25 15q10 108 4 163h-16t-13 1q-25 13 -29 17q-8 10 -24 45q-8 20 -3 28.5t27 13.5q10 2 58 13q-2 11 -4 30.5t-2 21.5q6 2 11.5 2t9 -1t8.5 -4t7 -4.5t6.5 -6l5.5 -5.5q27 -25 81 -16q95 14 102 15q40 1 50 -6t19 -45q1 -4 2.5 -13
t2.5 -13q0 -1 -0.5 -2.5t-1 -4t-0.5 -4.5q-31 -14 -84 -16q-8 0 -28.5 -0.5t-30.5 -1.5t-26 -4.5t-28 -9.5q-18 -12 -20 -26q-3 -43 -3 -129q0 -3 1 -6.5t3 -8.5t3 -9q6 2 25 6.5t29 7.5q24 7 151 49q26 8 39 1t19 -31q4 -14 10 -61q-37 -1 -74.5 -11.5t-84 -27.5t-70.5 -24
q-33 -11 -42.5 -23.5t-8.5 -44.5q1 -21 4.5 -61t4.5 -57q68 21 104 31q124 32 187 46q26 6 36 -0.5t16 -31.5q1 -7 3.5 -21t3.5 -21q-40 -3 -161 -38.5t-158 -58.5zM122 896q19 -10 68 -41q21 7 39 27q5 4 13.5 13t13.5 13q2 3 8.5 5.5t10.5 1.5q6 -1 13 -5t6 -7
q0 -24 -9 -34q-11 -13 -70 -75q-5 -5 -14 -11q-4 2 -15.5 7.5t-16 8t-14.5 8t-14.5 8.5t-12 8.5t-11 10t-8 10t-6.5 11.5t-2 12q-2 22 21 29z" />
    <glyph glyph-name="ecaron" unicode="&#x11b;" horiz-adv-x="281" 
d="M83 137q46 -24 71 -16q57 20 106 99q3 3 7.5 12.5t11 15.5t15.5 4q17 -13 17 -42t-12 -53q-25 -50 -71 -87q-33 -27 -71.5 -24.5t-69 18.5t-48.5 38q-3 5 -31.5 2.5t-39.5 13.5q-4 7 6 21.5t22 25.5l12 11q0 2 -1 21.5t-1 35t2.5 39.5t8.5 42.5t18 37.5t29 30
q30 24 70.5 15.5t58.5 -41.5q14 -33 10.5 -63t-26 -61.5t-45.5 -54t-49 -40.5zM129 323q-36 -10 -53.5 -30t-18.5 -62q-1 -25 28 5q35 36 44 70q3 11 0 17zM24 612q19 -10 68 -41q21 7 39 27q5 4 13.5 13t13.5 13q2 3 8.5 5.5t10.5 1.5q6 -1 13 -5t6 -7q0 -24 -9 -34
q-11 -13 -70 -75q-5 -5 -14 -11q-4 2 -15.5 7.5t-16 8t-14.5 8t-14.5 8.5t-12 8.5t-11 10t-8 10t-6.5 11.5t-2 12q-2 22 21 29z" />
    <glyph glyph-name="dotlessi" unicode="&#x131;" horiz-adv-x="116" 
d="M76 195q-2 -46 20 -73q19 -24 15 -58q-4 -31 -26 -19q-9 5 -20 17q-84 95 -57 243q1 7 8 29.5t9 29.5q34 11 52 -5.5t17 -46t-9 -59.5q-7 -22 -9 -58z" />
    <glyph glyph-name="Lacute" unicode="&#x139;" horiz-adv-x="405" 
d="M123 29q35 22 146.5 56.5t150.5 38.5q-1 7 -3.5 20.5t-3.5 20.5q-5 24 -14 30t-34 1q-87 -21 -174 -45q-16 -4 -38 -12t-38 -13q-7 95 -8 114q-1 31 0 153t2 152q0 104 -55 138q-3 2 -12 10t-13.5 8.5t-19.5 -0.5q4 -32 6 -50q-6 -1 -8 -53t-0.5 -129t3.5 -152.5t4 -139
t2 -73.5q-62 -16 -79 -22q-6 -2 -13.5 -9t-6.5 -10q12 -41 28 -61q8 -10 41 -8q26 1 56 13q22 7 42 -7q2 -1 6.5 -5t7 -5.5t7 -3.5t8.5 -1.5t9 3.5q8 8 6.5 12.5l-4.5 13.5t-1 15zM271 898q30 -32 35 -89q-57 -33 -89 -118q0 -1 -1.5 -4t-2 -4.5t-1.5 -4t-2 -3.5t-2 -3
t-2.5 -3t-3.5 -2l-4 -2t-5 -1q-25 -4 -29 21q-5 37 -5.5 50.5t1 45t14.5 58.5t36 57q13 16 30 16.5t31 -14.5z" />
    <glyph glyph-name="lacute" unicode="&#x13a;" horiz-adv-x="230" 
d="M201 42q52 16 75 73q16 38 5 46q-3 2 -6 1q-85 -27 -107 -28q-19 -1 -39.5 18t-30 40.5t-1.5 28.5q137 119 131 342q5 59 -22 101q-17 28 -43.5 30t-48.5 -22q-102 -122 -115.5 -286t48.5 -267.5t154 -76.5zM178 595q8 -230 -97 -349q-20 99 3.5 191t93.5 158zM350 902
q30 -32 35 -89q-57 -33 -89 -118q0 -1 -1.5 -4t-2 -4.5t-1.5 -4t-2 -3.5t-2 -3t-2.5 -3t-3.5 -2l-4 -2t-5 -1q-25 -4 -29 21q-5 37 -5.5 50.5t1 45t14.5 58.5t36 57q13 16 30 16.5t31 -14.5z" />
    <glyph glyph-name="Lcaron" unicode="&#x13d;" horiz-adv-x="405" 
d="M123 29q-2 -6 1 -15l4.5 -13.5t-6.5 -12.5q-5 -3 -9 -3.5t-8.5 1.5t-7 3.5t-7 5.5t-6.5 5q-20 14 -42 7q-30 -12 -56 -13q-33 -2 -41 8q-16 20 -28 61q-1 3 6.5 10t13.5 9q17 6 79 22q0 10 -2 73.5t-4 139t-3.5 152.5t0.5 129t8 53q-2 18 -6 50q15 1 19.5 0.5t13.5 -8.5
t12 -10q55 -34 55 -138q-1 -30 -2 -152t0 -153q1 -19 8 -114q16 5 38 13t38 12q87 24 174 45q25 5 34 -1t14 -30q1 -7 3.5 -20.5t3.5 -20.5q-39 -4 -150.5 -38.5t-146.5 -56.5zM48 796q19 -10 68 -41q21 7 39 27q5 4 13.5 13t13.5 13q2 3 8.5 5.5t10.5 1.5q6 -1 13 -5t6 -7
q0 -24 -9 -34q-11 -13 -70 -75q-5 -5 -14 -11q-4 2 -15.5 7.5t-16 8t-14.5 8t-14.5 8.5t-12 8.5t-11 10t-8 10t-6.5 11.5t-2 12q-2 22 21 29z" />
    <glyph glyph-name="lcaron" unicode="&#x13e;" horiz-adv-x="230" 
d="M285 575l-11 72q21 7 39 27q5 4 13.5 13t13.5 13q2 3 8.5 5.5t10.5 1.5q6 -1 13 -5t6 -7q0 -24 -9 -34q-11 -13 -70 -75q-5 -5 -14 -11zM201 42q-92 -27 -154 76.5t-48.5 267.5t115.5 286q22 24 48.5 22t43.5 -30q27 -42 22 -101q6 -223 -131 -342q-8 -7 1.5 -28.5
t30 -40.5t39.5 -18q22 1 107 28q8 3 9 -9q4 -29 -24 -67q-24 -33 -59 -44zM178 595q-70 -66 -93.5 -158t-3.5 -191q105 119 97 349z" />
    <glyph glyph-name="Lslash" unicode="&#x141;" horiz-adv-x="405" 
d="M125 30q-2 -6 1 -15l4.5 -13.5t-6.5 -12.5q-5 -3 -9 -3.5t-8.5 1.5t-7 3.5t-7 5.5t-6.5 5q-20 14 -42 7q-30 -12 -56 -13q-33 -2 -41 8q-16 20 -28 61q-1 3 6.5 10t13.5 9q17 6 79 22q0 8 -6 212q-35 -13 -66 -16q-9 2 -12 21.5t6 22.5q16 5 70 37v-2l2 3l-1 -1h-1
q-6 266 7 270l-6 50q15 1 19.5 0.5t13.5 -8.5t12 -10q55 -34 55 -138q-2 -34 -2 -117q16 5 35 7q9 6 23.5 -8.5t8.5 -23.5q-5 -8 -56 -31l-10 -5l-1 -1l-1 -1q0 -107 1 -125q1 -19 8 -114q16 5 38 13t38 12q87 24 174 45q25 5 34 -1t14 -30l7 -41q-39 -4 -150.5 -38.5
t-146.5 -56.5z" />
    <glyph glyph-name="lslash" unicode="&#x142;" horiz-adv-x="230" 
d="M274 162q8 3 9 -9q4 -29 -24 -67q-24 -33 -59 -44q-85 -25 -145 66t-59 230v1v-1q-63 -11 -70 -8q-9 4 -7 11t11 9q7 -1 23 9t21 11q17 4 23 5q12 173 116 297q22 24 48.5 22t43.5 -30q27 -42 22 -101q6 -223 -131 -342q-8 -7 1.5 -28.5t30 -40.5t39.5 -18q22 1 107 28z
M80 246q105 119 97 349q-89 -85 -104 -212v-1q14 2 21 5q5 3 12 2q8 -2 8 -10.5t-9 -9.5q-4 -1 -11.5 -6.5t-11.5 -6.5h-2q-1 -1 -4 -1.5t-5 -0.5v-1q-3 -47 9 -107z" />
    <glyph glyph-name="Nacute" unicode="&#x143;" horiz-adv-x="588" 
d="M92 363q2 0 8 2l33 -66q45 -87 104 -123q148 -93 244 35q95 126 98 268q1 96 -44 205q-18 39 -55 72q-44 40 -104.5 49.5t-114.5 -2.5q-35 -6 -51 -43q20 -27 29 -37q6 4 17.5 13.5t19.5 15t16 5.5q53 5 128 -4q11 -1 22.5 -10.5t16.5 -19.5q45 -91 52 -189
q4 -65 -31 -176q-30 -98 -94 -145q-46 -36 -84.5 -32t-72.5 55q-12 18 -32 53.5t-24 42.5q-62 100 -79 123q-32 46 -89 45v-62q-4 -198 41 -396q10 -39 49 -57q19 -8 26.5 -1.5t5.5 28.5q-25 228 -34 308q0 28 -1 43zM219 962q30 -32 35 -89q-57 -33 -89 -118q0 -1 -1.5 -4
t-2 -4.5t-1.5 -4t-2 -3.5t-2 -3t-2.5 -3t-3.5 -2l-4 -2t-5 -1q-25 -4 -29 21q-5 37 -5.5 50.5t1 45t14.5 58.5t36 57q13 16 30 16.5t31 -14.5z" />
    <glyph glyph-name="nacute" unicode="&#x144;" horiz-adv-x="346" 
d="M399 256v-2q9 -36 -26.5 -104t-73.5 -42q-43 29 -66.5 77t-42.5 120q-27 -13 -45.5 -62t-33 -119t-17.5 -81q-38 12 -54 61q-20 51 -28 123t2 127q6 25 8 32q30 0 39.5 -29t5.5 -68t1 -79q14 10 42 72.5t35 72.5q20 31 48 35t42 -27q11 -27 32.5 -76t24.5 -56
q9 -26 31.5 -26.5t42 15t22.5 30.5zM155 672q30 -32 35 -89q-57 -33 -89 -118q0 -1 -1.5 -4t-2 -4.5t-1.5 -4t-2 -3.5t-2 -3t-2.5 -3t-3.5 -2l-4 -2t-5 -1q-25 -4 -29 21q-5 37 -5.5 50.5t1 45t14.5 58.5t36 57q13 16 30 16.5t31 -14.5z" />
    <glyph glyph-name="Ncaron" unicode="&#x147;" horiz-adv-x="588" 
d="M92 363q1 -15 1 -43q9 -80 34 -308q2 -22 -5.5 -28.5t-26.5 1.5q-39 18 -49 57q-45 198 -41 396v62q57 1 89 -45q17 -23 79 -123q4 -7 24 -42.5t32 -53.5q34 -51 72.5 -55t84.5 32q64 47 94 145q35 111 31 176q-7 98 -52 189q-5 10 -16.5 19.5t-22.5 10.5q-75 9 -128 4
q-8 0 -16 -5.5t-19.5 -15t-17.5 -13.5q-9 10 -29 37q16 37 51 43q54 12 114.5 2.5t104.5 -49.5q37 -33 55 -72q45 -109 44 -205q-3 -142 -98 -268q-96 -128 -244 -35q-59 36 -104 123l-33 66q-6 -2 -8 -2zM136 914q19 -10 68 -41q21 7 39 27q5 4 13.5 13t13.5 13
q2 3 8.5 5.5t10.5 1.5q6 -1 13 -5t6 -7q0 -24 -9 -34q-11 -13 -70 -75q-5 -5 -14 -11q-4 2 -15.5 7.5t-16 8t-14.5 8t-14.5 8.5t-12 8.5t-11 10t-8 10t-6.5 11.5t-2 12q-2 22 21 29z" />
    <glyph glyph-name="ncaron" unicode="&#x148;" horiz-adv-x="346" 
d="M399 256v-2q9 -36 -26.5 -104t-73.5 -42q-43 29 -66.5 77t-42.5 120q-27 -13 -45.5 -62t-33 -119t-17.5 -81q-38 12 -54 61q-20 51 -28 123t2 127q6 25 8 32q30 0 39.5 -29t5.5 -68t1 -79q14 10 42 72.5t35 72.5q20 31 48 35t42 -27q11 -27 32.5 -76t24.5 -56
q9 -26 31.5 -26.5t42 15t22.5 30.5zM94 602q19 -10 68 -41q21 7 39 27q5 4 13.5 13t13.5 13q2 3 8.5 5.5t10.5 1.5q6 -1 13 -5t6 -7q0 -24 -9 -34q-11 -13 -70 -75q-5 -5 -14 -11q-4 2 -15.5 7.5t-16 8t-14.5 8t-14.5 8.5t-12 8.5t-11 10t-8 10t-6.5 11.5t-2 12q-2 22 21 29
z" />
    <glyph glyph-name="Ohungarumlaut" unicode="&#x150;" horiz-adv-x="440" 
d="M82 624q-18 -45 -18 -46q-65 -137 -79 -251q-14 -124 8 -209q23 -92 90 -120q23 -10 42 -6q29 7 53 17q25 11 61 42t79 84.5t72.5 122.5t42 157t-11.5 187q-30 107 -140 121q-18 2 -28 4q-2 15 -1 20q3 22 -13 31q-19 10 -38 -2q-24 -16 -32 -27q-33 -48 -91 -55
q-1 0 -2.5 -0.5t-2.5 -0.5q-30 -11 -37.5 -28t5.5 -49q20 3 41 8zM346 604q17 -63 -2.5 -162.5t-58 -187t-84.5 -153.5t-79 -71q-12 -2 -20 -2t-13 1t-8.5 6.5t-5 10.5t-5 16t-6.5 19q-6 14 -6 58t7.5 107.5t21.5 132t41.5 140t63.5 122.5q11 17 25 19q6 1 23 8.5t29 8.5
t33 -16t44 -57zM391 968q30 -32 35 -89q-57 -33 -89 -118q0 -1 -1.5 -4t-2 -4.5t-1.5 -4t-2 -3.5t-2 -3t-2.5 -3t-3.5 -2l-4 -2t-5 -1q-5 -1 -9 0t-7 3.5t-4.5 4.5t-4.5 7t-4 6q-35 54 -34.5 76t35.5 76q9 13 45 59q13 16 30 16.5t31 -14.5zM259 951q3 -14 1 -20.5t-11 -18
t-11 -17.5q-8 -19 -26 -57q-18 -37 -47 -11q-24 23 -47 47q-14 15 -14.5 28.5t10.5 31.5q8 14 46 90q37 14 61 -20q3 -5 18 -23t20 -30z" />
    <glyph glyph-name="ohungarumlaut" unicode="&#x151;" horiz-adv-x="272" 
d="M137 403q56 -21 96.5 -86t35.5 -126q-7 -86 -88 -134q-38 -18 -63.5 -12t-58.5 34q-38 32 -50 69t-1 72t26 63t34.5 54t22.5 33q1 1 -2.5 4t-6 8t0.5 14q23 20 54 7zM140 134q74 59 73 140q-2 41 -42 50q-21 -20 -53 -82t-36 -85q-9 -42 33 -33q16 4 25 10zM219 635
q20 -23 24 -61q-37 -21 -61 -81q-6 -17 -16 -18q-4 -1 -7.5 0.5t-5 3.5t-4 5.5t-3.5 4.5q-23 37 -23 52t24 52q9 14 31 40q19 24 41 2zM129 623q2 -10 1 -14t-7 -12t-8 -12l-18 -39q-12 -25 -32 -8q-22 22 -32 33q-15 17 -3 40q11 20 32 62q24 10 41 -14q2 -3 12.5 -15.5
t13.5 -20.5z" />
    <glyph glyph-name="OE" unicode="&#x152;" horiz-adv-x="667" 
d="M428 50q-3 -7 0.5 -16t5 -13.5t-7.5 -12.5q-6 -4 -12.5 -3.5t-9.5 2.5t-9.5 6.5t-8.5 6.5q-21 15 -46 6q-34 -11 -60 -12q-34 -5 -44 8q-8 8 -12 16q-29 -21 -46 -29q-24 -10 -53 -17q-19 -4 -42 6q-67 28 -90 120q-22 85 -8 209q14 114 79 251q0 1 18 46l-41 -8
q-13 32 -5.5 49t37.5 28q1 0 2.5 0.5t2.5 0.5q58 7 91 55q8 11 32 27q19 12 38 2q16 -9 13 -31q-1 -5 1 -20q6 -2 9 -2q2 0 6.5 1t7 1t6.5 1t6.5 1.5t5.5 1t5 1.5t3.5 2.5t2 2.5t0.5 3q6 2 11.5 2t9 -1t8.5 -4t7 -4.5t6.5 -6l5.5 -5.5q27 -25 81 -16q95 14 102 15
q40 1 50 -6t19 -45l5 -26q0 -1 -0.5 -2.5t-1 -4t-0.5 -4.5q-31 -14 -84 -16q-8 0 -26 -0.5t-28 -1t-24 -3t-26 -7.5v-1l1 -1q19 -85 13 -172l15 5q24 7 151 49q26 8 39 1t19 -31q4 -14 10 -61q-37 -1 -74.5 -11.5t-84 -27.5t-70.5 -24q-21 -8 -27 -11q-11 -35 -24 -65
q1 -19 4.5 -56.5t4.5 -53.5q68 21 104 31q124 32 187 46q26 6 36 -0.5t16 -31.5l7 -42q-40 -3 -161 -38.5t-158 -58.5zM346 604q-16 29 -33 47q-23 17 -59 23q-6 -2 -18 -7.5t-19 -6.5q-14 -2 -25 -19q-36 -51 -63.5 -122.5t-41.5 -140t-21.5 -132t-7.5 -107.5t6 -58
q3 -8 6.5 -19t5 -16t5 -10.5t8.5 -6.5t13 -1t20 2q33 5 79 71t84.5 153.5t58 187t2.5 162.5z" />
    <glyph glyph-name="oe" unicode="&#x153;" horiz-adv-x="501" 
d="M502 249q17 -13 17 -42t-12 -53q-25 -50 -71 -87q-33 -27 -71.5 -24.5t-69 18.5t-48.5 38q-3 4 -11 4l2 2l-4 -2h2q-23 -27 -56 -47q-38 -18 -63.5 -12t-58.5 34q-38 32 -50 69t-1 72t26 63t34.5 54t22.5 33q1 1 -2.5 4t-6 8t0.5 14q23 20 54 7q52 -21 91 -79h2
q14 36 43 56q30 24 70.5 15.5t58.5 -41.5q14 -33 10.5 -63t-26 -61.5t-45.5 -54t-49 -40.5q46 -24 71 -16q57 20 106 99q3 3 7.5 12.5t11 15.5t15.5 4zM337 320q-34 -10 -51.5 -28.5t-20.5 -56.5l1 -3v-5l2 -9q12 -6 45 40t24 62zM139 133q74 59 73 140q-2 41 -42 50
q-21 -20 -53 -82t-36 -85q-9 -42 33 -33q16 4 25 10z" />
    <glyph glyph-name="Racute" unicode="&#x154;" horiz-adv-x="326" 
d="M93 -20v132q-1 10 0.5 20.5t4 17.5t5.5 12.5t5 8t3 1.5q17 3 98 26t126 18q4 0 14 1.5t15 1.5q-2 6 -4.5 15t-4.5 15.5t-6 11.5q-12 16 -33.5 22.5t-51.5 3t-52.5 -8t-55 -13.5t-40.5 -11h-8q54 23 100 62t75 82t45 87t12 82.5t-27 62.5q-49 46 -143 64q-4 0 -2 5.5
t-3 10.5q-19 14 -48 28t-42 14q-5 0 -7 -26t-6 -26q-61 -5 -102 -28q-40 -20 -43 -65t44 -76q16 48 35.5 67t60.5 26q-1 -7 -2 -19t-2 -22.5t-2 -19.5q-30 -185 -35 -222q-8 -53 -42 -79q-20 -18 -32 -27q-18 -13 -7 -30q21 -36 35 -45q13 -8 32 -7q1 0 11 -6q0 -16 -1 -50
t-1 -52q0 -17 4 -23q11 -12 34 -25t44 -17zM159 631q194 -8 22 -227q-3 -4 -33.5 -38t-34.5 -35q20 191 46 300zM97 970q30 -32 35 -89q-57 -33 -89 -118q0 -1 -1.5 -4t-2 -4.5t-1.5 -4t-2 -3.5t-2 -3t-2.5 -3t-3.5 -2l-4 -2t-5 -1q-25 -4 -29 21q-5 37 -5.5 50.5t1 45
t14.5 58.5t36 57q13 16 30 16.5t31 -14.5z" />
    <glyph glyph-name="racute" unicode="&#x155;" horiz-adv-x="424" 
d="M434 140q20 16 29 -9q11 -28 -6 -51q-5 -10 -36 -28t-47 -2q-34 32 -46.5 64t-13.5 85q3 36 1 89q-20 9 -50.5 9t-39.5 -18q-8 -18 -23.5 -72.5t-32.5 -82.5q-20 -33 -49 -20q-23 11 -20 35q1 7 5 13q37 58 59 128q-74 7 -115.5 62t-39 124t42.5 116q28 34 64 31.5
t60 -38.5q52 -79 52 -165q1 -26 6 -31.5t31 -7.5q59 -6 82 -66q12 -30 13 -102.5t12 -87.5q37 5 62 25zM104 370q64 -12 77.5 0t17.5 79q-1 4 -2.5 20t-3.5 25t-6.5 21t-13 19t-21.5 9q-34 6 -57 -24.5t-36 -73.5q-21 -63 45 -75zM323 784q30 -32 35 -89q-57 -33 -89 -118
q0 -1 -1.5 -4t-2 -4.5t-1.5 -4t-2 -3.5t-2 -3t-2.5 -3t-3.5 -2l-4 -2t-5 -1q-25 -4 -29 21q-5 37 -5.5 50.5t1 45t14.5 58.5t36 57q13 16 30 16.5t31 -14.5z" />
    <glyph glyph-name="Rcaron" unicode="&#x158;" horiz-adv-x="326" 
d="M93 -20q-21 4 -44 17t-34 25q-4 6 -4 23q0 18 1 52t1 50q-10 6 -11 6q-6 0 -11 0.5t-9 1.5t-8.5 4t-7.5 4t-7 6t-5 6t-5 7t-4.5 7l-4.5 9l-5 7q-11 17 7 30q12 9 32 27q34 26 42 79q5 37 35 222q1 9 2 19.5t2 22.5t2 19q-41 -7 -60.5 -26t-35.5 -67q-47 31 -44 76t43 65
q41 23 102 28q4 0 6 26t7 26q13 0 42 -14t48 -28q4 -3 4 -7t-1.5 -6t2.5 -3q94 -18 143 -64q23 -24 27 -62.5t-12 -82.5t-45 -87t-75 -82t-100 -62h8q8 2 40.5 11t55 13.5t52.5 8t51.5 -3t33.5 -22.5q4 -5 6 -11.5t4.5 -15.5t4.5 -15q-5 0 -15 -1.5t-14 -1.5q-45 5 -126 -18
t-98 -26q-1 1 -3 -1.5t-5 -8t-5.5 -12.5t-4 -17.5t-0.5 -20.5v-132zM159 631q-26 -109 -46 -300q4 1 34.5 35t33.5 38q172 219 -22 227zM96 864q19 -10 68 -41q21 7 39 27q5 4 13.5 13t13.5 13q2 3 8.5 5.5t10.5 1.5q6 -1 13 -5t6 -7q0 -24 -9 -34q-11 -13 -70 -75
q-5 -5 -14 -11q-4 2 -15.5 7.5t-16 8t-14.5 8t-14.5 8.5t-12 8.5t-11 10t-8 10t-6.5 11.5t-2 12q-2 22 21 29z" />
    <glyph glyph-name="rcaron" unicode="&#x159;" horiz-adv-x="424" 
d="M434 140q20 16 29 -9q11 -28 -6 -51q-5 -10 -36 -28t-47 -2q-34 32 -46.5 64t-13.5 85q3 36 1 89q-20 9 -50.5 9t-39.5 -18q-8 -18 -23.5 -72.5t-32.5 -82.5q-20 -33 -49 -20q-23 11 -20 35q1 7 5 13q37 58 59 128q-74 7 -115.5 62t-39 124t42.5 116q28 34 64 31.5
t60 -38.5q52 -79 52 -165q1 -26 6 -31.5t31 -7.5q59 -6 82 -66q12 -30 13 -102.5t12 -87.5q37 5 62 25zM104 370q64 -12 77.5 0t17.5 79q-1 4 -2.5 20t-3.5 25t-6.5 21t-13 19t-21.5 9q-34 6 -57 -24.5t-36 -73.5q-21 -63 45 -75zM150 720q19 -10 68 -41q21 7 39 27
q5 4 13.5 13t13.5 13q2 3 8.5 5.5t10.5 1.5q6 -1 13 -5t6 -7q0 -24 -9 -34q-11 -13 -70 -75q-5 -5 -14 -11q-4 2 -15.5 7.5t-16 8t-14.5 8t-14.5 8.5t-12 8.5t-11 10t-8 10t-6.5 11.5t-2 12q-2 22 21 29z" />
    <glyph glyph-name="Sacute" unicode="&#x15a;" horiz-adv-x="429" 
d="M346 221q2 -3 13.5 -25t16.5 -34q18 -51 -16 -96q-44 -54 -112 -74q-28 -8 -42 -2t-28 32q-55 102 23 186q10 12 16 20q-58 26 -66 30q-85 39 -127 140t0 203q53 126 123 229q41 60 105 97q8 6 37 10q20 5 32 -16q26 -45 -3 -84q-86 -110 -106 -135q-26 -34 -87 -105
q-6 -7 -18.5 -18t-17.5 -16q-23 -29 -32 -72.5t4.5 -86.5t52.5 -61q17 -8 62.5 -24.5t62.5 -24.5q18 -8 24.5 -7t19.5 12q80 74 130 89q43 13 62.5 -7t19.5 -50h-6q-42 1 -92.5 -30t-65.5 -55q10 -16 15 -25zM221 88q35 3 57 26t45 63q3 5 4 8q-4 2 -17.5 8t-21.5 10
q-62 -69 -67 -115zM432 780q30 -32 35 -89q-57 -33 -89 -118q0 -1 -1.5 -4t-2 -4.5t-1.5 -4t-2 -3.5t-2 -3t-2.5 -3t-3.5 -2l-4 -2t-5 -1q-25 -4 -29 21q-5 37 -5.5 50.5t1 45t14.5 58.5t36 57q13 16 30 16.5t31 -14.5z" />
    <glyph glyph-name="sacute" unicode="&#x15b;" horiz-adv-x="246" 
d="M199 193q49 -32 63 -93q13 -51 -34 -79q-32 -19 -64 -20t-56.5 17t-35.5 51q-9 26 14 105q1 4 -3.5 9t-14.5 15t-18 20q-94 131 -7 269q30 45 80 61q37 11 57 -14q19 -25 -10 -57q-2 -2 -14.5 -16t-15.5 -17.5t-13.5 -16t-14 -18t-11.5 -17t-12 -19.5t-8.5 -19t-7.5 -21
q-13 -51 29 -77q10 -7 17 3q27 39 75.5 69t86.5 37q2 0 8.5 1.5t9 2t7 0.5t7.5 -2t6 -5l3 -4q6 -8 5 -20.5t-11 -13.5q-48 -7 -89.5 -33.5t-58.5 -59.5q-5 -10 3 -16q13 -11 28 -22zM113 79q4 -6 10 -6q48 -2 69 22q4 5 -4 17t-15 18q-29 24 -41 23q-3 0 -10 -15
t-10.5 -31.5t1.5 -27.5zM159 794q30 -32 35 -89q-57 -33 -89 -118q0 -1 -1.5 -4t-2 -4.5t-1.5 -4t-2 -3.5t-2 -3t-2.5 -3t-3.5 -2l-4 -2t-5 -1q-25 -4 -29 21q-5 37 -5.5 50.5t1 45t14.5 58.5t36 57q13 16 30 16.5t31 -14.5z" />
    <glyph glyph-name="Scedilla" unicode="&#x15e;" horiz-adv-x="429" 
d="M374 -34q30 -32 35 -89q-57 -33 -89 -118q0 -1 -1.5 -4t-2 -4.5t-1.5 -4t-2 -3.5t-2 -3t-2.5 -3t-3.5 -2l-4 -2t-5 -1q-25 -4 -29 21q-5 37 -5.5 50.5t1 45t14.5 58.5t36 57q13 16 30 16.5t31 -14.5zM346 221q2 -3 13.5 -25t16.5 -34q18 -51 -16 -96q-44 -54 -112 -74
q-28 -8 -42 -2t-28 32q-55 102 23 186q10 12 16 20q-58 26 -66 30q-85 39 -127 140t0 203q53 126 123 229q41 60 105 97q8 6 37 10q20 5 32 -16q26 -45 -3 -84q-86 -110 -106 -135q-26 -34 -87 -105q-6 -7 -18.5 -18t-17.5 -16q-23 -29 -32 -72.5t4.5 -86.5t52.5 -61
q17 -8 62.5 -24.5t62.5 -24.5q18 -8 24.5 -7t19.5 12q80 74 130 89q43 13 62.5 -7t19.5 -50h-6q-42 1 -92.5 -30t-65.5 -55q10 -16 15 -25zM221 88q35 3 57 26t45 63q3 5 4 8q-4 2 -17.5 8t-21.5 10q-62 -69 -67 -115z" />
    <glyph glyph-name="scedilla" unicode="&#x15f;" horiz-adv-x="246" 
d="M199 193q49 -32 63 -93q13 -51 -34 -79q-32 -19 -64 -20t-56.5 17t-35.5 51q-9 26 14 105q1 4 -3.5 9t-14.5 15t-18 20q-94 131 -7 269q30 45 80 61q37 11 57 -14q19 -25 -10 -57q-2 -2 -14.5 -16t-15.5 -17.5t-13.5 -16t-14 -18t-11.5 -17t-12 -19.5t-8.5 -19t-7.5 -21
q-13 -51 29 -77q10 -7 17 3q27 39 75.5 69t86.5 37q2 0 8.5 1.5t9 2t7 0.5t7.5 -2t6 -5l3 -4q6 -8 5 -20.5t-11 -13.5q-48 -7 -89.5 -33.5t-58.5 -59.5q-5 -10 3 -16q13 -11 28 -22zM113 79q4 -6 10 -6q48 -2 69 22q4 5 -4 17t-15 18q-29 24 -41 23q-3 0 -10 -15
t-10.5 -31.5t1.5 -27.5zM163 1q2 2 -5 8.5t-16.5 9t-20.5 -5.5q-7 -6 -8.5 -13t4.5 -18t10.5 -17.5t15.5 -21.5q4 -5 6 -8q19 -24 20 -48.5t-18 -43.5q-19 -16 -34.5 -10.5t-19.5 18.5q-9 29 -41 27q-18 -3 -14.5 -23.5t19.5 -33.5q27 -21 69 -16t74 29q21 15 18 37.5
t-16 42t-32 36.5q-10 8 -15 15.5t-4.5 13.5t1.5 10t4 8z" />
    <glyph glyph-name="Scaron" unicode="&#x160;" horiz-adv-x="429" 
d="M346 221q2 -3 13.5 -25t16.5 -34q18 -51 -16 -96q-44 -54 -112 -74q-28 -8 -42 -2t-28 32q-55 102 23 186q10 12 16 20q-58 26 -66 30q-85 39 -127 140t0 203q53 126 123 229q41 60 105 97q8 6 37 10q20 5 32 -16q26 -45 -3 -84q-86 -110 -106 -135q-26 -34 -87 -105
q-6 -7 -18.5 -18t-17.5 -16q-23 -29 -32 -72.5t4.5 -86.5t52.5 -61q17 -8 62.5 -24.5t62.5 -24.5q18 -8 24.5 -7t19.5 12q80 74 130 89q43 13 62.5 -7t19.5 -50h-6q-42 1 -92.5 -30t-65.5 -55q10 -16 15 -25zM221 88q35 3 57 26t45 63q3 5 4 8q-4 2 -17.5 8t-21.5 10
q-62 -69 -67 -115zM24 930q19 -10 68 -41q21 7 39 27q5 4 13.5 13t13.5 13q2 3 8.5 5.5t10.5 1.5q6 -1 13 -5t6 -7q0 -24 -9 -34q-11 -13 -70 -75q-5 -5 -14 -11q-4 2 -15.5 7.5t-16 8t-14.5 8t-14.5 8.5t-12 8.5t-11 10t-8 10t-6.5 11.5t-2 12q-2 22 21 29z" />
    <glyph glyph-name="scaron" unicode="&#x161;" horiz-adv-x="246" 
d="M199 193q49 -32 63 -93q13 -51 -34 -79q-32 -19 -64 -20t-56.5 17t-35.5 51q-9 26 14 105q1 4 -3.5 9t-14.5 15t-18 20q-94 131 -7 269q30 45 80 61q37 11 57 -14q19 -25 -10 -57q-2 -2 -14.5 -16t-15.5 -17.5t-13.5 -16t-14 -18t-11.5 -17t-12 -19.5t-8.5 -19t-7.5 -21
q-13 -51 29 -77q10 -7 17 3q27 39 75.5 69t86.5 37q2 0 8.5 1.5t9 2t7 0.5t7.5 -2t6 -5l3 -4q6 -8 5 -20.5t-11 -13.5q-48 -7 -89.5 -33.5t-58.5 -59.5q-5 -10 3 -16q13 -11 28 -22zM113 79q4 -6 10 -6q48 -2 69 22q4 5 -4 17t-15 18q-29 24 -41 23q-3 0 -10 -15
t-10.5 -31.5t1.5 -27.5zM44 684q19 -10 68 -41q21 7 39 27q5 4 13.5 13t13.5 13q2 3 8.5 5.5t10.5 1.5q6 -1 13 -5t6 -7q0 -24 -9 -34q-11 -13 -70 -75q-5 -5 -14 -11q-4 2 -15.5 7.5t-16 8t-14.5 8t-14.5 8.5t-12 8.5t-11 10t-8 10t-6.5 11.5t-2 12q-2 22 21 29z" />
    <glyph glyph-name="uni0162" unicode="&#x162;" horiz-adv-x="407" 
d="M372 -14q-83 32 -94 74q-12 46 -23 192q-19 188 -17 202q0 4 1 11.5t1.5 13.5t0.5 11v65q-5 -1 -16.5 -2.5t-17.5 -2.5q-28 -8 -84.5 -24.5t-84.5 -24.5l-12 -3q-9 -2 -21.5 -5t-17 -3t-11 -1.5t-9 1t-7 3.5t-8 7.5t-8 11.5t-12 16.5t-15.5 21.5q-9 12 34 43.5t93.5 54.5
t62.5 14q3 -3 7 -2q1 0 2 -4q1 -2 1 -3q5 -19 11 -24t21 -2l81 18q11 3 14.5 4t10.5 5.5t9 12.5t1 20q4 -1 9.5 -2t9 -1.5t5.5 -2.5q17 -15 49 -4q8 3 65 24t87 30q25 7 99 21q25 3 37 -20q2 -5 9.5 -18t11 -23t3.5 -22q-2 0 -25.5 1.5t-35.5 1.5t-26.5 -3.5t-23.5 -7
t-26 -10.5t-24 -10l-164 -60q6 -96 10 -149q1 -24 5 -73t5 -74q7 -125 8 -151q1 -21 10 -70t9 -78zM374 -34q30 -32 35 -89q-57 -33 -89 -118q0 -1 -1.5 -4t-2 -4.5t-1.5 -4t-2 -3.5t-2 -3t-2.5 -3t-3.5 -2l-4 -2t-5 -1q-25 -4 -29 21q-5 37 -5.5 50.5t1 45t14.5 58.5t36 57
q13 16 30 16.5t31 -14.5z" />
    <glyph glyph-name="uni0163" unicode="&#x163;" horiz-adv-x="232" 
d="M235 135q20 20 29 -4q5 -15 0 -39q-2 -17 -44.5 -34t-71.5 -10q-31 7 -55.5 21.5t-41.5 36t-28.5 40t-19 47t-11 44.5t-8 44.5t-5.5 34.5q-18 0 -40 5q-16 3 -22.5 10.5t-1.5 17.5t21 22l36 24q0 9 -1.5 58t-0.5 80.5t5 76t17 77.5t33 52q29 -17 42.5 -47.5t-0.5 -54.5
q-18 -30 -25.5 -107t-1.5 -104q6 0 49.5 7.5t71 4t41.5 -25.5q18 -28 12.5 -44t-37.5 -23q-7 -2 -133 -25q5 -59 33 -116.5t69 -84t89 15.5zM201 14q30 -32 35 -89q-57 -33 -89 -118q0 -1 -1.5 -4t-2 -4.5t-1.5 -4t-2 -3.5t-2 -3t-2.5 -3t-3.5 -2l-4 -2t-5 -1q-25 -4 -29 21
q-5 37 -5.5 50.5t1 45t14.5 58.5t36 57q13 16 30 16.5t31 -14.5z" />
    <glyph glyph-name="Tcaron" unicode="&#x164;" horiz-adv-x="407" 
d="M372 -14q-83 32 -94 74q-12 46 -23 192q-19 188 -17 202q0 4 1 11.5t1.5 13.5t0.5 11v65q-5 -1 -16.5 -2.5t-17.5 -2.5q-28 -8 -84.5 -24.5t-84.5 -24.5l-12 -3q-9 -2 -21.5 -5t-17 -3t-11 -1.5t-9 1t-7 3.5t-8 7.5t-8 11.5t-12 16.5t-15.5 21.5q-9 12 34 43.5t93.5 54.5
t62.5 14q3 -3 7 -2q1 0 2 -4q1 -2 1 -3q5 -19 11 -24t21 -2l81 18q11 3 14.5 4t10.5 5.5t9 12.5t1 20q4 -1 9.5 -2t9 -1.5t5.5 -2.5q17 -15 49 -4q8 3 65 24t87 30q25 7 99 21q25 3 37 -20q2 -5 9.5 -18t11 -23t3.5 -22q-2 0 -25.5 1.5t-35.5 1.5t-26.5 -3.5t-23.5 -7
t-26 -10.5t-24 -10l-164 -60q6 -96 10 -149q1 -24 5 -73t5 -74q7 -125 8 -151q1 -21 10 -70t9 -78zM238 802q19 -10 68 -41q21 7 39 27q5 4 13.5 13t13.5 13q2 3 8.5 5.5t10.5 1.5q6 -1 13 -5t6 -7q0 -24 -9 -34q-11 -13 -70 -75q-5 -5 -14 -11q-4 2 -15.5 7.5t-16 8
t-14.5 8t-14.5 8.5t-12 8.5t-11 10t-8 10t-6.5 11.5t-2 12q-2 22 21 29z" />
    <glyph glyph-name="tcaron" unicode="&#x165;" horiz-adv-x="232" 
d="M147 659l11 -72q9 6 14 11q59 62 70 75q9 10 9 34q1 3 -6 7t-13 5q-4 1 -10.5 -1.5t-8.5 -5.5q-5 -4 -13.5 -13t-13.5 -13q-18 -20 -39 -27zM235 135q20 20 29 -4q5 -15 0 -39q-2 -17 -44.5 -34t-71.5 -10q-31 7 -55.5 21.5t-41.5 36t-28.5 40t-19 47t-11 44.5t-8 44.5
t-5.5 34.5q-18 0 -40 5q-16 3 -22.5 10.5t-1.5 17.5t21 22l36 24q0 9 -1.5 58t-0.5 80.5t5 76t17 77.5t33 52q29 -17 42.5 -47.5t-0.5 -54.5q-18 -30 -25.5 -107t-1.5 -104q6 0 49.5 7.5t71 4t41.5 -25.5q18 -28 12.5 -44t-37.5 -23q-7 -2 -133 -25q5 -59 33 -116.5t69 -84
t89 15.5z" />
    <glyph glyph-name="Uring" unicode="&#x16e;" horiz-adv-x="486" 
d="M574 -56l12 6q-3 28 -4 30q-18 43 -44 90q-70 134 -77 265q-6 111 -10 336q-1 52 -59 91q-2 2 -6 2.5t-9.5 0.5t-9.5 1q0 -5 -1.5 -14.5t-1.5 -13.5q0 -15 1 -41.5t0.5 -47.5t-4.5 -40q-26 -148 -70 -341q-14 -61 -38 -120q-12 -29 -41 -61q-33 -33 -50 10q-10 22 -19 57
q-13 51 -17.5 115t-3.5 100.5t7 121.5t7 107q1 14 -9 28.5t-21.5 23.5t-30.5 22t-26 19q-3 2 -7 3.5t-10.5 3.5t-10.5 3q-7 -19 -8 -28q-6 -50 -8 -79q-3 -36 -5 -109q0 -16 5 -22q9 -10 12.5 -20t5.5 -29.5t2 -22.5q34 -201 37 -212q26 -123 134 -181q70 -38 111 24l6 9
t5 8q14 21 24.5 48.5t15.5 46.5t13 53.5t12 48.5q1 3 8 22q32 -88 39 -106q37 -91 64 -147q15 -33 80 -61zM110 887q1 9 9.5 9t10.5 -8l9 -39q12 -28 42 -34.5t52 15.5q6 7 10 11.5t6.5 10t3.5 8t3.5 11.5t3.5 14q1 7 6.5 9t9.5 -1t3 -10q-2 -59 -22 -77q-37 -37 -83.5 -29
t-61.5 62q-2 3 -2 24v24z" />
    <glyph glyph-name="uring" unicode="&#x16f;" horiz-adv-x="329" 
d="M136 609q2 -2 12 -8t14 -10q26 -17 17 -45q-4 -14 -14 -31q-17 -25 -47 -15q-24 10 -33 23q-14 22 -4.5 47.5t35.5 32.5q4 2 11 3.5t9 2.5zM155 570q-10 1 -24 5q-17 6 -23 -7q-6 -10 -6 -16q0 -11 4 -16q13 -9 26 -12q4 -1 10 1t7 5q16 26 6 40zM342 176q18 27 36.5 9.5
t24.5 -45.5q-21 -35 -47.5 -50.5t-49 -12t-38.5 20.5q-35 39 -38 124q6 -118 -67 -200q-16 -18 -39 -19t-38 7.5t-22 16.5q-57 69 -60 186q0 32 -3 62q-9 51 17 83q23 27 46 5q7 -7 10.5 -19.5t4.5 -22.5t1.5 -26.5t0.5 -21.5q1 -24 0.5 -48t0 -49t4.5 -36q17 -85 45 -81
t43 88q11 59 9 133q0 10 6.5 18t15.5 8q20 1 43 -6.5t26 -19.5q10 -34 10 -61t14 -65q9 -24 29 -2q8 8 15 24z" />
    <glyph glyph-name="Uhungarumlaut" unicode="&#x170;" horiz-adv-x="486" 
d="M574 -56l12 6q-3 28 -4 30q-18 43 -44 90q-70 134 -77 265q-6 111 -10 336q-1 52 -59 91q-2 2 -6 2.5t-9.5 0.5t-9.5 1q0 -5 -1.5 -14.5t-1.5 -13.5q0 -15 1 -41.5t0.5 -47.5t-4.5 -40q-26 -148 -70 -341q-14 -61 -38 -120q-12 -29 -41 -61q-33 -33 -50 10q-10 22 -19 57
q-13 51 -17.5 115t-3.5 100.5t7 121.5t7 107q1 14 -9 28.5t-21.5 23.5t-30.5 22t-26 19q-3 2 -7 3.5t-10.5 3.5t-10.5 3q-7 -19 -8 -28q-6 -50 -8 -79q-3 -36 -5 -109q0 -16 5 -22q9 -10 12.5 -20t5.5 -29.5t2 -22.5q34 -201 37 -212q26 -123 134 -181q70 -38 111 24l6 9
t5 8q14 21 24.5 48.5t15.5 46.5t13 53.5t12 48.5q1 3 8 22q32 -88 39 -106q37 -91 64 -147q15 -33 80 -61zM347 898q30 -32 35 -89q-57 -33 -89 -118q0 -1 -1.5 -4t-2 -4.5t-1.5 -4t-2 -3.5t-2 -3t-2.5 -3t-3.5 -2l-4 -2t-5 -1q-5 -1 -9 0t-7 3.5t-4.5 4.5t-4.5 7t-4 6
q-35 54 -34.5 76t35.5 76q9 13 45 59q13 16 30 16.5t31 -14.5zM215 881q3 -14 1 -20.5t-11 -18t-11 -17.5q-8 -19 -26 -57q-18 -37 -47 -11q-24 23 -47 47q-14 15 -14.5 28.5t10.5 31.5q8 14 46 90q37 14 61 -20q3 -5 18 -23t20 -30z" />
    <glyph glyph-name="uhungarumlaut" unicode="&#x171;" horiz-adv-x="487" 
d="M309 948q30 -32 35 -89q-57 -33 -89 -118q0 -1 -1.5 -4t-2 -4.5t-1.5 -4t-2 -3.5t-2 -3t-2.5 -3t-3.5 -2l-4 -2t-5 -1q-5 -1 -9 0t-7 3.5t-4.5 4.5t-4.5 7t-4 6q-35 54 -34.5 76t35.5 76q9 13 45 59q13 16 30 16.5t31 -14.5zM177 931q3 -14 1 -20.5t-11 -18t-11 -17.5
q-8 -19 -26 -57q-18 -37 -47 -11q-24 23 -47 47q-14 15 -14.5 28.5t10.5 31.5q8 14 46 90q37 14 61 -20q3 -5 18 -23t20 -30zM574 -56l12 6q-3 28 -4 30q-18 43 -44 90q-70 134 -77 265q-6 111 -10 336q-1 52 -59 91q-2 2 -6 2.5t-9.5 0.5t-9.5 1q0 -5 -1.5 -14.5
t-1.5 -13.5q0 -15 1 -41.5t0.5 -47.5t-4.5 -40q-26 -148 -70 -341q-14 -61 -38 -120q-12 -29 -41 -61q-33 -33 -50 10q-10 22 -19 57q-13 51 -17.5 115t-3.5 100.5t7 121.5t7 107q1 14 -9 28.5t-21.5 23.5t-30.5 22t-26 19q-3 2 -7 3.5t-10.5 3.5t-10.5 3q-7 -19 -8 -28
q-6 -50 -8 -79q-3 -36 -5 -109q0 -16 5 -22q9 -10 12.5 -20t5.5 -29.5t2 -22.5q34 -201 37 -212q26 -123 134 -181q70 -38 111 24l6 9t5 8q14 21 24.5 48.5t15.5 46.5t13 53.5t12 48.5q1 3 8 22q32 -88 39 -106q37 -91 64 -147q15 -33 80 -61z" />
    <glyph glyph-name="Ydieresis" unicode="&#x178;" horiz-adv-x="481" 
d="M437 665q35 104 83 110q29 3 43 -32q10 -27 0 -56q-75 -218 -97 -304q-63 -250 -18 -434q13 -60 0 -106.5t-47 -66.5q-16 1 -28.5 13.5t-19.5 37.5t-9.5 37.5t-6.5 37.5q-12 69 -8.5 162.5t12 166.5t20.5 130q-17 -18 -35.5 -15.5t-31.5 14.5t-30.5 34t-33.5 43.5
t-41 43.5t-52 33q-38 15 -48.5 2.5t-3.5 -49.5q-4 -26 -38 -22q-39 3 -58 37q-18 30 -2 69q24 60 66 78.5t84.5 1.5t81 -53t59.5 -79q67 -137 99 -63q6 12 10 29q3 14 12 55t18.5 78.5t19.5 66.5zM182 847q40 9 49 -30q2 -9 7 -54h-2q0 -5 -0.5 -14t-0.5 -14q-1 -17 -20 -20
q-24 -3 -70 -11q-26 -5 -30 17q-12 57 -15 89q-2 22 25 25q29 5 57 12zM397 819q1 -2 7 -36q-1 -4 -3.5 -16.5t-6 -20.5t-9.5 -11q-17 -10 -76 -12q-4 -1 -10.5 6.5t-8.5 13.5q-11 40 -14 77q-1 19 5.5 25.5t26.5 8.5q22 3 23 3q29 7 44 -1.5t22 -36.5z" />
    <glyph glyph-name="Zacute" unicode="&#x179;" horiz-adv-x="674" 
d="M431 655q-33 -94 -36 -103q-41 -122 -164 -152q-31 -8 -45 -14t-22.5 -17t-0.5 -28.5t30 -45.5q19 5 31 5t16 -4t5 -9t-4 -13.5t-8.5 -14t-10.5 -14.5t-9 -12q-48 -74 -84 -149q-16 -33 -3 -58q14 -25 22.5 -35.5t22 -17.5t31 -4t45.5 14q23 9 112 60q96 56 286 170
q3 2 29 20q-2 26 -4 32q-10 34 -28.5 43t-52.5 -2q-9 -16 -160 -108.5t-188 -112.5q0 24 36 81q9 13 25.5 37t29.5 44t23 39q34 59 107 79q41 11 117.5 37t87.5 29q34 12 35 38q0 9 -2 14.5t-3.5 7t-10 4.5t-11.5 5q-20 8 -40 5q-18 -3 -49 -11.5t-36 -9.5q-8 -2 -39 -11
t-45 -12q3 17 15.5 57.5t14.5 53.5q14 84 -23.5 132t-119.5 47q-150 -3 -288 -104q-9 -6 -20 -14.5t-16.5 -11.5t-11.5 -8.5t-8 -7t-3.5 -6.5t-0.5 -6.5t3.5 -8.5t5.5 -10.5t9 -13.5t11 -18q12 -21 23.5 -21.5t27.5 17.5q90 98 261 129q54 10 85 -12zM187 926q30 -32 35 -89
q-57 -33 -89 -118q0 -1 -1.5 -4t-2 -4.5t-1.5 -4t-2 -3.5t-2 -3t-2.5 -3t-3.5 -2l-4 -2t-5 -1q-25 -4 -29 21q-5 37 -5.5 50.5t1 45t14.5 58.5t36 57q13 16 30 16.5t31 -14.5z" />
    <glyph glyph-name="zacute" unicode="&#x17a;" horiz-adv-x="289" 
d="M218 370q-14 -18 -67.5 -82.5t-83.5 -109.5t-43 -89q11 -19 29 -33.5t30 -19t16 -4.5q56 16 76 22t62 25.5t79 48.5q26 54 4.5 69t-67.5 -18q-7 -13 -70 -56t-81 -53q15 25 39 69t37 66t38.5 56.5t58.5 68.5q19 63 -44 89q-57 24 -126 3q-69 -22 -79 -74q-5 -26 9 -57
q16 -28 38 -3q20 22 37.5 49t29 39t30.5 16q35 5 48 -22zM193 702q30 -32 35 -89q-57 -33 -89 -118q0 -1 -1.5 -4t-2 -4.5t-1.5 -4t-2 -3.5t-2 -3t-2.5 -3t-3.5 -2l-4 -2t-5 -1q-25 -4 -29 21q-5 37 -5.5 50.5t1 45t14.5 58.5t36 57q13 16 30 16.5t31 -14.5z" />
    <glyph glyph-name="Zdotaccent" unicode="&#x17b;" horiz-adv-x="674" 
d="M431 655q-33 -94 -36 -103q-41 -122 -164 -152q-31 -8 -45 -14t-22.5 -17t-0.5 -28.5t30 -45.5q19 5 31 5t16 -4t5 -9t-4 -13.5t-8.5 -14t-10.5 -14.5t-9 -12q-48 -74 -84 -149q-16 -33 -3 -58q14 -25 22.5 -35.5t22 -17.5t31 -4t45.5 14q23 9 112 60q96 56 286 170
q3 2 29 20q-2 26 -4 32q-10 34 -28.5 43t-52.5 -2q-9 -16 -160 -108.5t-188 -112.5q0 24 36 81q9 13 25.5 37t29.5 44t23 39q34 59 107 79q41 11 117.5 37t87.5 29q34 12 35 38q0 9 -2 14.5t-3.5 7t-10 4.5t-11.5 5q-20 8 -40 5q-18 -3 -49 -11.5t-36 -9.5q-8 -2 -39 -11
t-45 -12q3 17 15.5 57.5t14.5 53.5q14 84 -23.5 132t-119.5 47q-150 -3 -288 -104q-9 -6 -20 -14.5t-16.5 -11.5t-11.5 -8.5t-8 -7t-3.5 -6.5t-0.5 -6.5t3.5 -8.5t5.5 -10.5t9 -13.5t11 -18q12 -21 23.5 -21.5t27.5 17.5q90 98 261 129q54 10 85 -12zM263 760q-7 -1 -36 -5
q-4 2 -16 5t-20 7t-11 10q-9 20 -7 77q-1 4 7 10t14 7q35 8 77 10q20 0 26 -7t7 -27q0 -16 1 -23q5 -30 -4 -44t-38 -20z" />
    <glyph glyph-name="zdotaccent" unicode="&#x17c;" horiz-adv-x="289" 
d="M218 370q-14 -18 -67.5 -82.5t-83.5 -109.5t-43 -89q11 -19 29 -33.5t30 -19t16 -4.5q56 16 76 22t62 25.5t79 48.5q26 54 4.5 69t-67.5 -18q-7 -13 -70 -56t-81 -53q15 25 39 69t37 66t38.5 56.5t58.5 68.5q19 63 -44 89q-57 24 -126 3q-69 -22 -79 -74q-5 -26 9 -57
q16 -28 38 -3q20 22 37.5 49t29 39t30.5 16q35 5 48 -22zM183 510q-7 -1 -36 -5q-4 2 -16 5t-20 7t-11 10q-9 20 -7 77q-1 4 7 10t14 7q35 8 77 10q20 0 26 -7t7 -27q0 -16 1 -23q5 -30 -4 -44t-38 -20z" />
    <glyph glyph-name="Zcaron" unicode="&#x17d;" horiz-adv-x="674" 
d="M431 655q-31 22 -85 12q-171 -31 -261 -129q-16 -18 -27.5 -17.5t-23.5 21.5q-5 8 -13 20q-19 30 -15 38q3 8 33 29q16 11 26 18q138 101 288 104q82 1 119.5 -47t23.5 -132q-2 -13 -14.5 -53.5t-15.5 -57.5q14 3 45 12t39 11q5 1 36 9.5t49 11.5q20 3 40 -5
q3 -2 11.5 -5t10 -4.5t3.5 -7t2 -14.5q-1 -26 -35 -38q-11 -3 -87.5 -29t-117.5 -37q-73 -20 -107 -79q-10 -19 -23 -39t-29.5 -44t-25.5 -37q-36 -57 -36 -81q37 20 188 112.5t160 108.5q34 11 52.5 2t28.5 -43q2 -6 4 -32q-26 -18 -29 -20q-190 -114 -286 -170
q-89 -51 -112 -60q-28 -11 -45.5 -14t-31 4t-22 17.5t-22.5 35.5q-13 25 3 58q36 75 84 149q2 3 9 12t10.5 14.5t8.5 14t4 13.5t-5 9t-16 4t-31 -5q-22 28 -30 45.5t0.5 28.5t22.5 17t45 14q123 30 164 152q3 9 36 103zM126 852q19 -10 68 -41q21 7 39 27q5 4 13.5 13
t13.5 13q2 3 8.5 5.5t10.5 1.5q6 -1 13 -5t6 -7q0 -24 -9 -34q-11 -13 -70 -75q-5 -5 -14 -11q-4 2 -15.5 7.5t-16 8t-14.5 8t-14.5 8.5t-12 8.5t-11 10t-8 10t-6.5 11.5t-2 12q-2 22 21 29z" />
    <glyph glyph-name="zcaron" unicode="&#x17e;" horiz-adv-x="289" 
d="M218 370q-13 27 -48 22q-19 -4 -30.5 -16t-29 -39t-37.5 -49q-22 -25 -38 3q-32 73 34 114q54 34 126 24q70 -10 82 -57q5 -19 -2 -42q-33 -34 -58.5 -68.5t-38.5 -56.5t-37 -66t-39 -69q18 10 81 53t70 56q46 33 67 18t-4 -69q-37 -29 -79 -48.5t-62 -25.5t-76 -22
q-4 0 -16 4.5t-30 19t-29 33.5q13 44 43 89t83.5 109.5t67.5 82.5zM66 604q19 -10 68 -41q21 7 39 27q5 4 13.5 13t13.5 13q2 3 8.5 5.5t10.5 1.5q6 -1 13 -5t6 -7q0 -24 -9 -34q-11 -13 -70 -75q-5 -5 -14 -11q-4 2 -15.5 7.5t-16 8t-14.5 8t-14.5 8.5t-12 8.5t-11 10
t-8 10t-6.5 11.5t-2 12q-2 22 21 29z" />
    <glyph glyph-name="florin" unicode="&#x192;" horiz-adv-x="298" 
d="M221 365q-25 -4 -69 -11t-63 -10v-49q11 -173 -3 -327q-3 -19 -3 -20q-11 -31 -57.5 -51t-98.5 -17t-77 32q-7 8 6 11.5t37.5 8t49.5 13.5t43.5 33t18.5 60q0 38 2 81t5.5 95t4.5 80q1 13 1 41q-16 4 -27.5 11.5t-19 22t-10 22t-8.5 27.5q-8 27 2.5 43.5t37.5 16.5
q2 -1 15 3q1 6 4.5 22.5t5.5 25.5q17 103 26 148q14 72 73 113q25 18 64 27q54 8 73 -45q10 -27 13 -57q1 -16 -4.5 -22t-22.5 -7q-60 -2 -87 -22.5t-43 -77.5q-3 -10 -16 -73v-31h31q6 1 31 7.5t38 8.5q26 4 58 -1q19 -2 30.5 -14.5t9.5 -31.5q-4 -40 -27 -62t-44 -24z" />
    <glyph glyph-name="circumflex" unicode="&#x2c6;" horiz-adv-x="208" 
d="M177 512q-20 12 -65 44q-19 -4 -41 -24q-5 -4 -14 -12.5t-14 -12.5q-10 -10 -20 -6q-6 2 -12.5 6t-5.5 7q2 25 11 34q10 11 22 23t28 26t24 22q3 3 15 10q5 -3 19 -11t20 -12t17 -11t16 -12.5t11.5 -12.5t9 -15t2.5 -16q0 -21 -23 -27z" />
    <glyph glyph-name="caron" unicode="&#x2c7;" horiz-adv-x="210" 
d="M24 612q19 -10 68 -41q21 7 39 27q5 4 13.5 13t13.5 13q2 3 8.5 5.5t10.5 1.5q6 -1 13 -5t6 -7q0 -24 -9 -34q-11 -13 -70 -75q-5 -5 -14 -11q-4 2 -15.5 7.5t-16 8t-14.5 8t-14.5 8.5t-12 8.5t-11 10t-8 10t-6.5 11.5t-2 12q-2 22 21 29z" />
    <glyph glyph-name="breve" unicode="&#x2d8;" horiz-adv-x="272" 
d="M13 682q5 8 13 6t6 -11q-11 -46 11 -75t58.5 -34.5t76.5 8t62 44.5q3 8 3 15t-2.5 18.5t-2.5 15.5q1 9 9.5 9t10.5 -8q1 -7 4.5 -20.5t4 -19.5t-1.5 -20q-14 -57 -91.5 -76.5t-135 21t-25.5 127.5z" />
    <glyph glyph-name="dotaccent" unicode="&#x2d9;" horiz-adv-x="166" 
d="M101 520q-7 -1 -36 -5q-4 2 -16 5t-20 7t-11 10q-9 20 -7 77q-1 4 7 10t14 7q35 8 77 10q20 0 26 -7t7 -27q0 -16 1 -23q5 -30 -4 -44t-38 -20z" />
    <glyph glyph-name="ring" unicode="&#x2da;" horiz-adv-x="122" 
d="M66 611q2 -2 12 -8t14 -10q26 -17 17 -45q-4 -14 -14 -31q-17 -25 -47 -15q-24 10 -33 23q-14 22 -4.5 47.5t35.5 32.5q4 2 11 3.5t9 2.5zM85 572q-10 1 -24 5q-17 6 -23 -7q-6 -10 -6 -16q0 -11 4 -16q13 -9 26 -12q4 -1 10 1t7 5q16 26 6 40z" />
    <glyph glyph-name="ogonek" unicode="&#x2db;" horiz-adv-x="178" 
d="M59 2q-1 2 5.5 8t16 8.5t20.5 -4.5q7 -6 8 -13.5t-6 -19.5t-12 -18t-18 -23q-40 -50 -2 -88q19 -15 34 -9.5t19 17.5q9 28 40 26q18 -3 14.5 -22t-18.5 -32q-27 -20 -68.5 -15.5t-72.5 27.5q-21 14 -18 35.5t16 40t32 34.5q10 8 14.5 15t4 13t-1.5 9.5t-4 6.5z" />
    <glyph glyph-name="tilde" unicode="&#x2dc;" horiz-adv-x="293" 
d="M5 532q28 25 29 26q30 28 41 34q48 26 87 -12l46 -46q4 -4 14 -12q14 -10 22 -10t22 10q10 8 16 11h6q0 -1 1 -3q1 -3 0 -4q-20 -18 -31 -24q-24 -13 -45 3q-20 16 -44 40q-5 4 -28 27q-32 28 -64 2q-25 -22 -43 -41q-11 -13 -29 -1z" />
    <glyph glyph-name="hungarumlaut" unicode="&#x2dd;" horiz-adv-x="276" 
d="M237 688q30 -32 35 -89q-57 -33 -89 -118q0 -1 -1.5 -4t-2 -4.5t-1.5 -4t-2 -3.5t-2 -3t-2.5 -3t-3.5 -2l-4 -2t-5 -1q-5 -1 -9 0t-7 3.5t-4.5 4.5t-4.5 7t-4 6q-35 54 -34.5 76t35.5 76q9 13 45 59q13 16 30 16.5t31 -14.5zM105 671q3 -14 1 -20.5t-11 -18t-11 -17.5
q-8 -19 -26 -57q-18 -37 -47 -11q-24 23 -47 47q-14 15 -14.5 28.5t10.5 31.5q8 14 46 90q37 14 61 -20q3 -5 18 -23t20 -30z" />
    <glyph glyph-name="uni03A9" unicode="&#x3a9;" horiz-adv-x="483" 
d="M36 4q-22 4 4 30q20 20 33 20q68 2 100 2q-48 39 -76.5 98.5t-31 120.5t16 115.5t69.5 90t125 36.5q16 -3 40.5 -5t37.5 -4t29.5 -7.5t28 -17.5t21.5 -32q33 -67 34.5 -121.5t-24.5 -129.5q-11 -33 -61 -89q29 7 68 -7q10 -4 19.5 -21t-2.5 -23q-5 0 -29 -2t-42 -3
t-39.5 1.5t-32.5 9.5q-3 4 -6 14.5t-2 15.5q3 7 12 16.5t11 14.5q63 54 58 164q-4 94 -52 150q-53 63 -118 17q-21 -15 -41 -41q-44 -55 -26 -193q3 -38 19 -67.5t52.5 -69.5t46.5 -53q-1 -3 -20 -21t-20 -19q-18 -3 -22.5 -1.5t-57 6t-122.5 5.5z" />
    <glyph glyph-name="pi" unicode="&#x3c0;" horiz-adv-x="449" 
d="M68 381q-112 16 -101 47q3 6 10 13q75 2 212.5 -1.5t188.5 -3.5q29 4 29 -23q-2 -8 -8.5 -13t-17.5 -10t-15 -8l-16 -24q-7 -12 -11.5 -30t-7.5 -44t-4.5 -38.5t-2.5 -44.5l-2 -32q-5 -80 3 -110q12 -35 49 -30.5t53 31.5q8 5 14 1.5t2 -12.5q-7 -23 -39.5 -37.5
t-60.5 -14t-40 7.5q-40 46 -51 95.5t-2.5 84.5t26 94t22.5 98q-112 -7 -130 -6q7 -49 -12 -170q-10 -68 -28 -141q-5 -18 -35 -20q-26 0 -27 14q2 10 5 43q20 160 26 240q0 5 2 19l3 21q-24 2 -34 4z" />
    <glyph glyph-name="endash" unicode="&#x2013;" horiz-adv-x="318" 
d="M40 228q-60 31 -16 39q23 5 74 5q28 0 55.5 -1t57.5 -3l45 -3q53 -3 54 -22q2 -15 -24 -20q-13 -3 -28 -2q-28 2 -81 2.5t-91.5 1t-45.5 3.5z" />
    <glyph glyph-name="emdash" unicode="&#x2014;" horiz-adv-x="395" 
d="M38 213q-60 31 -16 39q23 5 74 5q69 0 230 -7q53 -3 54 -22q2 -15 -24 -20q-13 -3 -28 -2q-28 2 -99 2.5t-127.5 1t-63.5 3.5z" />
    <glyph glyph-name="quoteleft" unicode="&#x2018;" horiz-adv-x="186" 
d="M135 714q30 -32 35 -89q-57 -33 -89 -118q0 -1 -1.5 -4t-2 -4.5t-1.5 -4t-2 -3.5t-2 -3t-2.5 -3t-3.5 -2l-4 -2t-5 -1q-25 -4 -29 21q-5 37 -5.5 50.5t1 45t14.5 58.5t36 57q13 16 30 16.5t31 -14.5z" />
    <glyph glyph-name="quoteright" unicode="&#x2019;" horiz-adv-x="164" 
d="M135 714q30 -32 35 -89q-57 -33 -89 -118q0 -1 -1.5 -4t-2 -4.5t-1.5 -4t-2 -3.5t-2 -3t-2.5 -3t-3.5 -2l-4 -2t-5 -1q-25 -4 -29 21q-5 37 -5.5 50.5t1 45t14.5 58.5t36 57q13 16 30 16.5t31 -14.5z" />
    <glyph glyph-name="quotesinglbase" unicode="&#x201a;" horiz-adv-x="164" 
d="M125 138q30 -32 35 -89q-57 -33 -89 -118q0 -1 -1.5 -4t-2 -4.5t-1.5 -4t-2 -3.5t-2 -3t-2.5 -3t-3.5 -2l-4 -2t-5 -1q-25 -4 -29 21q-5 37 -5.5 50.5t1 45t14.5 58.5t36 57q13 16 30 16.5t31 -14.5z" />
    <glyph glyph-name="quotedblleft" unicode="&#x201c;" horiz-adv-x="282" 
d="M237 688q30 -32 35 -89q-57 -33 -89 -118q0 -1 -1.5 -4t-2 -4.5t-1.5 -4t-2 -3.5t-2 -3t-2.5 -3t-3.5 -2l-4 -2t-5 -1q-5 -1 -9 0t-7 3.5t-4.5 4.5t-4.5 7t-4 6q-35 54 -34.5 76t35.5 76q9 13 45 59q13 16 30 16.5t31 -14.5zM105 671q3 -14 1 -20.5t-11 -18t-11 -17.5
q-8 -19 -26 -57q-18 -37 -47 -11q-24 23 -47 47q-14 15 -14.5 28.5t10.5 31.5q8 14 46 90q37 14 61 -20q3 -5 18 -23t20 -30z" />
    <glyph glyph-name="quotedblright" unicode="&#x201d;" horiz-adv-x="280" 
d="M-22 518q-18 19 -24.5 37t-9.5 52q57 32 91 117q0 1 1.5 4t2 4.5t1.5 4t2 3.5t2 3t2.5 3t3.5 2l4 2t5 1q6 1 11 -1.5t7 -4.5t7 -9l4 -7q34 -54 33.5 -76t-36.5 -76q-7 -9 -14.5 -19t-17 -21t-14.5 -18q-13 -16 -30 -16.5t-31 15.5zM110 533q-3 14 -0.5 20.5t11.5 18
t11 17.5q10 23 27 56q18 37 47 11q16 -16 46 -48q14 -15 14.5 -28.5t-11.5 -31.5q-9 -16 -26 -49t-21 -40q-37 -14 -61 21q-4 7 -18 24.5t-19 28.5z" />
    <glyph glyph-name="quotedblbase" unicode="&#x201e;" horiz-adv-x="306" 
d="M267 97q30 -32 35 -89q-57 -33 -89 -118q0 -1 -1.5 -4t-2 -4.5t-1.5 -4t-2 -3.5t-2 -3t-2.5 -3t-3.5 -2l-4 -2t-5 -1q-5 -1 -9 0t-7 3.5t-4.5 4.5t-4.5 7t-4 6q-35 54 -34.5 76t35.5 76q9 13 45 59q13 16 30 16.5t31 -14.5zM135 80q3 -14 1 -20.5t-11 -18t-11 -17.5
q-8 -19 -26 -57q-18 -37 -47 -11q-24 23 -47 47q-14 15 -14.5 28.5t10.5 31.5q8 14 46 90q37 14 61 -20q3 -5 18 -23t20 -30z" />
    <glyph glyph-name="dagger" unicode="&#x2020;" horiz-adv-x="308" 
d="M194 266l-2 -46v-2v-41l-3 -126q2 -37 2 -49t-2 -29t-2 -22q4 -22 -18 -20q-28 2 -52 24q-9 8 -7 13q1 12 0.5 35.5t-0.5 34.5q2 214 5 231v-2l2 2h-2l2 97q0 42 -1 81h-1q-70 0 -79 5q-60 31 -16 39q23 5 74 5h19h1q-5 204 -4 220q1 19 10.5 25t25.5 -3q27 -17 37 -39
t10 -59q-2 -72 -2 -86l3 -61l1 -1l57 -3q53 -3 54 -22q2 -15 -24 -20q-13 -3 -28 -2q-34 2 -58 2v1l-1 -1h1q1 -17 1 -51q0 -3 -3 -129v-1z" />
    <glyph glyph-name="daggerdbl" unicode="&#x2021;" horiz-adv-x="290" 
d="M256 262q53 -3 54 -22q2 -15 -24 -20q-13 -3 -28 -2q-38 2 -66 2v-2v-41l-3 -126q2 -37 2 -49t-2 -29t-2 -22q4 -22 -18 -20q-28 2 -52 24q-9 8 -7 13q1 12 0.5 35.5t-0.5 34.5l4 181l-2 2q-66 0 -72 4q-60 31 -16 39q23 5 74 5h17v-2l2 2h-2l2 97q0 42 -1 81h-1
q-70 0 -79 5q-60 31 -16 39q23 5 74 5h19h1q-5 204 -4 220q1 19 10.5 25t25.5 -3q27 -17 37 -39t10 -59q-2 -72 -2 -86l3 -61l1 -1l57 -3q53 -3 54 -22q2 -15 -24 -20q-13 -3 -28 -2q-34 2 -58 2v1l-1 -1h1q1 -17 1 -51q0 -3 -3 -129v-1q22 -2 62 -4z" />
    <glyph glyph-name="bullet" unicode="&#x2022;" horiz-adv-x="194" 
d="M128 250q-1 0 -44 -7q-5 2 -20 6.5t-25 9.5t-14 13q-12 28 -8 100q-2 6 14.5 27t23.5 22q10 5 35.5 3t36.5 -1q24 0 37.5 -16.5t14.5 -43.5q0 -21 1 -30q7 -39 -4.5 -57.5t-47.5 -25.5z" />
    <glyph glyph-name="ellipsis" unicode="&#x2026;" horiz-adv-x="833" 
 />
    <glyph glyph-name="perthousand" unicode="&#x2030;" horiz-adv-x="833" 
d="M303 603q2 -68 -22 -110q-32 -60 -98 -215q-19 -46 -52.5 -131.5t-45.5 -115.5q-3 -7 -9.5 -19.5t-8.5 -15.5q-4 1 -12 1q-1 5 -9 31t-12 40q-3 14 3 25q37 92 72 173q68 158 103 236q24 54 56 122q1 2 4 5.5t4 4.5q26 -6 27 -31zM90 419q-12 -8 -24 -2t-18 21
q-40 102 7 180q10 14 33 30q13 8 24.5 2t13.5 -22v-49q-45 -5 -47 -55q30 -5 52 17.5t19 54.5q0 2 -6 62q2 0 4 1l4 2q15 -13 16 -15q26 -72 -1 -166q0 -1 -2 -3q-65 -52 -75 -58zM290 270q35 1 48.5 -17.5t4.5 -51.5q-18 -61 -55 -100q-36 -39 -57 7q-34 77 -14 161
q4 16 13 27q14 16 29.5 13t23.5 -23q1 -3 3.5 -8t3.5 -8zM302 212q4 8 1.5 17t-11.5 11q-18 4 -28 -10q-16 -29 -4 -50q24 0 42 32zM382 127q-49 116 0 151q29 21 69 0q39 -20 36 -55q-1 -5 -2 -9q-16 -56 -51 -93q-32 -35 -52 6zM440 215q-5 1 -0.5 17t-1.5 18
q-16 4 -26 -10q-7 -13 -7.5 -36.5t11.5 -45.5q10 0 18.5 14.5t9.5 27t-4 15.5z" />
    <glyph glyph-name="guilsinglleft" unicode="&#x2039;" horiz-adv-x="332" 
d="M112 251q126 -61 127 -62q21 -9 33 -14.5t22 -13t13 -11t5.5 -13.5t2 -16.5t-0.5 -23.5v-31q0 -1 -5 -11q-10 0 -11 1q-14 11 -33.5 22t-30.5 16t-38.5 16t-33.5 14q-43 19 -114 61q-37 21 -41 92q0 10 10 20q39 40 114 119t112 117q1 1 5.5 6t6.5 6.5t6.5 4t9 2
t9.5 -3.5q19 -9 22 -38q3 -46 -26 -74q-16 -15 -41.5 -47.5t-31.5 -39.5q-8 -9 -25.5 -24.5t-24.5 -23.5q-16 -17 -41 -50z" />
    <glyph glyph-name="guilsinglright" unicode="&#x203a;" horiz-adv-x="342" 
d="M226 251q-25 33 -41 50q-7 8 -24.5 23.5t-25.5 24.5q-6 7 -31.5 39t-40.5 47q-29 28 -26 74q3 29 22 38q5 2 9 2.5t6.5 0t6 -3t5 -4t5 -5.5t4.5 -5q150 -156 225 -235q10 -10 10 -20q-4 -71 -41 -92q-82 -46 -113 -60q-8 -3 -27.5 -11t-29.5 -12.5t-25.5 -12t-28 -15.5
t-24.5 -17q-1 -1 -11 -1q-5 10 -5 11v31t-0.5 23.5t1.5 16.5t5.5 13.5t13 10.5t21.5 12.5t33 14.5q1 1 127 62z" />
    <glyph glyph-name="fraction" unicode="&#x2044;" horiz-adv-x="300" 
d="M243 747q7 17 18.5 19.5t22.5 -11.5q4 -6 7 -11t4.5 -11l2.5 -10t0 -11.5t-1.5 -11t-3 -12.5t-3.5 -12t-5.5 -14t-5.5 -14q-24 -58 -31 -80q-43 -135 -49 -150q-14 -39 -41.5 -108.5t-37.5 -96.5q-6 -15 -21 -55.5t-25 -61.5q-5 -9 -0.5 -16t4 -16t-11.5 -16
q-10 -6 -17 -48q-3 -17 -27 -43q-15 17 -15 18q-5 12 -1 19.5t3 13.5t-13 10q-19 6 -9 26q5 11 12 33t12 33q14 38 55.5 142.5t62.5 162.5q7 18 56 164t58 168z" />
    <glyph glyph-name="Euro" unicode="&#x20ac;" horiz-adv-x="434" 
d="M51 321l3 1q3 0 8.5 0.5t10.5 0.5q0 37 5 64q-2 0 -4 1h-2q-5 4 -9 6.5t-10.5 7.5t-10 8.5t-6 8t-1.5 7.5t6 5q12 5 50 5q25 76 76 125q25 27 76 31.5t97.5 -15t56.5 -55.5q2 -8 -4 -12.5t-15 -3.5t-15 7q-16 18 -27 28t-26.5 19.5t-31.5 7.5t-34 -14q-49 -35 -77 -117
q50 -2 60 -10q15 -13 21 -21.5t-2 -13.5q-11 -3 -94 -7q-7 -35 -7 -61q39 -2 50 -6q50 -24 28 -32q-17 -6 -74 -9q8 -45 35.5 -74.5t74.5 -34.5q14 5 26 11t26 17t20 16t22.5 21t18.5 18q20 17 35 -0.5t7 -35.5q-23 -53 -85.5 -74t-126.5 -3.5t-92 64.5q-21 33 -30 71
q-38 -2 -51 2q-10 4 -17.5 12.5t-8.5 15.5t2 11q3 2 14.5 3t21.5 1.5t10 2.5z" />
    <glyph glyph-name="trademark" unicode="&#x2122;" horiz-adv-x="407" 
d="M360 589h-2l-3 -10q-6 -34 -10 -107q-2 -16 -4 -24q-4 -19 -24 -11l-9 3q-13 5 -14 17l-12 68q-9 39 -11 53l-4 8q-11 -16 -12 -30q-7 -40 -5 -91v-42q0 -6 -1 -8q-2 -14 -7 -16.5t-18 4.5q-6 2 -10 6q0 7 -0.5 54.5t4.5 55.5q1 1 1 6q-3 0 -1 21l1 21q0 15 -1 22h-1
q-8 0 -33 -10l-54 -20l3 -49l3 -48q3 -26 3 -50q0 -6 3.5 -22.5t3.5 -25.5q-28 9 -32 24q-5 21 -7 63q-6 63 -5 66v12v21q-7 0 -11 -1l-55 -16l-2 -1h-3q-20 -3 -20.5 -2.5t-14.5 19.5q-3 4 11 14.5t30.5 18t20.5 4.5q2 -3 3 -3q4 -10 11 -9l27 6q12 4 11 14l8 -2
q5 -4 16 -2q28 12 50 18q6 2 33 7q4 0 6 -1q14 -2 22 -19l9 11q29 -1 37 -28q3 -9 7 -24.5t5 -18.5q6 -26 10 -38h3l3 30q1 6 2 17t2 17l6 27l9 37q2 9 8.5 16t11.5 6q18 -3 24 -19q3 -9 3 -11q11 -53 14 -100q2 -55 9 -92q4 -15 13 -20q1 -1 4 -9l-10 -3q-22 9 -29 13
q-5 3 -7 7.5t-3 13.5t-1 10q-5 26 -7.5 74.5t-4.5 63.5q0 2 -1.5 7.5t-1.5 6.5z" />
    <glyph glyph-name="Omega" unicode="&#x2126;" horiz-adv-x="479" 
d="M36 4q-22 4 4 30q20 20 33 20q68 2 100 2q-48 39 -76.5 98.5t-31 120.5t16 115.5t69.5 90t125 36.5q16 -3 40.5 -5t37.5 -4t29.5 -7.5t28 -17.5t21.5 -32q33 -67 34.5 -121.5t-24.5 -129.5q-11 -33 -61 -89q29 7 68 -7q10 -4 19.5 -21t-2.5 -23q-5 0 -29 -2t-42 -3
t-39.5 1.5t-32.5 9.5q-3 4 -6 14.5t-2 15.5q3 7 12 16.5t11 14.5q63 54 58 164q-4 94 -52 150q-53 63 -118 17q-21 -15 -41 -41q-44 -55 -26 -193q3 -38 19 -67.5t52.5 -69.5t46.5 -53q-1 -3 -20 -21t-20 -19q-18 -3 -22.5 -1.5t-57 6t-122.5 5.5z" />
    <glyph glyph-name="partialdiff" unicode="&#x2202;" horiz-adv-x="415" 
d="M126 502q-14 -24 -23 -9q-12 19 7 52l2 4q30 48 78 62.5t85 1.5q60 -18 95 -72.5t38.5 -124t-11.5 -139t-53.5 -126.5t-89.5 -78q-55 -26 -122.5 -20.5t-93.5 34.5q-34 38 -38.5 88.5t19 97t62.5 83.5t96 52.5t116 -0.5q25 -8 31 -29q3 -12 -5 -13q-42 8 -92.5 -10
t-87.5 -53t-54 -80.5t7 -91.5q57 -26 113 1.5t89.5 88t49.5 129t-4.5 130t-75.5 84.5q-24 11 -71 -8t-67 -54z" />
    <glyph glyph-name="Delta" unicode="&#x2206;" horiz-adv-x="437" 
d="M24 56q-3 -9 -10 -7.5t-9 9.5q3 31 33 79t37 68q9 27 41.5 140.5t58.5 172.5q26 63 28 67q20 12 31 -4q52 -84 97 -245q5 -19 16 -61t18 -65.5t21 -57t30 -59.5q7 -3 11 -9q5 -7 4 -15q-6 -15 -22.5 -18.5t-45 0t-31.5 3.5q-57 1 -161.5 1.5t-137.5 0.5q-5 0 -9 4v-4z
M223 511q-146 -418 -144 -418q199 2 283 1q-31 72 -61 169t-49.5 165t-28.5 83z" />
    <glyph glyph-name="product" unicode="&#x220f;" horiz-adv-x="395" 
d="M88 8q-2 -10 -43 -9.5t-43 11.5q1 7 9 62.5t11 82t8.5 84t5.5 97t-3 89.5t-11 91q-1 7 -6.5 23.5t-6.5 26.5q6 22 13 29q37 -8 109 3.5t122.5 19.5t107.5 -13q7 -3 10.5 -14.5t3.5 -28t-0.5 -30.5t-2 -30t-1.5 -18q-3 -74 6.5 -210t9.5 -195q-2 -11 -22 -12t-22 9
q-2 57 -10 161t-10 132q-1 32 3 88t1 91q-45 -5 -79.5 -2.5t-78.5 0.5t-77 -13q20 -33 19 -249.5t-23 -275.5z" />
    <glyph glyph-name="summation" unicode="&#x2211;" horiz-adv-x="447" 
d="M368 589q5 -1 10 -11t5 -18.5t-6 -10.5l-163 10q-31 2 -57 -1l23 -21q4 -4 16.5 -15t22.5 -20.5t15 -14.5q3 -3 35.5 -33t56.5 -53.5t44.5 -52.5t16.5 -44q-3 -11 -11.5 -19t-23 -15.5t-19.5 -11.5q-113 -81 -149 -115q-12 -11 -15.5 -16.5t-7.5 -13t-13 -19.5
q-4 -4 -13 -9q-6 -3 -1 -3q4 -1 23 0h51q36 0 56.5 -2t46.5 -5t56 -5q26 -2 52 1t52 3q5 -1 -2 -14.5t-18.5 -27t-17.5 -14.5q-69 -5 -201 -5h-147l-12 -1q-12 -2 -26 -3t-29 -0.5t-26 4.5t-13 12q-2 11 3.5 19.5t17 17.5t14.5 13q59 81 156 157q58 46 73 54q28 14 31 17
l1 1q0 5 -1 7q-5 13 -17 28q-19 28 -64 80q-28 32 -72 79l-23 20q-22 19 -34.5 36t-8.5 29q3 8 18.5 11t31 2.5t34 -2t20.5 -1.5z" />
    <glyph glyph-name="radical" unicode="&#x221a;" horiz-adv-x="499" 
d="M14 129q-12 2 -22 21q-7 13 0 15q6 7 23.5 29t27.5 32.5t27.5 21t33.5 9.5q42 -3 99 -134q31 -66 35 -66l42 96q18 39 34.5 84t26 75t27 85.5t25.5 82.5q11 37 27 76.5t21 65.5q1 7 13.5 7.5t23.5 -4t10 -11.5q-2 -20 -10.5 -51t-10.5 -41q-25 -113 -96.5 -333.5
t-118.5 -279.5q-4 -6 -29 -7t-30 4q-5 6 -7.5 15.5t-11 45t-20.5 77.5q-24 78 -60 152q-16 0 -38.5 -32.5t-41.5 -34.5z" />
    <glyph glyph-name="infinity" unicode="&#x221e;" horiz-adv-x="647" 
d="M276 363q4 -6 1.5 -14t-9 -13t-11.5 0q-21 26 -46 45t-58.5 27.5t-61.5 -14.5q-33 -23 -30.5 -93.5t41.5 -85.5q12 -4 24 -4.5t23.5 3.5t21.5 8t21 14t19 16.5t18.5 19.5t15.5 19t15 19.5t13 16.5q28 37 53 63t59 52.5t73.5 36.5t80.5 2q28 -5 52 -39t35.5 -76t15 -84
t-10.5 -64q-36 -62 -106 -82q-38 -10 -73 7t-75.5 53t-56.5 46q-7 7 4 21t20 12q19 -12 51 -38.5t57.5 -36.5t68.5 -10q51 0 66 48t-2.5 102.5t-48.5 75.5q-11 8 -78 -4q-44 -9 -75 -34.5t-46 -53.5t-39.5 -64.5t-51.5 -59.5q-87 -72 -158 -44q-58 23 -74.5 94.5t10.5 138.5
t80 80q70 18 172 -106z" />
    <glyph glyph-name="integral" unicode="&#x222b;" horiz-adv-x="304" 
d="M295 578q-2 -9 -15 -10t-17 8q11 19 2 40t-26.5 21t-36.5 -30q-6 -10 -9.5 -26t-4 -28.5t-1.5 -32t-1 -25.5q-11 -220 4 -359q1 -13 7 -58t9 -71t3 -63t-5 -61q-8 -37 -71 -53.5t-103 11.5q-7 5 -12 11.5t-8 15.5t-5 16.5t-2.5 19.5t-0.5 18v18.5v15.5q2 12 18 17
q15 6 17 -9q3 -74 17 -98q13 -15 29.5 -10.5t31 24.5t15.5 41q2 43 -2.5 91.5t-12.5 105.5t-11 90q-14 202 12 385q2 12 11 35t17 33q33 34 74.5 26t64.5 -48q4 -8 6.5 -18t3.5 -24t2 -19z" />
    <glyph glyph-name="approxequal" unicode="&#x2248;" horiz-adv-x="379" 
d="M8 326q4 4 17.5 15.5t20.5 17.5q39 37 53 44q29 16 59.5 12t53.5 -27q11 -12 31 -32l28 -28l18 -15q18 -13 28.5 -13t28.5 13q16 12 21 14h8q0 -1 0.5 -3.5t0.5 -3.5v-2q-23 -21 -40 -31q-32 -17 -58 4q-24 18 -57 51q-7 6 -20 18.5t-17 16.5q-41 37 -82 3
q-30 -26 -56 -53q-9 -10 -17 -10t-21 9zM2 187q24 22 38 34q37 35 53 44q29 16 59 11.5t53 -27.5q40 -40 60 -59q11 -11 18 -16q17 -14 27.5 -14t29.5 14q13 11 20 14h8q0 -1 1.5 -4.5t0.5 -4.5q-29 -25 -41 -31q-31 -16 -58 4q-32 27 -57 52q-4 3 -36 35q-42 36 -83 3
q-39 -35 -55 -54q-10 -10 -17.5 -10t-20.5 9z" />
    <glyph glyph-name="notequal" unicode="&#x2260;" horiz-adv-x="322" 
d="M38 340q-60 31 -16 39q23 5 74 5q27 0 69 -2q6 15 18.5 49t20.5 55q7 19 21.5 27t25.5 -5q12 -18 11 -34t-14 -52q-13 -38 -15 -44q7 -1 21 -1q53 -3 54 -22q2 -15 -24 -20q-13 -3 -28 -2l-39 2l-27 -71q22 -2 66 -4q53 -3 54 -22q2 -15 -24 -20q-13 -3 -28 -2
q-36 3 -86 3l-22 -56q-11 -27 -41 -31q-25 -4 -28 14q-1 6 2 14q19 54 21 59q-56 0 -64 4q-60 31 -16 39q23 5 74 5h24q2 5 11 28t15 41q-103 0 -110 4z" />
    <glyph glyph-name="lessequal" unicode="&#x2264;" horiz-adv-x="334" 
d="M52 2q-60 31 -16 39q23 5 74 5q28 0 55.5 -1t57.5 -3l45 -3q53 -3 54 -22q2 -15 -24 -20q-13 -3 -28 -2q-28 2 -81 2.5t-91.5 1t-45.5 3.5zM112 251q126 -61 127 -62q21 -9 33 -14.5t22 -13t13 -11t5.5 -13.5t2 -16.5t-0.5 -23.5v-31q0 -1 -5 -11q-10 0 -11 1
q-14 11 -33.5 22t-30.5 16t-38.5 16t-33.5 14q-43 19 -114 61q-37 21 -41 92q0 10 10 20q39 40 114 119t112 117q1 1 5.5 6t6.5 6.5t6.5 4t9 2t9.5 -3.5q19 -9 22 -38q3 -46 -26 -74q-16 -15 -41.5 -47.5t-31.5 -39.5q-8 -9 -25.5 -24.5t-24.5 -23.5q-16 -17 -41 -50z" />
    <glyph glyph-name="greaterequal" unicode="&#x2265;" horiz-adv-x="306" 
d="M254 7q59 31 10 39q-21 4 -64 4q-26 0 -52 -1t-54 -3l-42 -3q-47 -2 -50 -21q-2 -13 18 -19q14 -5 31 -3q26 2 75.5 2.5t85.5 1t42 3.5zM198 251q-24 34 -38 50q-6 6 -22.5 21.5t-24.5 25.5q-5 6 -29 38t-39 47q-27 28 -24 73q3 28 20 37q5 3 9.5 3t8 -2t6 -3.5t6 -6
t5.5 -6.5l210 -231q10 -10 10 -20q-4 -70 -39 -90q-66 -43 -106 -60q-5 -2 -31 -13.5t-36 -16.5t-28 -15.5t-31 -21.5q-1 -1 -11 -1q-4 8 -4 11q0 14 -1 34t0 25.5t3.5 15.5t11 15.5t20.5 12t35 17.5q23 10 64.5 32t54.5 29z" />
    <glyph glyph-name="lozenge" unicode="&#x25ca;" horiz-adv-x="409" 
d="M6 340q0 4 1 6q19 52 71 164.5t73 175.5q11 8 20 4q28 -10 114.5 -146.5t120.5 -213.5q-12 -35 -40 -86t-65 -112t-44 -72q-2 -4 -7.5 -19t-11.5 -21q-8 -4 -28.5 -4.5t-27.5 4.5q-20 29 -74 149.5t-86 152.5q-2 -5 -6 -6t-7.5 2t-4.5 8q0 4 2 14zM162 605l-110 -259
q38 -30 82.5 -144.5t59.5 -139.5q35 79 137 270q-5 14 -10 25.5t-10.5 21.5t-20 32t-26.5 40.5t-43 65zM175 663v1v-1z" />
    <glyph glyph-name="j.01" unicode="&#xe003;" horiz-adv-x="450" 
d="M171 414q-29 15 -36 45.5t14 56.5q9 11 19 20.5t23.5 18t21.5 13.5t26 15t24 13q6 4 14 5.5t19 2t17 1.5q21 -30 21 -38t-24 -28q-27 -24 -75.5 -68t-63.5 -57zM497 268q1 -26 -5 -43.5t-12 -22.5l-7 -4q-44 -16 -72 -54t-27 -80q3 -155 -63 -352q-16 -49 -37 -90
q-10 -21 -20 -21t-25 18q-47 53 -47 153q-2 93 30 180q43 121 86 188q20 32 5.5 84t-47.5 71q-21 13 -47.5 9.5t-45.5 -23.5q-30 -29 -48 -61q-67 -115 -59 -251q2 -40 29 -55q25 -14 12 -42q-21 1 -45 31q-51 70 -48 161q8 166 114 279q36 35 74 33.5t71 -32.5
q14 -13 58 -82l23 -46q27 25 34 30q40 33 56 42q44 25 63 -20zM251 -231q33 62 57 274q-27 -38 -45.5 -137.5t-11.5 -136.5z" />
    <glyph glyph-name="g.01" unicode="&#xe004;" horiz-adv-x="321" 
d="M154 273q-3 2 -15.5 15t-17.5 17q-20 -19 -32.5 -64.5t-14.5 -81.5q3 4 17.5 28.5t19.5 30.5q29 42 78 30q49 -10 81 -56q58 -83 30 -198q-47 -181 -174 -314q-44 -46 -82 -39q-102 21 -142 56q-36 30 -36 79q0 69 17 100q3 -1 9 -1l3 -27q3 -80 3 -82q3 -40 43 -48
q77 -12 128 42q110 118 160 282q8 28 16 84q7 33 -14 41q-32 12 -50 -10q-20 -28 -48 -75q-4 -7 -10 -21t-10 -21q-34 -55 -74 -2q-45 60 -33 124q17 91 34 144q20 59 61 71q24 8 40 -13q20 -29 22.5 -47t-9.5 -44z" />
    <glyph glyph-name="o.01" unicode="&#xe005;" horiz-adv-x="511" 
d="M16 214q-33 28 -42.5 41t-19.5 49q-3 43 27 78.5t71 50t86 1t70 -58.5q13 -34 16 -69t1 -53t-9 -63q4 -2 13.5 -2t12.5 -1q79 -11 135.5 -33.5t87.5 -53.5t46 -60.5t22 -65.5q3 -34 -11 -41q-10 -4 -14 15q-1 1 -1 2q-3 72 -91 126.5t-188 56.5h-22q-17 -48 -25 -63
q-20 -39 -38 -60q-31 -40 -75 -15q-8 4 -21.5 13.5t-18.5 12.5q-20 13 -25 47q-8 81 13 146zM148 186q2 4 2.5 15.5t1.5 14.5q14 64 -24 112q-33 40 -70 27q-27 -9 -42 -49q-1 -13 -1.5 -18.5t0 -10.5t1.5 -6.5l4 -6t5 -9.5q11 6 25.5 2.5t23.5 -7t21.5 -13.5t19.5 -17
t17.5 -18t15.5 -16zM72 94q1 -1 4.5 -14t5.5 -14q5 -3 10.5 1.5t11.5 15.5t11 20.5t10.5 22.5t6.5 16q-13 11 -35 18.5t-27 -2.5q-6 -24 2 -64z" />
    <glyph glyph-name="fi" unicode="&#xfb01;" horiz-adv-x="330" 
d="M221 365q-25 -4 -69 -11t-63 -10v-49q11 -173 -3 -327q-3 -19 -3 -20q-6 -14 -16 -16t-21 8q-45 45 -41 98q2 38 4 81t4.5 94.5t3.5 80.5q1 13 1 41q-16 4 -27.5 11.5t-19 22t-10 22t-8.5 27.5q-8 27 2.5 43.5t37.5 16.5q2 -1 15 3q1 6 4.5 22.5t5.5 25.5q17 103 26 148
q14 72 73 113q25 18 64 27q54 8 73 -45q10 -27 13 -57q1 -16 -4.5 -22t-22.5 -7q-60 -2 -87 -22.5t-43 -77.5q-3 -10 -16 -73v-31h31q6 1 31 7.5t38 8.5q26 4 58 -1q32 -4 40 -46q9 -43 9 -129l-3 -213q0 -28 -9 -45q-7 -15 -18.5 -15t-20.5 14q-42 64 -34 126q5 38 7 146z
" />
    <glyph glyph-name="fl" unicode="&#xfb02;" horiz-adv-x="417" 
d="M357 131q31 -11 44 -28.5t13 -48.5q0 -15 -11 -23q-20 -16 -49 -12t-44 25q-44 63 -41 115q2 41 4.5 123t4.5 123q0 27 1.5 57t4 66t3.5 58q-3 2 -7 4t-7 4q-4 -6 -21 -8q-53 -2 -77 -19.5t-37 -65.5q-6 -21 -14 -63v-27h27q53 13 61 14q8 2 -7 -30t-41.5 -65t-44.5 -36
v-43q11 -146 -2 -280q-2 -15 -3 -16q-12 -28 -32 -8q-40 38 -36 84q4 77 10 219q1 11 1 35q-19 5 -31 18t-15.5 22.5t-10.5 31.5q-7 23 2 37t33 14q2 0 6 1.5t7 1.5q3 13 9 41q13 78 23 126q12 62 64 97q24 18 56 23q22 4 38 -4q6 5 22 5q34 1 47.5 -7.5t26.5 -39.5
q26 -65 23 -132q-2 -40 -7 -250q-1 -22 -3.5 -65.5t-3.5 -65.5q4 -2 8 -4.5t6 -3.5z" />
    </font>
</defs>
</svg>
